<svg width="312" height="77" viewBox="0 0 312 77" fill="none" xmlns="http://www.w3.org/2000/svg">
<g clip-path="url(#clip0_3837_12237)">
<path d="M67.4814 76.1836H38.6882C17.8734 76.1836 1.02539 59.204 1.02539 38.2266C1.02539 17.2491 17.8734 0.269531 38.6882 0.269531H67.4814C88.2962 0.269531 105.144 17.2491 105.144 38.2266C105.144 59.1591 88.2962 76.1836 67.4814 76.1836Z" fill="black"/>
<path d="M28.7045 55.8349C26.4314 54.8916 24.4256 53.544 22.7319 51.7921C20.9936 50.0852 19.6565 48.0638 18.6759 45.7729C17.6954 43.482 17.2051 41.0564 17.2051 38.496C17.2051 35.8457 17.6954 33.3751 18.6314 31.0393C19.5674 28.7035 20.9045 26.6372 22.5536 24.8404C24.2474 23.0436 26.2531 21.6511 28.5262 20.6629C30.7994 19.6747 33.2508 19.1805 35.9251 19.1805C38.3765 19.1805 40.6942 19.6297 42.9228 20.4832C45.1514 21.3816 47.0679 22.5944 48.6279 24.2115C49.0291 24.6158 49.2519 25.1099 49.2519 25.649C49.2519 26.0982 49.0736 26.5024 48.6725 26.8618C48.3159 27.2211 47.9148 27.3559 47.5136 27.3559C47.1571 27.3559 46.5331 27.0415 45.6416 26.3677L43.4131 24.7506C41.3628 23.403 38.7331 22.7292 35.6131 22.6843C33.5628 22.7292 31.6462 23.1335 29.8188 23.942C27.9914 24.7506 26.3868 25.8736 25.0051 27.311C23.6234 28.7484 22.5537 30.4104 21.7959 32.2971C21.0382 34.1837 20.6371 36.1152 20.6371 38.1366C20.6371 40.2029 20.9936 42.2243 21.7514 44.1109C22.5091 45.9975 23.5342 47.7045 24.9159 49.097C26.2977 50.5793 27.9022 51.7023 29.7742 52.5109C31.6462 53.3194 33.6519 53.7237 35.8359 53.7237C37.8417 53.7237 39.7582 53.3643 41.5857 52.6007C43.4131 51.8371 45.0622 50.759 46.5331 49.3665C46.9342 49.1419 47.2908 49.052 47.5136 49.052C47.8702 49.052 48.2268 49.2317 48.6279 49.5462C48.9845 49.8606 49.2074 50.2649 49.2074 50.759C49.2074 51.298 48.9845 51.7921 48.5834 52.1964C47.0234 53.7686 45.1068 54.9814 42.8782 55.8798C40.6051 56.7782 38.2874 57.2274 35.8805 57.2274C33.3845 57.2723 30.9777 56.7782 28.7045 55.8349Z" fill="white"/>
<path d="M64.7175 55.8349C62.3998 54.8467 60.3941 53.4542 58.6558 51.7472C56.9175 49.9954 55.5803 47.974 54.5998 45.6382C53.6192 43.3023 53.1289 40.8318 53.1289 38.2714C53.1289 35.7109 53.6192 33.2404 54.5998 30.9045C55.5803 28.5687 56.9621 26.5024 58.6558 24.7506C60.3941 22.9987 62.3998 21.6511 64.7175 20.6629C67.0352 19.6747 69.4866 19.1805 72.0272 19.1805C74.5678 19.1805 76.9746 19.6747 79.3369 20.6629C81.6992 21.6511 83.7049 23.0436 85.4878 24.7506C87.2261 26.5024 88.6078 28.5238 89.5883 30.8596C90.5689 33.1954 91.1038 35.6211 91.1038 38.1815C91.1038 38.6756 90.97 39.0799 90.658 39.3943C90.346 39.7088 89.9449 39.8885 89.4546 39.8885H56.9175C57.0512 41.82 57.5861 43.6617 58.4329 45.3686C59.2798 47.0756 60.3941 48.6028 61.7758 49.9055C63.1575 51.2082 64.762 52.2413 66.5003 52.9151C68.2386 53.6338 70.1106 53.9932 72.0718 53.9932C73.81 53.9932 75.2363 53.8584 76.306 53.544C77.3758 53.2745 78.5792 52.7355 79.9609 51.9269C80.4066 51.7023 80.8078 51.6125 81.1198 51.6125C81.5655 51.6125 81.922 51.7921 82.234 52.1964C82.546 52.5558 82.6798 53.005 82.6798 53.4542C82.6798 53.7237 82.6352 53.9932 82.5015 54.2178C82.3678 54.4873 82.1449 54.667 81.8775 54.8467C80.6295 55.6552 79.1586 56.2841 77.554 56.7333C76.1278 57.1376 74.3003 57.3172 72.0272 57.3172C69.4421 57.3172 67.0352 56.8231 64.7175 55.8349ZM87.4935 36.8788C87.3598 34.9024 86.8695 33.0158 86.0226 31.2639C85.1758 29.512 84.0615 27.9399 82.6352 26.6372C81.2089 25.2896 79.6043 24.2565 77.7769 23.5377C75.9495 22.819 74.0329 22.4597 72.0272 22.4597C69.9769 22.4597 68.0603 22.819 66.2775 23.5827C64.4946 24.3463 62.89 25.3794 61.5083 26.6821C60.1266 28.0297 59.0123 29.557 58.2101 31.3088C57.3632 33.0607 56.8729 34.9473 56.7392 36.8788H87.4935Z" fill="white"/>
<path d="M116.065 56.7781C115.753 56.4637 115.619 56.0145 115.619 55.5204C115.619 55.0262 115.753 54.622 116.065 54.3075C116.377 53.9931 116.733 53.8583 117.179 53.8583H134.651C135.543 53.8134 136.389 53.6337 137.236 53.2744C138.083 52.915 138.841 52.4209 139.509 51.7471C140.223 51.0733 140.757 50.3097 141.159 49.4562C141.56 48.6027 141.738 47.6145 141.738 46.5814C141.738 44.6049 141.025 42.9429 139.554 41.5953C138.885 41.0113 138.128 40.5172 137.236 40.2028C136.345 39.8884 135.409 39.7087 134.473 39.6638H126.316C124.935 39.6638 123.597 39.3942 122.394 38.9001C121.191 38.3611 120.121 37.6424 119.229 36.6541C118.338 35.7108 117.625 34.6328 117.135 33.4199C116.644 32.2071 116.377 30.9044 116.377 29.5119C116.377 28.1194 116.644 26.8168 117.135 25.6039C117.625 24.3911 118.338 23.313 119.274 22.4146C120.21 21.5163 121.28 20.7975 122.483 20.3034C123.687 19.8093 124.979 19.5398 126.361 19.5398H141.292C141.783 19.5398 142.184 19.6746 142.54 19.989C142.897 20.3034 143.031 20.7077 143.031 21.2467C143.031 21.7858 142.852 22.19 142.54 22.5045C142.184 22.8189 141.783 22.9986 141.292 22.9986H126.272C125.38 22.9986 124.489 23.1783 123.687 23.5376C122.884 23.897 122.171 24.3911 121.592 25.02C121.012 25.6489 120.567 26.3676 120.255 27.1761C119.943 27.9847 119.764 28.7932 119.764 29.5569C119.764 30.4103 119.943 31.2638 120.255 32.0724C120.567 32.8809 121.057 33.5996 121.636 34.1836C122.884 35.5312 124.444 36.16 126.272 36.16H134.785C136.211 36.16 137.548 36.4295 138.841 36.9686C140.089 37.5076 141.248 38.2712 142.228 39.2146C143.164 40.1579 143.922 41.2809 144.457 42.5386C144.992 43.7964 145.259 45.1439 145.259 46.5364C145.259 47.9739 144.992 49.3664 144.457 50.669C143.922 51.9717 143.164 53.1396 142.228 54.0829C141.292 55.0712 140.178 55.8348 138.885 56.3738C137.637 56.9129 136.256 57.1824 134.829 57.1824H117.224C116.733 57.2722 116.377 57.1375 116.065 56.7781Z" fill="black"/>
<path d="M151.501 12.8018C151.055 12.3526 150.832 11.8136 150.832 11.1847C150.832 10.5109 151.055 9.92695 151.501 9.52267C151.946 9.07347 152.481 8.84888 153.15 8.84888C153.818 8.84888 154.353 9.07347 154.799 9.52267C155.245 9.97187 155.467 10.5109 155.467 11.1847C155.467 11.8136 155.245 12.3526 154.799 12.8018C154.353 13.251 153.818 13.4756 153.15 13.4756C152.481 13.5205 151.946 13.2959 151.501 12.8018ZM151.902 56.9128C151.545 56.5535 151.367 56.1492 151.367 55.6551V21.3365C151.367 20.7975 151.545 20.3932 151.857 20.0338C152.214 19.6745 152.615 19.5397 153.105 19.5397C153.64 19.5397 154.041 19.7194 154.353 20.0338C154.665 20.3932 154.799 20.7975 154.799 21.3365V55.6551C154.799 56.1492 154.621 56.5535 154.309 56.9128C153.997 57.2722 153.595 57.4069 153.105 57.4069C152.659 57.4069 152.258 57.2272 151.902 56.9128Z" fill="black"/>
<path d="M163.177 56.7786C162.821 56.4642 162.687 56.015 162.687 55.5208L162.598 31.1744C162.598 29.6023 162.91 28.075 163.489 26.6376C164.113 25.2001 164.915 23.9424 165.985 22.8643C167.055 21.7863 168.258 20.9777 169.685 20.3488C171.066 19.7649 172.582 19.4504 174.142 19.4504C176.192 19.4504 178.064 19.9446 179.802 20.9777C181.541 22.0109 182.922 23.3584 183.992 25.0654C185.017 23.3584 186.399 22.0109 188.137 20.9777C189.875 19.9446 191.747 19.4504 193.798 19.4504C195.402 19.4504 196.918 19.7649 198.344 20.3488C199.77 20.9328 201.018 21.7863 202.088 22.8643C203.158 23.9424 204.005 25.2001 204.629 26.6376C205.253 28.075 205.52 29.6023 205.52 31.1744L205.609 55.5208C205.609 56.015 205.431 56.4192 205.074 56.7786C204.718 57.1379 204.317 57.2727 203.826 57.2727C203.381 57.2727 202.979 57.093 202.623 56.7786C202.266 56.4642 202.133 56.015 202.133 55.5208L202.043 31.2194C201.999 30.1413 201.731 29.0632 201.286 28.075C200.84 27.0868 200.261 26.1884 199.547 25.4697C198.834 24.706 197.987 24.1221 197.007 23.7178C196.026 23.3135 194.957 23.0889 193.842 23.0889C192.817 23.0889 191.792 23.2686 190.811 23.6729C189.831 24.0772 188.984 24.6611 188.271 25.3798C187.558 26.0985 186.978 26.9071 186.488 27.8953C186.042 28.8386 185.775 29.8718 185.73 30.86C185.73 30.9498 185.73 30.9948 185.775 31.0397V31.2194L185.864 55.431C185.864 55.9251 185.686 56.3294 185.329 56.6887C184.973 57.0481 184.571 57.1829 184.126 57.1829C183.68 57.1829 183.279 57.0032 182.922 56.6887C182.566 56.3294 182.432 55.9251 182.432 55.431L182.343 31.5338V31.444C182.298 31.399 182.298 31.399 182.298 31.3092V30.9948C182.254 29.9167 181.986 28.8835 181.585 27.9402C181.139 26.9969 180.56 26.1435 179.802 25.4247C179.045 24.706 178.198 24.1221 177.217 23.7178C176.237 23.3135 175.211 23.0889 174.186 23.0889C173.117 23.0889 172.091 23.2686 171.155 23.6729C170.175 24.0772 169.328 24.6611 168.615 25.3798C167.902 26.0985 167.322 26.9071 166.877 27.8504C166.431 28.7937 166.163 29.7819 166.119 30.86C166.163 30.9049 166.163 30.9948 166.163 31.1295L166.208 55.5658C166.163 56.1048 165.985 56.5091 165.673 56.8235C165.317 57.1379 164.915 57.3176 164.47 57.3176C163.935 57.2727 163.534 57.1379 163.177 56.7786Z" fill="black"/>
<path d="M212.918 70.3438C212.561 69.9845 212.383 69.5802 212.383 69.0411V38.7204C212.383 36.1151 212.873 33.6445 213.854 31.2638C214.834 28.928 216.216 26.8617 217.954 25.1098C219.693 23.358 221.698 22.0104 224.016 21.0221C226.334 20.0339 228.785 19.5398 231.326 19.5398C233.866 19.5398 236.318 20.0339 238.635 21.0221C240.953 22.0104 242.959 23.4029 244.697 25.1098C246.435 26.8617 247.773 28.8831 248.753 31.2638C249.734 33.5996 250.224 36.0702 250.224 38.7204C250.224 41.2809 249.734 43.7514 248.753 46.0873C247.773 48.4231 246.435 50.4445 244.697 52.1963C242.959 53.9482 240.953 55.2958 238.635 56.284C236.318 57.2722 233.866 57.7663 231.326 57.7663C228.161 57.7663 225.219 57.0027 222.456 55.4754C219.737 54.038 217.509 52.0616 215.77 49.5461V69.0411C215.77 69.5802 215.637 70.0294 215.325 70.3438C215.013 70.6583 214.611 70.8379 214.121 70.8379C213.675 70.8829 213.23 70.7032 212.918 70.3438ZM237.387 53.0947C239.304 52.2862 240.953 51.1182 242.379 49.6808C243.806 48.2434 244.92 46.5814 245.678 44.6947C246.435 42.8081 246.837 40.8317 246.837 38.7204C246.837 36.5643 246.435 34.5429 245.633 32.6563C244.831 30.7697 243.761 29.0627 242.335 27.6702C240.909 26.2328 239.259 25.1098 237.343 24.3013C235.426 23.4927 233.421 23.0884 231.326 23.0884C229.186 23.0884 227.181 23.4927 225.309 24.3013C223.392 25.1098 221.743 26.2328 220.317 27.6702C218.89 29.1077 217.776 30.7697 217.018 32.6563C216.216 34.5429 215.815 36.5643 215.815 38.7204C215.815 40.7867 216.216 42.8081 217.018 44.6947C217.821 46.5814 218.935 48.2434 220.317 49.6808C221.743 51.1632 223.392 52.2862 225.309 53.0947C227.225 53.9033 229.231 54.3075 231.326 54.3075C233.465 54.3075 235.515 53.9033 237.387 53.0947Z" fill="black"/>
<path d="M263.641 56.3292C262.126 55.7003 260.789 54.8019 259.719 53.5891C258.605 52.3763 257.758 50.9838 257.179 49.3217C256.599 47.6597 256.287 45.8629 256.287 43.8415V7.77115C256.287 7.23211 256.465 6.82784 256.777 6.46848C257.089 6.10912 257.491 5.97437 257.981 5.97437C258.471 5.97437 258.872 6.15404 259.229 6.46848C259.585 6.82784 259.719 7.23211 259.719 7.77115V43.8415C259.719 46.9859 260.521 49.4565 262.081 51.2084C263.641 52.9602 265.825 53.8586 268.633 53.9035H268.767C269.302 53.9035 269.703 54.0832 270.015 54.3976C270.327 54.7121 270.461 55.1164 270.461 55.6105C270.461 56.1046 270.327 56.5089 270.015 56.8233C269.703 57.1377 269.302 57.2725 268.812 57.3174H268.633C266.851 57.3174 265.201 56.9581 263.641 56.3292Z" fill="black"/>
<path d="M284.635 56.284C282.318 55.2958 280.312 53.9033 278.574 52.1963C276.835 50.4445 275.498 48.4231 274.518 46.0873C273.537 43.7514 273.047 41.2809 273.047 38.7204C273.047 36.16 273.537 33.6895 274.518 31.3536C275.498 29.0178 276.88 26.9515 278.574 25.1997C280.312 23.4478 282.318 22.1002 284.635 21.112C286.953 20.1238 289.405 19.6296 291.945 19.6296C294.486 19.6296 296.893 20.1238 299.255 21.112C301.573 22.1002 303.623 23.4927 305.406 25.1997C307.144 26.9515 308.526 28.9729 309.506 31.3087C310.487 33.6445 311.022 36.0702 311.022 38.6306C311.022 39.1247 310.888 39.529 310.576 39.8434C310.264 40.1579 309.863 40.3376 309.373 40.3376H276.835C276.969 42.2691 277.504 44.1108 278.351 45.8177C279.198 47.5247 280.312 49.0519 281.694 50.3546C283.075 51.6573 284.68 52.6904 286.418 53.3642C288.157 54.0829 290.029 54.4423 291.99 54.4423C293.728 54.4423 295.154 54.3075 296.224 53.9931C297.294 53.7236 298.497 53.1845 299.879 52.376C300.325 52.1514 300.726 52.0616 301.038 52.0616C301.483 52.0616 301.84 52.2412 302.152 52.6455C302.464 53.0049 302.598 53.4541 302.598 53.9033C302.598 54.1728 302.553 54.4423 302.419 54.6669C302.286 54.9364 302.063 55.1161 301.795 55.2958C300.547 56.1043 299.077 56.7332 297.472 57.1824C296.046 57.5867 294.218 57.7663 291.945 57.7663C289.405 57.7663 286.953 57.2722 284.635 56.284ZM307.456 37.3279C307.322 35.3515 306.832 33.4649 305.985 31.713C305.138 29.9611 304.024 28.389 302.598 27.0863C301.171 25.7387 299.567 24.7055 297.739 23.9868C295.912 23.2681 293.995 22.9088 291.99 22.9088C289.939 22.9088 288.023 23.2681 286.24 24.0318C284.457 24.7954 282.853 25.8285 281.471 27.1312C280.089 28.4788 278.975 30.0061 278.173 31.7579C277.326 33.5098 276.835 35.3964 276.702 37.3279H307.456Z" fill="black"/>
</g>
<defs>
<clipPath id="clip0_3837_12237">
<rect width="312" height="76.4082" fill="white"/>
</clipPath>
</defs>
</svg>
