<svg width="66" height="65" viewBox="0 0 66 65" fill="none" xmlns="http://www.w3.org/2000/svg">
<path d="M64.4141 51.0159C64.4141 33.6692 50.3467 19.6018 33 19.6018C15.6533 19.6018 1.58594 33.6692 1.58594 51.0159H64.4141Z" stroke="black" stroke-miterlimit="10"/>
<path d="M17.3281 33.6827C21.4774 29.9216 26.9786 27.6328 33.0017 27.6328" stroke="black" stroke-miterlimit="10"/>
<path d="M33 19.6019V10.2861" stroke="black" stroke-miterlimit="10"/>
<path d="M32.9985 10.286C35.401 10.286 37.3485 8.33846 37.3485 5.93599C37.3485 3.53352 35.401 1.58594 32.9985 1.58594C30.596 1.58594 28.6484 3.53352 28.6484 5.93599C28.6484 8.33846 30.596 10.286 32.9985 10.286Z" stroke="black" stroke-miterlimit="10"/>
<path d="M33 51.0161V62.7278" stroke="black" stroke-miterlimit="10"/>
<path d="M1.58594 62.7278H64.4141" stroke="black" stroke-miterlimit="10"/>
</svg>
