<svg width="166" height="129" viewBox="0 0 166 129" fill="none" xmlns="http://www.w3.org/2000/svg">
<path d="M157.506 71.1325V121.466H142.437H119.033H47.6123V71.1325" stroke="black" stroke-width="1.8604" stroke-miterlimit="10"/>
<path d="M142.437 78.267H119.024V121.475H142.437V78.267Z" stroke="black" stroke-width="1.8604" stroke-miterlimit="10"/>
<path d="M108.075 78.267H60.4025V106.368H108.084V78.267H108.075Z" stroke="black" stroke-width="1.8604" stroke-miterlimit="10"/>
<path d="M138.986 102.573C138.986 101.076 137.777 99.8663 136.279 99.8663C134.782 99.8663 133.572 101.085 133.572 102.573C133.572 104.061 134.782 105.28 136.279 105.28C137.777 105.28 138.986 104.071 138.986 102.573Z" stroke="black" stroke-width="1.8604" stroke-miterlimit="10"/>
<path d="M10.1158 124.015H18.8597L16.9342 45.9801H12.0414L10.1158 124.015Z" stroke="black" stroke-width="1.8604" stroke-miterlimit="10"/>
<path d="M18.7668 120.2C22.3109 120.842 24.7759 122.284 24.7759 123.949C24.7759 126.228 20.1714 128.07 14.4972 128.07C8.82299 128.07 4.21851 126.228 4.21851 123.949C4.21851 122.284 6.67423 120.842 10.2276 120.2" stroke="black" stroke-width="1.8604" stroke-miterlimit="10"/>
<path d="M21.5015 32.3523H7.34392L5.43701 14.3809H23.4178L21.5015 32.3523Z" stroke="black" stroke-width="1.8604" stroke-miterlimit="10"/>
<path d="M16.9902 8.42792L26.9061 13.8696C27.1573 13.9998 27.055 14.3812 26.7759 14.3812H2.20004C1.92098 14.3812 1.81866 14.0091 2.06981 13.8696L11.8927 8.48373" stroke="black" stroke-width="1.8604" stroke-miterlimit="10"/>
<path d="M10.3858 36.7617L5.17664 32.8641C4.9999 32.7339 5.06502 32.3525 5.26966 32.3525H23.2969C23.5016 32.3525 23.576 32.7246 23.3899 32.8641L18.1808 36.7617" stroke="black" stroke-width="1.8604" stroke-miterlimit="10"/>
<path d="M14.4228 9.97198C16.0154 9.97198 17.3064 8.68094 17.3064 7.08836C17.3064 5.49578 16.0154 4.20474 14.4228 4.20474C12.8302 4.20474 11.5392 5.49578 11.5392 7.08836C11.5392 8.68094 12.8302 9.97198 14.4228 9.97198Z" stroke="black" stroke-width="1.8604" stroke-miterlimit="10"/>
<path d="M14.4229 0.930481V4.20478" stroke="black" stroke-width="1.8604" stroke-miterlimit="10" stroke-linecap="round"/>
<path d="M10.4229 14.474L11.5391 32.3524" stroke="black" stroke-width="1.8604" stroke-miterlimit="10" stroke-linecap="round"/>
<path d="M18.4506 14.3809L17.3158 32.3523" stroke="black" stroke-width="1.8604" stroke-miterlimit="10" stroke-linecap="round"/>
<path d="M17.8833 36.6497H10.6929C9.93253 36.6497 9.31616 37.2661 9.31616 38.0264V38.6217C9.31616 39.382 9.93253 39.9984 10.6929 39.9984H17.8833C18.6436 39.9984 19.26 39.382 19.26 38.6217V38.0264C19.26 37.2661 18.6436 36.6497 17.8833 36.6497Z" stroke="black" stroke-width="1.8604" stroke-miterlimit="10"/>
<path d="M16.4412 39.999H12.432L12.9715 46.0174H15.8923L16.4412 39.999Z" stroke="black" stroke-width="1.8604" stroke-miterlimit="10"/>
<path d="M84.2435 78.267V106.359" stroke="black" stroke-width="1.8604" stroke-miterlimit="10"/>
<path d="M60.4025 93.2438H108.075" stroke="black" stroke-width="1.8604" stroke-miterlimit="10"/>
<path d="M109.443 19.9437V62.5933" stroke="black" stroke-width="1.8604" stroke-linecap="round" stroke-linejoin="round"/>
<path d="M120.726 19.9437L123.247 62.5933" stroke="black" stroke-width="1.8604" stroke-linecap="round" stroke-linejoin="round"/>
<path d="M132 19.9437L137.051 62.5933" stroke="black" stroke-width="1.8604" stroke-linecap="round" stroke-linejoin="round"/>
<path d="M143.283 19.9437L150.855 62.5933" stroke="black" stroke-width="1.8604" stroke-linecap="round" stroke-linejoin="round"/>
<path d="M154.557 19.9437L164.659 62.5933" stroke="black" stroke-width="1.8604" stroke-linecap="round" stroke-linejoin="round"/>
<path d="M95.6664 19.9437V62.5933" stroke="black" stroke-width="1.8604" stroke-linecap="round" stroke-linejoin="round"/>
<path d="M84.3924 19.9437L81.8623 62.5933" stroke="black" stroke-width="1.8604" stroke-linecap="round" stroke-linejoin="round"/>
<path d="M73.109 19.9437L68.058 62.5933" stroke="black" stroke-width="1.8604" stroke-linecap="round" stroke-linejoin="round"/>
<path d="M61.8349 19.9437L54.2631 62.5933" stroke="black" stroke-width="1.8604" stroke-linecap="round" stroke-linejoin="round"/>
<path d="M40.459 62.5933L50.5516 19.9437" stroke="black" stroke-width="1.8604" stroke-linecap="round" stroke-linejoin="round"/>
<path d="M40.459 62.5935H54.2538V64.2865C54.2538 68.0538 51.147 71.1327 47.3611 71.1327C43.5752 71.1327 40.4683 68.0538 40.4683 64.2865V62.5935H40.459Z" stroke="black" stroke-width="1.8604" stroke-linecap="round" stroke-linejoin="round"/>
<path d="M54.2631 62.5935H68.0579V64.2865C68.0579 68.0538 64.9511 71.1327 61.1651 71.1327C57.3792 71.1327 54.2724 68.0538 54.2724 64.2865V62.5935H54.2631Z" stroke="black" stroke-width="1.8604" stroke-linecap="round" stroke-linejoin="round"/>
<path d="M68.058 62.5935H81.8528V64.2865C81.8528 68.0538 78.746 71.1327 74.9601 71.1327C71.1742 71.1327 68.0673 68.0538 68.0673 64.2865V62.5935H68.058Z" stroke="black" stroke-width="1.8604" stroke-linecap="round" stroke-linejoin="round"/>
<path d="M81.853 62.5935H95.6479V64.2865C95.6479 68.0538 92.541 71.1327 88.7551 71.1327C84.9692 71.1327 81.8623 68.0538 81.8623 64.2865V62.5935H81.853Z" stroke="black" stroke-width="1.8604" stroke-linecap="round" stroke-linejoin="round"/>
<path d="M95.6478 62.5935H109.443V64.2865C109.443 68.0538 106.336 71.1327 102.55 71.1327C98.764 71.1327 95.6571 68.0538 95.6571 64.2865V62.5935H95.6478Z" stroke="black" stroke-width="1.8604" stroke-linecap="round" stroke-linejoin="round"/>
<path d="M109.452 62.5935H123.247V64.2865C123.247 68.0538 120.14 71.1327 116.354 71.1327C112.568 71.1327 109.461 68.0538 109.461 64.2865V62.5935H109.452Z" stroke="black" stroke-width="1.8604" stroke-linecap="round" stroke-linejoin="round"/>
<path d="M123.247 62.5935H137.042V64.2865C137.042 68.0538 133.935 71.1327 130.149 71.1327C126.363 71.1327 123.256 68.0538 123.256 64.2865V62.5935H123.247Z" stroke="black" stroke-width="1.8604" stroke-linecap="round" stroke-linejoin="round"/>
<path d="M137.051 62.5935H150.846V64.2865C150.846 68.0538 147.739 71.1327 143.953 71.1327C140.167 71.1327 137.06 68.0538 137.06 64.2865V62.5935H137.051Z" stroke="black" stroke-width="1.8604" stroke-linecap="round" stroke-linejoin="round"/>
<path d="M150.855 62.5935H164.65V64.2865C164.65 68.0538 161.543 71.1327 157.757 71.1327C153.971 71.1327 150.865 68.0538 150.865 64.2865V62.5935H150.855Z" stroke="black" stroke-width="1.8604" stroke-linecap="round" stroke-linejoin="round"/>
<path d="M50.5515 19.9437H154.557" stroke="black" stroke-width="1.8604" stroke-linecap="round" stroke-linejoin="round"/>
<path d="M154.557 15.944H50.5515V19.9439H154.557V15.944Z" stroke="black" stroke-width="1.8604" stroke-linecap="round" stroke-linejoin="round"/>
<path d="M154.557 7.93457H50.5515V15.9436H154.557V7.93457Z" stroke="black" stroke-width="1.8604" stroke-linecap="round" stroke-linejoin="round"/>
<path d="M164.203 121.466H40.9148V126.237H164.203V121.466Z" stroke="black" stroke-width="1.8604" stroke-linecap="round" stroke-linejoin="round"/>
</svg>
