<svg width="188" height="188" viewBox="0 0 188 188" fill="none" xmlns="http://www.w3.org/2000/svg">
<g clip-path="url(#clip0_2677_37694)">
<path d="M168.506 100.633V150.966H153.437H130.033H58.6123V100.633" stroke="black" stroke-width="1.8604" stroke-miterlimit="10"/>
<path d="M153.437 107.767H130.024V150.975H153.437V107.767Z" stroke="black" stroke-width="1.8604" stroke-miterlimit="10"/>
<path d="M119.075 107.767H71.4025V135.868H119.084V107.767H119.075Z" stroke="black" stroke-width="1.8604" stroke-miterlimit="10"/>
<path d="M149.986 132.073C149.986 130.576 148.777 129.366 147.279 129.366C145.782 129.366 144.572 130.585 144.572 132.073C144.572 133.562 145.782 134.78 147.279 134.78C148.777 134.78 149.986 133.571 149.986 132.073Z" stroke="black" stroke-width="1.8604" stroke-miterlimit="10"/>
<path d="M21.1158 153.515H29.8597L27.9342 75.4802H23.0414L21.1158 153.515Z" stroke="black" stroke-width="1.8604" stroke-miterlimit="10"/>
<path d="M29.7668 149.7C33.3109 150.342 35.7759 151.784 35.7759 153.449C35.7759 155.728 31.1714 157.57 25.4972 157.57C19.823 157.57 15.2185 155.728 15.2185 153.449C15.2185 151.784 17.6742 150.342 21.2276 149.7" stroke="black" stroke-width="1.8604" stroke-miterlimit="10"/>
<path d="M32.5015 61.8523H18.3439L16.437 43.8809H34.4178L32.5015 61.8523Z" stroke="black" stroke-width="1.8604" stroke-miterlimit="10"/>
<path d="M27.9902 37.928L37.9061 43.3696C38.1573 43.4999 38.055 43.8813 37.7759 43.8813H13.2C12.921 43.8813 12.8187 43.5092 13.0698 43.3696L22.8927 37.9838" stroke="black" stroke-width="1.8604" stroke-miterlimit="10"/>
<path d="M21.3858 66.2617L16.1766 62.3642C15.9999 62.2339 16.065 61.8525 16.2697 61.8525H34.2969C34.5016 61.8525 34.576 62.2246 34.3899 62.3642L29.1808 66.2617" stroke="black" stroke-width="1.8604" stroke-miterlimit="10"/>
<path d="M25.4228 39.4721C27.0154 39.4721 28.3064 38.181 28.3064 36.5885C28.3064 34.9959 27.0154 33.7048 25.4228 33.7048C23.8302 33.7048 22.5392 34.9959 22.5392 36.5885C22.5392 38.181 23.8302 39.4721 25.4228 39.4721Z" stroke="black" stroke-width="1.8604" stroke-miterlimit="10"/>
<path d="M25.4229 30.4307V33.705" stroke="black" stroke-width="1.8604" stroke-miterlimit="10" stroke-linecap="round"/>
<path d="M21.4229 43.9741L22.5391 61.8525" stroke="black" stroke-width="1.8604" stroke-miterlimit="10" stroke-linecap="round"/>
<path d="M29.4506 43.8809L28.3158 61.8523" stroke="black" stroke-width="1.8604" stroke-miterlimit="10" stroke-linecap="round"/>
<path d="M28.8833 66.1497H21.6929C20.9325 66.1497 20.3162 66.766 20.3162 67.5264V68.1217C20.3162 68.882 20.9325 69.4984 21.6929 69.4984H28.8833C29.6436 69.4984 30.26 68.882 30.26 68.1217V67.5264C30.26 66.766 29.6436 66.1497 28.8833 66.1497Z" stroke="black" stroke-width="1.8604" stroke-miterlimit="10"/>
<path d="M27.4412 69.499H23.432L23.9715 75.5174H26.8923L27.4412 69.499Z" stroke="black" stroke-width="1.8604" stroke-miterlimit="10"/>
<path d="M95.2435 107.767V135.859" stroke="black" stroke-width="1.8604" stroke-miterlimit="10"/>
<path d="M71.4025 122.744H119.075" stroke="black" stroke-width="1.8604" stroke-miterlimit="10"/>
<path d="M120.443 49.4438V92.0935" stroke="black" stroke-width="1.8604" stroke-linecap="round" stroke-linejoin="round"/>
<path d="M131.726 49.4438L134.247 92.0935" stroke="black" stroke-width="1.8604" stroke-linecap="round" stroke-linejoin="round"/>
<path d="M143 49.4438L148.051 92.0935" stroke="black" stroke-width="1.8604" stroke-linecap="round" stroke-linejoin="round"/>
<path d="M154.283 49.4438L161.855 92.0935" stroke="black" stroke-width="1.8604" stroke-linecap="round" stroke-linejoin="round"/>
<path d="M165.557 49.4438L175.659 92.0935" stroke="black" stroke-width="1.8604" stroke-linecap="round" stroke-linejoin="round"/>
<path d="M106.666 49.4438V92.0935" stroke="black" stroke-width="1.8604" stroke-linecap="round" stroke-linejoin="round"/>
<path d="M95.3924 49.4438L92.8623 92.0935" stroke="black" stroke-width="1.8604" stroke-linecap="round" stroke-linejoin="round"/>
<path d="M84.109 49.4438L79.058 92.0935" stroke="black" stroke-width="1.8604" stroke-linecap="round" stroke-linejoin="round"/>
<path d="M72.8349 49.4438L65.2631 92.0935" stroke="black" stroke-width="1.8604" stroke-linecap="round" stroke-linejoin="round"/>
<path d="M51.459 92.0935L61.5516 49.4438" stroke="black" stroke-width="1.8604" stroke-linecap="round" stroke-linejoin="round"/>
<path d="M51.459 92.0935H65.2538V93.7865C65.2538 97.5538 62.147 100.633 58.3611 100.633C54.5752 100.633 51.4683 97.5538 51.4683 93.7865V92.0935H51.459Z" stroke="black" stroke-width="1.8604" stroke-linecap="round" stroke-linejoin="round"/>
<path d="M65.2631 92.0935H79.0579V93.7865C79.0579 97.5538 75.9511 100.633 72.1651 100.633C68.3792 100.633 65.2724 97.5538 65.2724 93.7865V92.0935H65.2631Z" stroke="black" stroke-width="1.8604" stroke-linecap="round" stroke-linejoin="round"/>
<path d="M79.058 92.0935H92.8528V93.7865C92.8528 97.5538 89.746 100.633 85.9601 100.633C82.1742 100.633 79.0673 97.5538 79.0673 93.7865V92.0935H79.058Z" stroke="black" stroke-width="1.8604" stroke-linecap="round" stroke-linejoin="round"/>
<path d="M92.853 92.0935H106.648V93.7865C106.648 97.5538 103.541 100.633 99.7551 100.633C95.9692 100.633 92.8623 97.5538 92.8623 93.7865V92.0935H92.853Z" stroke="black" stroke-width="1.8604" stroke-linecap="round" stroke-linejoin="round"/>
<path d="M106.648 92.0935H120.443V93.7865C120.443 97.5538 117.336 100.633 113.55 100.633C109.764 100.633 106.657 97.5538 106.657 93.7865V92.0935H106.648Z" stroke="black" stroke-width="1.8604" stroke-linecap="round" stroke-linejoin="round"/>
<path d="M120.452 92.0935H134.247V93.7865C134.247 97.5538 131.14 100.633 127.354 100.633C123.568 100.633 120.461 97.5538 120.461 93.7865V92.0935H120.452Z" stroke="black" stroke-width="1.8604" stroke-linecap="round" stroke-linejoin="round"/>
<path d="M134.247 92.0935H148.042V93.7865C148.042 97.5538 144.935 100.633 141.149 100.633C137.363 100.633 134.256 97.5538 134.256 93.7865V92.0935H134.247Z" stroke="black" stroke-width="1.8604" stroke-linecap="round" stroke-linejoin="round"/>
<path d="M148.051 92.0935H161.846V93.7865C161.846 97.5538 158.739 100.633 154.953 100.633C151.167 100.633 148.06 97.5538 148.06 93.7865V92.0935H148.051Z" stroke="black" stroke-width="1.8604" stroke-linecap="round" stroke-linejoin="round"/>
<path d="M161.855 92.0935H175.65V93.7865C175.65 97.5538 172.543 100.633 168.757 100.633C164.971 100.633 161.865 97.5538 161.865 93.7865V92.0935H161.855Z" stroke="black" stroke-width="1.8604" stroke-linecap="round" stroke-linejoin="round"/>
<path d="M61.5515 49.4438H165.557" stroke="black" stroke-width="1.8604" stroke-linecap="round" stroke-linejoin="round"/>
<path d="M165.557 45.4441H61.5515V49.4439H165.557V45.4441Z" stroke="black" stroke-width="1.8604" stroke-linecap="round" stroke-linejoin="round"/>
<path d="M165.557 37.4346H61.5515V45.4436H165.557V37.4346Z" stroke="black" stroke-width="1.8604" stroke-linecap="round" stroke-linejoin="round"/>
<path d="M175.203 150.966H51.9148V155.738H175.203V150.966Z" stroke="black" stroke-width="1.8604" stroke-linecap="round" stroke-linejoin="round"/>
</g>
<defs>
<clipPath id="clip0_2677_37694">
<rect width="166" height="129" fill="white" transform="translate(11 29.5)"/>
</clipPath>
</defs>
</svg>
