<svg width="188" height="188" viewBox="0 0 188 188" fill="none" xmlns="http://www.w3.org/2000/svg">
<g clip-path="url(#clip0_2677_37695)">
<g filter="url(#filter0_d_2677_37695)">
<path d="M169.009 88.5605V151.44H153.897H130.428H58.8091V88.5605" fill="#FBFFFB"/>
<g filter="url(#filter1_d_2677_37695)">
<path d="M153.897 108.027H130.419V150.525H153.897V108.027Z" fill="#7ECDD2"/>
<path d="M153.897 108.027H130.419V150.525H153.897V108.027Z" stroke="white" stroke-width="1.86557" stroke-miterlimit="10"/>
</g>
<path d="M16.5164 42.7231H34.5471L32.6256 62.0785H18.4286L16.5164 42.7231Z" fill="#FFEEA4"/>
<path d="M119.44 108.112H71.635V136.291H119.45V108.112H119.44Z" fill="#7ECDD2" stroke="white" stroke-width="1.86557" stroke-miterlimit="10"/>
<path d="M150.437 132.495C150.437 130.993 149.224 129.781 147.723 129.781C146.221 129.781 145.008 131.002 145.008 132.495C145.008 133.987 146.221 135.209 147.723 135.209C149.224 135.209 150.437 133.997 150.437 132.495Z" fill="white"/>
<path d="M21.2085 153.986H29.9767L28.0458 75.7344H23.1394L21.2085 153.986Z" fill="#1C0C0A"/>
<path d="M29.8834 150.162C33.4373 150.805 35.9092 152.251 35.9092 153.921C35.9092 156.206 31.2919 158.053 25.6019 158.053C19.9119 158.053 15.2946 156.206 15.2946 153.921C15.2946 152.251 17.7571 150.805 21.3204 150.162" fill="#1C0C0A"/>
<path d="M32.6256 62.0786H18.4286L16.5164 44.0479H34.5471L32.6256 62.0786Z" stroke="black" stroke-width="1.86557" stroke-miterlimit="10"/>
<path d="M21.4789 66.5003L16.2553 62.5919C16.0781 62.4613 16.1434 62.0789 16.3486 62.0789H34.426C34.6312 62.0789 34.7058 62.452 34.5193 62.5919L29.2957 66.5003" fill="#1C0C0A"/>
<path d="M21.5164 44.1501L22.6357 62.0783" stroke="black" stroke-width="0.932787" stroke-miterlimit="10" stroke-linecap="round"/>
<path d="M29.5661 44.0479L28.4281 62.0786" stroke="black" stroke-width="0.932787" stroke-miterlimit="10" stroke-linecap="round"/>
<path d="M28.9972 66.3784H21.7868C21.0243 66.3784 20.4062 66.9965 20.4062 67.7589V68.3559C20.4062 69.1184 21.0243 69.7365 21.7868 69.7365H28.9972C29.7597 69.7365 30.3777 69.1184 30.3777 68.3559V67.7589C30.3777 66.9965 29.7597 66.3784 28.9972 66.3784Z" fill="#665554"/>
<path d="M27.5512 69.7368H23.5309L24.0719 75.772H27.0009L27.5512 69.7368Z" fill="#665554"/>
<path d="M28.1017 38.0779L38.0452 43.5347C38.2971 43.6653 38.1945 44.0477 37.9146 44.0477H13.2704C12.9905 44.0477 12.8879 43.6746 13.1398 43.5347L22.99 38.1338" fill="#1C0C0A"/>
<path d="M25.5272 30.5598V33.8432" stroke="#1C0C0A" stroke-width="1.86557" stroke-miterlimit="10" stroke-linecap="round"/>
<path d="M25.5273 39.6351C27.1243 39.6351 28.4189 38.3405 28.4189 36.7434C28.4189 35.1464 27.1243 33.8518 25.5273 33.8518C23.9303 33.8518 22.6356 35.1464 22.6356 36.7434C22.6356 38.3405 23.9303 39.6351 25.5273 39.6351Z" fill="#665554"/>
<path d="M95.5424 108.112V136.291" stroke="white" stroke-width="1.86557" stroke-miterlimit="10"/>
<path d="M71.635 123.139H119.44" stroke="white" stroke-width="1.86557" stroke-miterlimit="10"/>
<path d="M120.812 49.626H106.997V92.3943H120.812V49.626Z" fill="#F4614A"/>
<path d="M95.6916 49.626L93.1544 92.4036H106.997V49.626H95.6916Z" fill="#E3DFDD"/>
<path d="M84.3767 49.626L79.3116 92.4036H93.1542L95.6914 49.626H84.3767Z" fill="#F4614A"/>
<path d="M73.0715 49.626L65.4786 92.4036H79.3119L84.3769 49.626H73.0715Z" fill="#E3DFDD"/>
<path d="M61.7567 49.626L51.636 92.4036H65.4786L73.0714 49.626H61.7567Z" fill="#F4614A"/>
<path d="M120.811 49.626V92.4036H134.654L132.126 49.626H120.811Z" fill="#E3DFDD"/>
<path d="M154.746 49.626L162.339 92.4036H176.182L166.052 49.626H154.746Z" fill="#F4614A"/>
<path d="M143.431 49.626L148.496 92.4036H162.339L154.746 49.626H143.431Z" fill="#E3DFDD"/>
<path d="M132.126 49.626L134.654 92.4036H148.497L143.432 49.626H132.126Z" fill="#F4614A"/>
<path d="M166.051 37.5833H61.7565V45.6146H166.051V37.5833Z" fill="white"/>
<path d="M166.051 45.6147H61.7565V49.6257H166.051V45.6147Z" fill="#808080"/>
<g filter="url(#filter2_d_2677_37695)">
<path d="M58.5573 100.966C62.363 100.966 65.4692 97.8785 65.4692 94.1007V92.4031H51.636V94.1007C51.636 97.8785 54.7515 100.966 58.5479 100.966H58.5573Z" fill="#C43323"/>
<path d="M72.3905 100.966C76.1963 100.966 79.3025 97.8788 79.3025 94.101V92.4033H65.4692V94.101C65.4692 97.8788 68.5847 100.966 72.3812 100.966H72.3905Z" fill="#FBFFFB"/>
<path d="M86.2236 100.966C90.0294 100.966 93.1356 97.8788 93.1356 94.101V92.4033H79.3024V94.101C79.3024 97.8788 82.4179 100.966 86.2143 100.966H86.2236Z" fill="#C43323"/>
<path d="M100.057 100.966C103.863 100.966 106.969 97.8788 106.969 94.101V92.4033H93.1357V94.101C93.1357 97.8788 96.2512 100.966 100.048 100.966H100.057Z" fill="#FBFFFB"/>
<path d="M113.9 100.966C117.705 100.966 120.812 97.8788 120.812 94.101V92.4033H106.978V94.101C106.978 97.8788 110.094 100.966 113.89 100.966H113.9Z" fill="#C43323"/>
<path d="M127.742 100.966C131.548 100.966 134.654 97.8788 134.654 94.101V92.4033H120.821V94.101C120.821 97.8788 123.936 100.966 127.733 100.966H127.742Z" fill="#FBFFFB"/>
<path d="M141.566 100.966C145.372 100.966 148.478 97.8788 148.478 94.101V92.4033H134.645V94.101C134.645 97.8788 137.76 100.966 141.557 100.966H141.566Z" fill="#C43323"/>
<path d="M155.409 100.966C159.214 100.966 162.321 97.8788 162.321 94.101V92.4033H148.487V94.101C148.487 97.8788 151.603 100.966 155.399 100.966H155.409Z" fill="#FBFFFB"/>
<path d="M169.251 100.966C173.057 100.966 176.163 97.8788 176.163 94.101V92.4033H162.33V94.101C162.33 97.8788 165.445 100.966 169.242 100.966H169.251Z" fill="#C43323"/>
</g>
<path d="M175.725 151.439H52.093V156.225H175.725V151.439Z" fill="#808080"/>
</g>
</g>
<defs>
<filter id="filter0_d_2677_37695" x="-5.00366" y="23.627" width="199.185" height="164.426" filterUnits="userSpaceOnUse" color-interpolation-filters="sRGB">
<feFlood flood-opacity="0" result="BackgroundImageFix"/>
<feColorMatrix in="SourceAlpha" type="matrix" values="0 0 0 0 0 0 0 0 0 0 0 0 0 0 0 0 0 0 127 0" result="hardAlpha"/>
<feOffset dy="12"/>
<feGaussianBlur stdDeviation="9"/>
<feComposite in2="hardAlpha" operator="out"/>
<feColorMatrix type="matrix" values="0 0 0 0 0 0 0 0 0 0 0 0 0 0 0 0 0 0 0.64 0"/>
<feBlend mode="normal" in2="BackgroundImageFix" result="effect1_dropShadow_2677_37695"/>
<feBlend mode="normal" in="SourceGraphic" in2="effect1_dropShadow_2677_37695" result="shape"/>
</filter>
<filter id="filter1_d_2677_37695" x="125.755" y="105.229" width="29.0749" height="48.0947" filterUnits="userSpaceOnUse" color-interpolation-filters="sRGB">
<feFlood flood-opacity="0" result="BackgroundImageFix"/>
<feColorMatrix in="SourceAlpha" type="matrix" values="0 0 0 0 0 0 0 0 0 0 0 0 0 0 0 0 0 0 127 0" result="hardAlpha"/>
<feOffset dx="-1.86557"/>
<feGaussianBlur stdDeviation="0.932787"/>
<feColorMatrix type="matrix" values="0 0 0 0 0 0 0 0 0 0 0 0 0 0 0 0 0 0 0.25 0"/>
<feBlend mode="normal" in2="BackgroundImageFix" result="effect1_dropShadow_2677_37695"/>
<feBlend mode="normal" in="SourceGraphic" in2="effect1_dropShadow_2677_37695" result="shape"/>
</filter>
<filter id="filter2_d_2677_37695" x="49.7704" y="92.4031" width="128.258" height="13.2272" filterUnits="userSpaceOnUse" color-interpolation-filters="sRGB">
<feFlood flood-opacity="0" result="BackgroundImageFix"/>
<feColorMatrix in="SourceAlpha" type="matrix" values="0 0 0 0 0 0 0 0 0 0 0 0 0 0 0 0 0 0 127 0" result="hardAlpha"/>
<feOffset dy="2.79836"/>
<feGaussianBlur stdDeviation="0.932787"/>
<feColorMatrix type="matrix" values="0 0 0 0 0 0 0 0 0 0 0 0 0 0 0 0 0 0 0.25 0"/>
<feBlend mode="normal" in2="BackgroundImageFix" result="effect1_dropShadow_2677_37695"/>
<feBlend mode="normal" in="SourceGraphic" in2="effect1_dropShadow_2677_37695" result="shape"/>
</filter>
<clipPath id="clip0_2677_37695">
<rect width="188" height="188" fill="white"/>
</clipPath>
</defs>
</svg>
