<svg width="287" height="287" viewBox="0 0 287 287" fill="none" xmlns="http://www.w3.org/2000/svg">
<g filter="url(#filter0_d_4429_54969)">
<circle cx="143.5" cy="96.5" r="88" fill="url(#paint0_linear_4429_54969)" stroke="url(#paint1_linear_4429_54969)" stroke-width="7"/>
<path d="M96.1033 74.563C95.4873 74.563 94.9813 74.365 94.5853 73.969C94.1893 73.573 93.9913 73.067 93.9913 72.451C93.9913 71.835 94.1893 71.329 94.5853 70.933C94.9813 70.537 95.4873 70.339 96.1033 70.339C96.7193 70.339 97.2253 70.537 97.6213 70.933C98.0173 71.329 98.2153 71.835 98.2153 72.451C98.2153 73.067 98.0173 73.573 97.6213 73.969C97.2253 74.365 96.7193 74.563 96.1033 74.563ZM94.7833 93.967C94.5633 93.967 94.4533 93.857 94.4533 93.637V77.533C94.4533 77.313 94.5633 77.203 94.7833 77.203H97.2913C97.5113 77.203 97.6213 77.313 97.6213 77.533V93.637C97.6213 93.857 97.5113 93.967 97.2913 93.967H94.7833ZM111.616 94C111.44 94 111.319 93.912 111.253 93.736L106.501 77.566L106.468 77.467C106.468 77.291 106.578 77.203 106.798 77.203H109.372C109.57 77.203 109.691 77.302 109.735 77.5L112.87 89.479C112.892 89.523 112.914 89.545 112.936 89.545C112.98 89.545 113.013 89.523 113.035 89.479L116.236 77.5C116.28 77.302 116.401 77.203 116.599 77.203H118.876C119.074 77.203 119.195 77.302 119.239 77.5L122.506 89.446C122.528 89.49 122.55 89.512 122.572 89.512C122.616 89.512 122.649 89.49 122.671 89.446L125.938 77.5C125.982 77.302 126.103 77.203 126.301 77.203L128.842 77.236C128.952 77.236 129.029 77.269 129.073 77.335C129.139 77.401 129.161 77.489 129.139 77.599L124.354 93.736C124.288 93.912 124.167 94 123.991 94H121.417C121.241 94 121.12 93.912 121.054 93.736L117.82 82.582C117.798 82.538 117.765 82.516 117.721 82.516C117.699 82.516 117.677 82.538 117.655 82.582L114.586 93.703C114.542 93.901 114.421 94 114.223 94H111.616ZM137.341 76.939C138.683 76.939 139.849 77.181 140.839 77.665C141.851 78.127 142.621 78.787 143.149 79.645C143.699 80.481 143.974 81.438 143.974 82.516V93.67C143.974 93.89 143.864 94 143.644 94H141.136C140.916 94 140.806 93.89 140.806 93.67V92.482C140.806 92.372 140.751 92.35 140.641 92.416C140.069 93.01 139.365 93.472 138.529 93.802C137.715 94.11 136.802 94.264 135.79 94.264C134.162 94.264 132.809 93.857 131.731 93.043C130.675 92.207 130.147 90.953 130.147 89.281C130.147 87.565 130.741 86.223 131.929 85.255C133.139 84.265 134.822 83.77 136.978 83.77H140.674C140.762 83.77 140.806 83.726 140.806 83.638V82.747C140.806 81.779 140.52 81.031 139.948 80.503C139.398 79.953 138.551 79.678 137.407 79.678C136.483 79.678 135.724 79.865 135.13 80.239C134.558 80.591 134.206 81.075 134.074 81.691C134.008 81.911 133.876 82.01 133.678 81.988L131.005 81.625C130.785 81.581 130.686 81.493 130.708 81.361C130.884 80.063 131.577 79.007 132.787 78.193C133.997 77.357 135.515 76.939 137.341 76.939ZM136.483 91.591C137.649 91.591 138.661 91.283 139.519 90.667C140.377 90.051 140.806 89.27 140.806 88.324V86.377C140.806 86.289 140.762 86.245 140.674 86.245H137.572C136.274 86.245 135.24 86.498 134.47 87.004C133.7 87.51 133.315 88.214 133.315 89.116C133.315 89.93 133.601 90.546 134.173 90.964C134.767 91.382 135.537 91.591 136.483 91.591ZM155.082 76.972C156.886 76.972 158.316 77.5 159.372 78.556C160.428 79.59 160.956 80.998 160.956 82.78V93.67C160.956 93.89 160.846 94 160.626 94H158.118C157.898 94 157.788 93.89 157.788 93.67V83.407C157.788 82.307 157.469 81.416 156.831 80.734C156.193 80.052 155.346 79.711 154.29 79.711C153.256 79.711 152.409 80.052 151.749 80.734C151.089 81.416 150.759 82.296 150.759 83.374V93.67C150.759 93.89 150.649 94 150.429 94H147.921C147.701 94 147.591 93.89 147.591 93.67V77.533C147.591 77.313 147.701 77.203 147.921 77.203H150.429C150.649 77.203 150.759 77.313 150.759 77.533V78.721C150.759 78.765 150.77 78.798 150.792 78.82C150.836 78.842 150.869 78.831 150.891 78.787C151.837 77.577 153.234 76.972 155.082 76.972ZM172.308 76.972C174.112 76.972 175.542 77.5 176.598 78.556C177.654 79.59 178.182 80.998 178.182 82.78V93.67C178.182 93.89 178.072 94 177.852 94H175.344C175.124 94 175.014 93.89 175.014 93.67V83.407C175.014 82.307 174.695 81.416 174.057 80.734C173.419 80.052 172.572 79.711 171.516 79.711C170.482 79.711 169.635 80.052 168.975 80.734C168.315 81.416 167.985 82.296 167.985 83.374V93.67C167.985 93.89 167.875 94 167.655 94H165.147C164.927 94 164.817 93.89 164.817 93.67V77.533C164.817 77.313 164.927 77.203 165.147 77.203H167.655C167.875 77.203 167.985 77.313 167.985 77.533V78.721C167.985 78.765 167.996 78.798 168.018 78.82C168.062 78.842 168.095 78.831 168.117 78.787C169.063 77.577 170.46 76.972 172.308 76.972ZM188.181 76.939C189.523 76.939 190.689 77.181 191.679 77.665C192.691 78.127 193.461 78.787 193.989 79.645C194.539 80.481 194.814 81.438 194.814 82.516V93.67C194.814 93.89 194.704 94 194.484 94H191.976C191.756 94 191.646 93.89 191.646 93.67V92.482C191.646 92.372 191.591 92.35 191.481 92.416C190.909 93.01 190.205 93.472 189.369 93.802C188.555 94.11 187.642 94.264 186.63 94.264C185.002 94.264 183.649 93.857 182.571 93.043C181.515 92.207 180.987 90.953 180.987 89.281C180.987 87.565 181.581 86.223 182.769 85.255C183.979 84.265 185.662 83.77 187.818 83.77H191.514C191.602 83.77 191.646 83.726 191.646 83.638V82.747C191.646 81.779 191.36 81.031 190.788 80.503C190.238 79.953 189.391 79.678 188.247 79.678C187.323 79.678 186.564 79.865 185.97 80.239C185.398 80.591 185.046 81.075 184.914 81.691C184.848 81.911 184.716 82.01 184.518 81.988L181.845 81.625C181.625 81.581 181.526 81.493 181.548 81.361C181.724 80.063 182.417 79.007 183.627 78.193C184.837 77.357 186.355 76.939 188.181 76.939ZM187.323 91.591C188.489 91.591 189.501 91.283 190.359 90.667C191.217 90.051 191.646 89.27 191.646 88.324V86.377C191.646 86.289 191.602 86.245 191.514 86.245H188.412C187.114 86.245 186.08 86.498 185.31 87.004C184.54 87.51 184.155 88.214 184.155 89.116C184.155 89.93 184.441 90.546 185.013 90.964C185.607 91.382 186.377 91.591 187.323 91.591ZM110.014 116.48C110.014 116.7 109.904 116.81 109.684 116.81H106.12C106.032 116.81 105.988 116.854 105.988 116.942V125.687C105.988 126.611 106.197 127.282 106.615 127.7C107.033 128.096 107.682 128.294 108.562 128.294H109.519C109.739 128.294 109.849 128.404 109.849 128.624V130.67C109.849 130.89 109.739 131 109.519 131C108.815 131.044 108.309 131.066 108.001 131.066C106.329 131.066 105.064 130.769 104.206 130.175C103.37 129.559 102.952 128.437 102.952 126.809V116.942C102.952 116.854 102.908 116.81 102.82 116.81H100.807C100.587 116.81 100.477 116.7 100.477 116.48V114.533C100.477 114.313 100.587 114.203 100.807 114.203H102.82C102.908 114.203 102.952 114.159 102.952 114.071V110.177C102.952 109.957 103.062 109.847 103.282 109.847H105.658C105.878 109.847 105.988 109.957 105.988 110.177V114.071C105.988 114.159 106.032 114.203 106.12 114.203H109.684C109.904 114.203 110.014 114.313 110.014 114.533V116.48ZM126.462 120.506C126.55 121.408 126.583 122.42 126.561 123.542C126.561 123.762 126.451 123.872 126.231 123.872H115.704C115.616 123.872 115.572 123.916 115.572 124.004C115.572 124.752 115.638 125.324 115.77 125.72C116.012 126.6 116.496 127.293 117.222 127.799C117.97 128.283 118.905 128.525 120.027 128.525C121.655 128.525 122.909 127.854 123.789 126.512C123.899 126.292 124.042 126.259 124.218 126.413L126.099 127.667C126.253 127.799 126.286 127.942 126.198 128.096C125.582 129.086 124.702 129.867 123.558 130.439C122.436 131.011 121.16 131.297 119.73 131.297C118.124 131.297 116.771 130.945 115.671 130.241C114.571 129.537 113.746 128.536 113.196 127.238C112.668 125.94 112.404 124.367 112.404 122.519C112.404 120.913 112.525 119.692 112.767 118.856C113.163 117.338 113.955 116.139 115.143 115.259C116.331 114.379 117.772 113.939 119.466 113.939C121.688 113.939 123.349 114.5 124.449 115.622C125.549 116.722 126.22 118.35 126.462 120.506ZM119.466 116.678C118.52 116.678 117.739 116.92 117.123 117.404C116.507 117.866 116.089 118.493 115.869 119.285C115.715 119.769 115.616 120.385 115.572 121.133C115.572 121.221 115.616 121.265 115.704 121.265H123.261C123.349 121.265 123.393 121.221 123.393 121.133C123.349 120.407 123.283 119.868 123.195 119.516C122.975 118.658 122.535 117.976 121.875 117.47C121.237 116.942 120.434 116.678 119.466 116.678ZM135.875 113.939C137.217 113.939 138.383 114.181 139.373 114.665C140.385 115.127 141.155 115.787 141.683 116.645C142.233 117.481 142.508 118.438 142.508 119.516V130.67C142.508 130.89 142.398 131 142.178 131H139.67C139.45 131 139.34 130.89 139.34 130.67V129.482C139.34 129.372 139.285 129.35 139.175 129.416C138.603 130.01 137.899 130.472 137.063 130.802C136.249 131.11 135.336 131.264 134.324 131.264C132.696 131.264 131.343 130.857 130.265 130.043C129.209 129.207 128.681 127.953 128.681 126.281C128.681 124.565 129.275 123.223 130.463 122.255C131.673 121.265 133.356 120.77 135.512 120.77H139.208C139.296 120.77 139.34 120.726 139.34 120.638V119.747C139.34 118.779 139.054 118.031 138.482 117.503C137.932 116.953 137.085 116.678 135.941 116.678C135.017 116.678 134.258 116.865 133.664 117.239C133.092 117.591 132.74 118.075 132.608 118.691C132.542 118.911 132.41 119.01 132.212 118.988L129.539 118.625C129.319 118.581 129.22 118.493 129.242 118.361C129.418 117.063 130.111 116.007 131.321 115.193C132.531 114.357 134.049 113.939 135.875 113.939ZM135.017 128.591C136.183 128.591 137.195 128.283 138.053 127.667C138.911 127.051 139.34 126.27 139.34 125.324V123.377C139.34 123.289 139.296 123.245 139.208 123.245H136.106C134.808 123.245 133.774 123.498 133.004 124.004C132.234 124.51 131.849 125.214 131.849 126.116C131.849 126.93 132.135 127.546 132.707 127.964C133.301 128.382 134.071 128.591 135.017 128.591ZM152.857 131.264C151.185 131.264 149.755 130.846 148.567 130.01C147.379 129.152 146.565 127.997 146.125 126.545C145.795 125.533 145.63 124.202 145.63 122.552C145.63 121.034 145.795 119.703 146.125 118.559C146.565 117.151 147.379 116.029 148.567 115.193C149.777 114.357 151.207 113.939 152.857 113.939C154.507 113.939 155.948 114.357 157.18 115.193C158.412 116.029 159.215 117.085 159.589 118.361C159.721 118.713 159.809 119.076 159.853 119.45C159.853 119.626 159.754 119.736 159.556 119.78L157.081 120.143H157.015C156.861 120.143 156.751 120.044 156.685 119.846L156.586 119.318C156.41 118.57 155.981 117.943 155.299 117.437C154.617 116.931 153.792 116.678 152.824 116.678C151.878 116.678 151.075 116.931 150.415 117.437C149.755 117.943 149.326 118.614 149.128 119.45C148.93 120.242 148.831 121.287 148.831 122.585C148.831 123.861 148.93 124.895 149.128 125.687C149.348 126.567 149.777 127.26 150.415 127.766C151.075 128.272 151.878 128.525 152.824 128.525C153.792 128.525 154.617 128.272 155.299 127.766C156.003 127.26 156.443 126.6 156.619 125.786C156.641 125.764 156.641 125.742 156.619 125.72C156.619 125.676 156.63 125.643 156.652 125.621V125.489C156.718 125.313 156.839 125.247 157.015 125.291L159.49 125.687C159.666 125.731 159.754 125.819 159.754 125.951V126.083C159.754 126.281 159.699 126.523 159.589 126.809C159.215 128.151 158.412 129.229 157.18 130.043C155.948 130.857 154.507 131.264 152.857 131.264ZM170.326 113.972C172.13 113.972 173.56 114.5 174.616 115.556C175.672 116.59 176.2 117.998 176.2 119.78V130.67C176.2 130.89 176.09 131 175.87 131H173.362C173.142 131 173.032 130.89 173.032 130.67V120.407C173.032 119.307 172.713 118.416 172.075 117.734C171.437 117.052 170.59 116.711 169.534 116.711C168.5 116.711 167.653 117.052 166.993 117.734C166.333 118.416 166.003 119.296 166.003 120.374V130.67C166.003 130.89 165.893 131 165.673 131H163.165C162.945 131 162.835 130.89 162.835 130.67V108.23C162.835 108.01 162.945 107.9 163.165 107.9H165.673C165.893 107.9 166.003 108.01 166.003 108.23V115.721C166.003 115.765 166.014 115.798 166.036 115.82C166.08 115.842 166.113 115.831 166.135 115.787C167.081 114.577 168.478 113.972 170.326 113.972ZM182.239 123.344C182.019 123.344 181.909 123.234 181.909 123.014L181.612 108.23C181.612 108.01 181.722 107.9 181.942 107.9H184.45C184.67 107.9 184.78 108.01 184.78 108.23L184.516 123.014C184.516 123.234 184.406 123.344 184.186 123.344H182.239ZM183.064 130.901C182.448 130.901 181.942 130.703 181.546 130.307C181.15 129.911 180.952 129.405 180.952 128.789C180.952 128.173 181.15 127.667 181.546 127.271C181.942 126.875 182.448 126.677 183.064 126.677C183.68 126.677 184.186 126.875 184.582 127.271C184.978 127.667 185.176 128.173 185.176 128.789C185.176 129.405 184.978 129.911 184.582 130.307C184.186 130.703 183.68 130.901 183.064 130.901Z" fill="white"/>
</g>
<defs>
<filter id="filter0_d_4429_54969" x="-15" y="0" width="314" height="352" filterUnits="userSpaceOnUse" color-interpolation-filters="sRGB">
<feFlood flood-opacity="0" result="BackgroundImageFix"/>
<feColorMatrix in="SourceAlpha" type="matrix" values="0 0 0 0 0 0 0 0 0 0 0 0 0 0 0 0 0 0 127 0" result="hardAlpha"/>
<feOffset dy="47"/>
<feGaussianBlur stdDeviation="26"/>
<feComposite in2="hardAlpha" operator="out"/>
<feColorMatrix type="matrix" values="0 0 0 0 0 0 0 0 0 0 0 0 0 0 0 0 0 0 0.9 0"/>
<feBlend mode="normal" in2="BackgroundImageFix" result="effect1_dropShadow_4429_54969"/>
<feBlend mode="normal" in="SourceGraphic" in2="effect1_dropShadow_4429_54969" result="shape"/>
</filter>
<linearGradient id="paint0_linear_4429_54969" x1="143.5" y1="5" x2="143.5" y2="188" gradientUnits="userSpaceOnUse">
<stop offset="0.150456" stop-color="#C15DFF"/>
<stop offset="0.53588" stop-color="#9747FF"/>
<stop offset="1" stop-color="#5602C4"/>
</linearGradient>
<linearGradient id="paint1_linear_4429_54969" x1="143.5" y1="5" x2="143.5" y2="188" gradientUnits="userSpaceOnUse">
<stop stop-color="#731BE5"/>
<stop offset="0.837969" stop-color="#9140FB"/>
</linearGradient>
</defs>
</svg>
