<svg width="287" height="287" viewBox="0 0 287 287" fill="none" xmlns="http://www.w3.org/2000/svg">
<g filter="url(#filter0_d_4429_54966)">
<circle cx="143.5" cy="112.5" r="88" fill="url(#paint0_linear_4429_54966)" stroke="url(#paint1_linear_4429_54966)" stroke-width="7"/>
<path d="M96.1033 87.563C95.4873 87.563 94.9813 87.365 94.5853 86.969C94.1893 86.573 93.9913 86.067 93.9913 85.451C93.9913 84.835 94.1893 84.329 94.5853 83.933C94.9813 83.537 95.4873 83.339 96.1033 83.339C96.7193 83.339 97.2253 83.537 97.6213 83.933C98.0173 84.329 98.2153 84.835 98.2153 85.451C98.2153 86.067 98.0173 86.573 97.6213 86.969C97.2253 87.365 96.7193 87.563 96.1033 87.563ZM94.7833 106.967C94.5633 106.967 94.4533 106.857 94.4533 106.637V90.533C94.4533 90.313 94.5633 90.203 94.7833 90.203H97.2913C97.5113 90.203 97.6213 90.313 97.6213 90.533V106.637C97.6213 106.857 97.5113 106.967 97.2913 106.967H94.7833ZM111.616 107C111.44 107 111.319 106.912 111.253 106.736L106.501 90.566L106.468 90.467C106.468 90.291 106.578 90.203 106.798 90.203H109.372C109.57 90.203 109.691 90.302 109.735 90.5L112.87 102.479C112.892 102.523 112.914 102.545 112.936 102.545C112.98 102.545 113.013 102.523 113.035 102.479L116.236 90.5C116.28 90.302 116.401 90.203 116.599 90.203H118.876C119.074 90.203 119.195 90.302 119.239 90.5L122.506 102.446C122.528 102.49 122.55 102.512 122.572 102.512C122.616 102.512 122.649 102.49 122.671 102.446L125.938 90.5C125.982 90.302 126.103 90.203 126.301 90.203L128.842 90.236C128.952 90.236 129.029 90.269 129.073 90.335C129.139 90.401 129.161 90.489 129.139 90.599L124.354 106.736C124.288 106.912 124.167 107 123.991 107H121.417C121.241 107 121.12 106.912 121.054 106.736L117.82 95.582C117.798 95.538 117.765 95.516 117.721 95.516C117.699 95.516 117.677 95.538 117.655 95.582L114.586 106.703C114.542 106.901 114.421 107 114.223 107H111.616ZM137.341 89.939C138.683 89.939 139.849 90.181 140.839 90.665C141.851 91.127 142.621 91.787 143.149 92.645C143.699 93.481 143.974 94.438 143.974 95.516V106.67C143.974 106.89 143.864 107 143.644 107H141.136C140.916 107 140.806 106.89 140.806 106.67V105.482C140.806 105.372 140.751 105.35 140.641 105.416C140.069 106.01 139.365 106.472 138.529 106.802C137.715 107.11 136.802 107.264 135.79 107.264C134.162 107.264 132.809 106.857 131.731 106.043C130.675 105.207 130.147 103.953 130.147 102.281C130.147 100.565 130.741 99.223 131.929 98.255C133.139 97.265 134.822 96.77 136.978 96.77H140.674C140.762 96.77 140.806 96.726 140.806 96.638V95.747C140.806 94.779 140.52 94.031 139.948 93.503C139.398 92.953 138.551 92.678 137.407 92.678C136.483 92.678 135.724 92.865 135.13 93.239C134.558 93.591 134.206 94.075 134.074 94.691C134.008 94.911 133.876 95.01 133.678 94.988L131.005 94.625C130.785 94.581 130.686 94.493 130.708 94.361C130.884 93.063 131.577 92.007 132.787 91.193C133.997 90.357 135.515 89.939 137.341 89.939ZM136.483 104.591C137.649 104.591 138.661 104.283 139.519 103.667C140.377 103.051 140.806 102.27 140.806 101.324V99.377C140.806 99.289 140.762 99.245 140.674 99.245H137.572C136.274 99.245 135.24 99.498 134.47 100.004C133.7 100.51 133.315 101.214 133.315 102.116C133.315 102.93 133.601 103.546 134.173 103.964C134.767 104.382 135.537 104.591 136.483 104.591ZM155.082 89.972C156.886 89.972 158.316 90.5 159.372 91.556C160.428 92.59 160.956 93.998 160.956 95.78V106.67C160.956 106.89 160.846 107 160.626 107H158.118C157.898 107 157.788 106.89 157.788 106.67V96.407C157.788 95.307 157.469 94.416 156.831 93.734C156.193 93.052 155.346 92.711 154.29 92.711C153.256 92.711 152.409 93.052 151.749 93.734C151.089 94.416 150.759 95.296 150.759 96.374V106.67C150.759 106.89 150.649 107 150.429 107H147.921C147.701 107 147.591 106.89 147.591 106.67V90.533C147.591 90.313 147.701 90.203 147.921 90.203H150.429C150.649 90.203 150.759 90.313 150.759 90.533V91.721C150.759 91.765 150.77 91.798 150.792 91.82C150.836 91.842 150.869 91.831 150.891 91.787C151.837 90.577 153.234 89.972 155.082 89.972ZM172.308 89.972C174.112 89.972 175.542 90.5 176.598 91.556C177.654 92.59 178.182 93.998 178.182 95.78V106.67C178.182 106.89 178.072 107 177.852 107H175.344C175.124 107 175.014 106.89 175.014 106.67V96.407C175.014 95.307 174.695 94.416 174.057 93.734C173.419 93.052 172.572 92.711 171.516 92.711C170.482 92.711 169.635 93.052 168.975 93.734C168.315 94.416 167.985 95.296 167.985 96.374V106.67C167.985 106.89 167.875 107 167.655 107H165.147C164.927 107 164.817 106.89 164.817 106.67V90.533C164.817 90.313 164.927 90.203 165.147 90.203H167.655C167.875 90.203 167.985 90.313 167.985 90.533V91.721C167.985 91.765 167.996 91.798 168.018 91.82C168.062 91.842 168.095 91.831 168.117 91.787C169.063 90.577 170.46 89.972 172.308 89.972ZM188.181 89.939C189.523 89.939 190.689 90.181 191.679 90.665C192.691 91.127 193.461 91.787 193.989 92.645C194.539 93.481 194.814 94.438 194.814 95.516V106.67C194.814 106.89 194.704 107 194.484 107H191.976C191.756 107 191.646 106.89 191.646 106.67V105.482C191.646 105.372 191.591 105.35 191.481 105.416C190.909 106.01 190.205 106.472 189.369 106.802C188.555 107.11 187.642 107.264 186.63 107.264C185.002 107.264 183.649 106.857 182.571 106.043C181.515 105.207 180.987 103.953 180.987 102.281C180.987 100.565 181.581 99.223 182.769 98.255C183.979 97.265 185.662 96.77 187.818 96.77H191.514C191.602 96.77 191.646 96.726 191.646 96.638V95.747C191.646 94.779 191.36 94.031 190.788 93.503C190.238 92.953 189.391 92.678 188.247 92.678C187.323 92.678 186.564 92.865 185.97 93.239C185.398 93.591 185.046 94.075 184.914 94.691C184.848 94.911 184.716 95.01 184.518 94.988L181.845 94.625C181.625 94.581 181.526 94.493 181.548 94.361C181.724 93.063 182.417 92.007 183.627 91.193C184.837 90.357 186.355 89.939 188.181 89.939ZM187.323 104.591C188.489 104.591 189.501 104.283 190.359 103.667C191.217 103.051 191.646 102.27 191.646 101.324V99.377C191.646 99.289 191.602 99.245 191.514 99.245H188.412C187.114 99.245 186.08 99.498 185.31 100.004C184.54 100.51 184.155 101.214 184.155 102.116C184.155 102.93 184.441 103.546 185.013 103.964C185.607 104.382 186.377 104.591 187.323 104.591ZM110.014 129.48C110.014 129.7 109.904 129.81 109.684 129.81H106.12C106.032 129.81 105.988 129.854 105.988 129.942V138.687C105.988 139.611 106.197 140.282 106.615 140.7C107.033 141.096 107.682 141.294 108.562 141.294H109.519C109.739 141.294 109.849 141.404 109.849 141.624V143.67C109.849 143.89 109.739 144 109.519 144C108.815 144.044 108.309 144.066 108.001 144.066C106.329 144.066 105.064 143.769 104.206 143.175C103.37 142.559 102.952 141.437 102.952 139.809V129.942C102.952 129.854 102.908 129.81 102.82 129.81H100.807C100.587 129.81 100.477 129.7 100.477 129.48V127.533C100.477 127.313 100.587 127.203 100.807 127.203H102.82C102.908 127.203 102.952 127.159 102.952 127.071V123.177C102.952 122.957 103.062 122.847 103.282 122.847H105.658C105.878 122.847 105.988 122.957 105.988 123.177V127.071C105.988 127.159 106.032 127.203 106.12 127.203H109.684C109.904 127.203 110.014 127.313 110.014 127.533V129.48ZM126.462 133.506C126.55 134.408 126.583 135.42 126.561 136.542C126.561 136.762 126.451 136.872 126.231 136.872H115.704C115.616 136.872 115.572 136.916 115.572 137.004C115.572 137.752 115.638 138.324 115.77 138.72C116.012 139.6 116.496 140.293 117.222 140.799C117.97 141.283 118.905 141.525 120.027 141.525C121.655 141.525 122.909 140.854 123.789 139.512C123.899 139.292 124.042 139.259 124.218 139.413L126.099 140.667C126.253 140.799 126.286 140.942 126.198 141.096C125.582 142.086 124.702 142.867 123.558 143.439C122.436 144.011 121.16 144.297 119.73 144.297C118.124 144.297 116.771 143.945 115.671 143.241C114.571 142.537 113.746 141.536 113.196 140.238C112.668 138.94 112.404 137.367 112.404 135.519C112.404 133.913 112.525 132.692 112.767 131.856C113.163 130.338 113.955 129.139 115.143 128.259C116.331 127.379 117.772 126.939 119.466 126.939C121.688 126.939 123.349 127.5 124.449 128.622C125.549 129.722 126.22 131.35 126.462 133.506ZM119.466 129.678C118.52 129.678 117.739 129.92 117.123 130.404C116.507 130.866 116.089 131.493 115.869 132.285C115.715 132.769 115.616 133.385 115.572 134.133C115.572 134.221 115.616 134.265 115.704 134.265H123.261C123.349 134.265 123.393 134.221 123.393 134.133C123.349 133.407 123.283 132.868 123.195 132.516C122.975 131.658 122.535 130.976 121.875 130.47C121.237 129.942 120.434 129.678 119.466 129.678ZM135.875 126.939C137.217 126.939 138.383 127.181 139.373 127.665C140.385 128.127 141.155 128.787 141.683 129.645C142.233 130.481 142.508 131.438 142.508 132.516V143.67C142.508 143.89 142.398 144 142.178 144H139.67C139.45 144 139.34 143.89 139.34 143.67V142.482C139.34 142.372 139.285 142.35 139.175 142.416C138.603 143.01 137.899 143.472 137.063 143.802C136.249 144.11 135.336 144.264 134.324 144.264C132.696 144.264 131.343 143.857 130.265 143.043C129.209 142.207 128.681 140.953 128.681 139.281C128.681 137.565 129.275 136.223 130.463 135.255C131.673 134.265 133.356 133.77 135.512 133.77H139.208C139.296 133.77 139.34 133.726 139.34 133.638V132.747C139.34 131.779 139.054 131.031 138.482 130.503C137.932 129.953 137.085 129.678 135.941 129.678C135.017 129.678 134.258 129.865 133.664 130.239C133.092 130.591 132.74 131.075 132.608 131.691C132.542 131.911 132.41 132.01 132.212 131.988L129.539 131.625C129.319 131.581 129.22 131.493 129.242 131.361C129.418 130.063 130.111 129.007 131.321 128.193C132.531 127.357 134.049 126.939 135.875 126.939ZM135.017 141.591C136.183 141.591 137.195 141.283 138.053 140.667C138.911 140.051 139.34 139.27 139.34 138.324V136.377C139.34 136.289 139.296 136.245 139.208 136.245H136.106C134.808 136.245 133.774 136.498 133.004 137.004C132.234 137.51 131.849 138.214 131.849 139.116C131.849 139.93 132.135 140.546 132.707 140.964C133.301 141.382 134.071 141.591 135.017 141.591ZM152.857 144.264C151.185 144.264 149.755 143.846 148.567 143.01C147.379 142.152 146.565 140.997 146.125 139.545C145.795 138.533 145.63 137.202 145.63 135.552C145.63 134.034 145.795 132.703 146.125 131.559C146.565 130.151 147.379 129.029 148.567 128.193C149.777 127.357 151.207 126.939 152.857 126.939C154.507 126.939 155.948 127.357 157.18 128.193C158.412 129.029 159.215 130.085 159.589 131.361C159.721 131.713 159.809 132.076 159.853 132.45C159.853 132.626 159.754 132.736 159.556 132.78L157.081 133.143H157.015C156.861 133.143 156.751 133.044 156.685 132.846L156.586 132.318C156.41 131.57 155.981 130.943 155.299 130.437C154.617 129.931 153.792 129.678 152.824 129.678C151.878 129.678 151.075 129.931 150.415 130.437C149.755 130.943 149.326 131.614 149.128 132.45C148.93 133.242 148.831 134.287 148.831 135.585C148.831 136.861 148.93 137.895 149.128 138.687C149.348 139.567 149.777 140.26 150.415 140.766C151.075 141.272 151.878 141.525 152.824 141.525C153.792 141.525 154.617 141.272 155.299 140.766C156.003 140.26 156.443 139.6 156.619 138.786C156.641 138.764 156.641 138.742 156.619 138.72C156.619 138.676 156.63 138.643 156.652 138.621V138.489C156.718 138.313 156.839 138.247 157.015 138.291L159.49 138.687C159.666 138.731 159.754 138.819 159.754 138.951V139.083C159.754 139.281 159.699 139.523 159.589 139.809C159.215 141.151 158.412 142.229 157.18 143.043C155.948 143.857 154.507 144.264 152.857 144.264ZM170.326 126.972C172.13 126.972 173.56 127.5 174.616 128.556C175.672 129.59 176.2 130.998 176.2 132.78V143.67C176.2 143.89 176.09 144 175.87 144H173.362C173.142 144 173.032 143.89 173.032 143.67V133.407C173.032 132.307 172.713 131.416 172.075 130.734C171.437 130.052 170.59 129.711 169.534 129.711C168.5 129.711 167.653 130.052 166.993 130.734C166.333 131.416 166.003 132.296 166.003 133.374V143.67C166.003 143.89 165.893 144 165.673 144H163.165C162.945 144 162.835 143.89 162.835 143.67V121.23C162.835 121.01 162.945 120.9 163.165 120.9H165.673C165.893 120.9 166.003 121.01 166.003 121.23V128.721C166.003 128.765 166.014 128.798 166.036 128.82C166.08 128.842 166.113 128.831 166.135 128.787C167.081 127.577 168.478 126.972 170.326 126.972ZM182.239 136.344C182.019 136.344 181.909 136.234 181.909 136.014L181.612 121.23C181.612 121.01 181.722 120.9 181.942 120.9H184.45C184.67 120.9 184.78 121.01 184.78 121.23L184.516 136.014C184.516 136.234 184.406 136.344 184.186 136.344H182.239ZM183.064 143.901C182.448 143.901 181.942 143.703 181.546 143.307C181.15 142.911 180.952 142.405 180.952 141.789C180.952 141.173 181.15 140.667 181.546 140.271C181.942 139.875 182.448 139.677 183.064 139.677C183.68 139.677 184.186 139.875 184.582 140.271C184.978 140.667 185.176 141.173 185.176 141.789C185.176 142.405 184.978 142.911 184.582 143.307C184.186 143.703 183.68 143.901 183.064 143.901Z" fill="white"/>
</g>
<defs>
<filter id="filter0_d_4429_54966" x="-11" y="0" width="314" height="352" filterUnits="userSpaceOnUse" color-interpolation-filters="sRGB">
<feFlood flood-opacity="0" result="BackgroundImageFix"/>
<feColorMatrix in="SourceAlpha" type="matrix" values="0 0 0 0 0 0 0 0 0 0 0 0 0 0 0 0 0 0 127 0" result="hardAlpha"/>
<feOffset dy="31"/>
<feGaussianBlur stdDeviation="26"/>
<feComposite in2="hardAlpha" operator="out"/>
<feColorMatrix type="matrix" values="0 0 0 0 0 0 0 0 0 0 0 0 0 0 0 0 0 0 1 0"/>
<feBlend mode="normal" in2="BackgroundImageFix" result="effect1_dropShadow_4429_54966"/>
<feBlend mode="normal" in="SourceGraphic" in2="effect1_dropShadow_4429_54966" result="shape"/>
</filter>
<linearGradient id="paint0_linear_4429_54966" x1="143.5" y1="21" x2="143.5" y2="204" gradientUnits="userSpaceOnUse">
<stop stop-color="#C15DFF"/>
<stop offset="0.395252" stop-color="#9747FF"/>
<stop offset="1" stop-color="#6E15E1"/>
</linearGradient>
<linearGradient id="paint1_linear_4429_54966" x1="143.5" y1="21" x2="143.5" y2="204" gradientUnits="userSpaceOnUse">
<stop stop-color="#731BE5"/>
<stop offset="0.837969" stop-color="#9140FB"/>
</linearGradient>
</defs>
</svg>
