<svg width="88" height="88" viewBox="0 0 88 88" fill="none" xmlns="http://www.w3.org/2000/svg">
<path d="M31.78 31.2145C29.7413 33.1966 26.4489 33.1966 24.4228 31.2145C22.3967 29.2324 22.384 26.0316 24.4228 24.0495C26.4615 22.0675 29.7539 22.0675 31.7927 24.0495C33.8314 26.0316 33.8314 29.2324 31.7927 31.2022L31.78 31.2145Z" stroke="#2D2D31" stroke-width="1.5" stroke-miterlimit="10"/>
<path d="M46.9755 49.9271L48.4697 56.9936L56.6374 57.5722L57.2326 65.5128L65.5649 66.2514L65.9701 74.192L76.3538 74.5367L75.9993 64.4417L53.2564 42.3313C57.2832 34.3784 55.8903 24.4804 49.0776 17.8694C40.5046 9.5349 26.6259 9.5349 18.053 17.8694C9.49275 26.1916 9.49275 39.6844 18.053 48.0189C24.8531 54.6299 35.0342 55.9964 43.2145 52.0815C43.2145 52.0815 45.3799 50.9612 46.9628 49.9271H46.9755Z" stroke="#2D2D31" stroke-width="1.5" stroke-miterlimit="10"/>
</svg>
