<svg width="327" height="49" viewBox="0 0 327 49" fill="none" xmlns="http://www.w3.org/2000/svg">
<rect x="2" y="2" width="323" height="45" rx="22" fill="url(#paint0_linear_40_5238)"/>
<g filter="url(#filter0_d_40_5238)">
<path d="M131.276 33C131.196 33 131.124 32.976 131.06 32.928C131.012 32.864 130.988 32.792 130.988 32.712V16.488C130.988 16.408 131.012 16.344 131.06 16.296C131.124 16.232 131.196 16.2 131.276 16.2H133.484C133.564 16.2 133.628 16.232 133.676 16.296C133.74 16.344 133.772 16.408 133.772 16.488V32.712C133.772 32.792 133.74 32.864 133.676 32.928C133.628 32.976 133.564 33 133.484 33H131.276ZM141.938 33.192C140.674 33.192 139.586 32.872 138.674 32.232C137.778 31.592 137.146 30.704 136.778 29.568C136.506 28.704 136.37 27.792 136.37 26.832C136.37 25.808 136.498 24.896 136.754 24.096C137.122 22.976 137.762 22.104 138.674 21.48C139.586 20.856 140.682 20.544 141.962 20.544C143.178 20.544 144.226 20.856 145.106 21.48C146.002 22.104 146.634 22.968 147.002 24.072C147.29 24.84 147.434 25.752 147.434 26.808C147.434 27.816 147.298 28.728 147.026 29.544C146.658 30.68 146.026 31.576 145.13 32.232C144.234 32.872 143.17 33.192 141.938 33.192ZM141.938 30.792C142.53 30.792 143.034 30.624 143.45 30.288C143.882 29.952 144.194 29.48 144.386 28.872C144.546 28.344 144.626 27.672 144.626 26.856C144.626 25.992 144.546 25.32 144.386 24.84C144.21 24.232 143.906 23.768 143.474 23.448C143.042 23.112 142.514 22.944 141.89 22.944C141.298 22.944 140.786 23.112 140.354 23.448C139.922 23.768 139.61 24.232 139.418 24.84C139.258 25.4 139.178 26.072 139.178 26.856C139.178 27.64 139.258 28.312 139.418 28.872C139.594 29.48 139.898 29.952 140.33 30.288C140.778 30.624 141.314 30.792 141.938 30.792ZM157.578 21.024C157.578 20.944 157.602 20.88 157.65 20.832C157.714 20.768 157.786 20.736 157.866 20.736H160.074C160.154 20.736 160.218 20.768 160.266 20.832C160.33 20.88 160.362 20.944 160.362 21.024V32.184C160.362 34.184 159.786 35.608 158.634 36.456C157.498 37.32 156.002 37.752 154.146 37.752C153.65 37.752 153.162 37.728 152.682 37.68C152.506 37.664 152.418 37.56 152.418 37.368L152.49 35.4C152.49 35.224 152.602 35.136 152.826 35.136C153.29 35.184 153.706 35.208 154.074 35.208C155.274 35.208 156.154 34.968 156.714 34.488C157.29 34.024 157.578 33.232 157.578 32.112V31.92C157.578 31.872 157.562 31.848 157.53 31.848C157.498 31.832 157.466 31.84 157.434 31.872C156.778 32.576 155.85 32.928 154.65 32.928C153.61 32.928 152.658 32.664 151.794 32.136C150.93 31.608 150.33 30.8 149.994 29.712C149.786 28.96 149.682 27.992 149.682 26.808C149.682 25.48 149.81 24.464 150.066 23.76C150.386 22.784 150.938 22.008 151.722 21.432C152.506 20.84 153.426 20.544 154.482 20.544C155.746 20.544 156.73 20.912 157.434 21.648C157.466 21.696 157.498 21.712 157.53 21.696C157.562 21.68 157.578 21.648 157.578 21.6V21.024ZM157.41 28.92C157.474 28.68 157.514 28.424 157.53 28.152C157.562 27.864 157.578 27.408 157.578 26.784C157.578 26.176 157.562 25.744 157.53 25.488C157.514 25.216 157.466 24.952 157.386 24.696C157.258 24.168 156.994 23.744 156.594 23.424C156.21 23.104 155.714 22.944 155.106 22.944C154.53 22.944 154.042 23.104 153.642 23.424C153.242 23.744 152.954 24.168 152.778 24.696C152.586 25.144 152.49 25.848 152.49 26.808C152.49 27.8 152.57 28.496 152.73 28.896C152.89 29.408 153.178 29.832 153.594 30.168C154.026 30.488 154.538 30.648 155.13 30.648C155.754 30.648 156.258 30.488 156.642 30.168C157.026 29.848 157.282 29.432 157.41 28.92ZM168.446 33.192C167.182 33.192 166.094 32.872 165.182 32.232C164.286 31.592 163.654 30.704 163.286 29.568C163.014 28.704 162.878 27.792 162.878 26.832C162.878 25.808 163.006 24.896 163.262 24.096C163.63 22.976 164.27 22.104 165.182 21.48C166.094 20.856 167.19 20.544 168.47 20.544C169.686 20.544 170.734 20.856 171.614 21.48C172.51 22.104 173.142 22.968 173.51 24.072C173.798 24.84 173.942 25.752 173.942 26.808C173.942 27.816 173.806 28.728 173.534 29.544C173.166 30.68 172.534 31.576 171.638 32.232C170.742 32.872 169.678 33.192 168.446 33.192ZM168.446 30.792C169.038 30.792 169.542 30.624 169.958 30.288C170.39 29.952 170.702 29.48 170.894 28.872C171.054 28.344 171.134 27.672 171.134 26.856C171.134 25.992 171.054 25.32 170.894 24.84C170.718 24.232 170.414 23.768 169.982 23.448C169.55 23.112 169.022 22.944 168.398 22.944C167.806 22.944 167.294 23.112 166.862 23.448C166.43 23.768 166.118 24.232 165.926 24.84C165.766 25.4 165.686 26.072 165.686 26.856C165.686 27.64 165.766 28.312 165.926 28.872C166.102 29.48 166.406 29.952 166.838 30.288C167.286 30.624 167.822 30.792 168.446 30.792ZM183.822 21.024C183.822 20.944 183.846 20.88 183.894 20.832C183.958 20.768 184.03 20.736 184.11 20.736H186.294C186.374 20.736 186.438 20.768 186.486 20.832C186.55 20.88 186.582 20.944 186.582 21.024V32.712C186.582 32.792 186.55 32.864 186.486 32.928C186.438 32.976 186.374 33 186.294 33H184.11C184.03 33 183.958 32.976 183.894 32.928C183.846 32.864 183.822 32.792 183.822 32.712V31.944C183.822 31.896 183.806 31.864 183.774 31.848C183.742 31.832 183.71 31.848 183.678 31.896C183.022 32.744 182.038 33.168 180.726 33.168C179.51 33.168 178.486 32.816 177.654 32.112C176.838 31.408 176.43 30.408 176.43 29.112V21.024C176.43 20.944 176.454 20.88 176.502 20.832C176.566 20.768 176.638 20.736 176.718 20.736H178.926C179.006 20.736 179.07 20.768 179.118 20.832C179.182 20.88 179.214 20.944 179.214 21.024V28.32C179.214 29.072 179.406 29.672 179.79 30.12C180.19 30.568 180.742 30.792 181.446 30.792C182.166 30.792 182.742 30.568 183.174 30.12C183.606 29.672 183.822 29.072 183.822 28.32V21.024ZM196.062 22.704C196.062 22.784 196.03 22.856 195.966 22.92C195.918 22.968 195.854 22.992 195.774 22.992H193.326C193.246 22.992 193.206 23.032 193.206 23.112V28.896C193.206 29.504 193.334 29.944 193.59 30.216C193.862 30.488 194.286 30.624 194.862 30.624H195.582C195.662 30.624 195.726 30.656 195.774 30.72C195.838 30.768 195.87 30.832 195.87 30.912V32.712C195.87 32.888 195.774 32.992 195.582 33.024L194.334 33.048C193.07 33.048 192.126 32.832 191.502 32.4C190.878 31.968 190.558 31.152 190.542 29.952V23.112C190.542 23.032 190.502 22.992 190.422 22.992H189.054C188.974 22.992 188.902 22.968 188.838 22.92C188.79 22.856 188.766 22.784 188.766 22.704V21.024C188.766 20.944 188.79 20.88 188.838 20.832C188.902 20.768 188.974 20.736 189.054 20.736H190.422C190.502 20.736 190.542 20.696 190.542 20.616V17.808C190.542 17.728 190.566 17.664 190.614 17.616C190.678 17.552 190.75 17.52 190.83 17.52H192.918C192.998 17.52 193.062 17.552 193.11 17.616C193.174 17.664 193.206 17.728 193.206 17.808V20.616C193.206 20.696 193.246 20.736 193.326 20.736H195.774C195.854 20.736 195.918 20.768 195.966 20.832C196.03 20.88 196.062 20.944 196.062 21.024V22.704Z" fill="white"/>
</g>
<rect x="2" y="2" width="323" height="45" rx="22" stroke="url(#paint1_linear_40_5238)" stroke-width="4"/>
<defs>
<filter id="filter0_d_40_5238" x="126.988" y="14.2" width="73.0742" height="29.552" filterUnits="userSpaceOnUse" color-interpolation-filters="sRGB">
<feFlood flood-opacity="0" result="BackgroundImageFix"/>
<feColorMatrix in="SourceAlpha" type="matrix" values="0 0 0 0 0 0 0 0 0 0 0 0 0 0 0 0 0 0 127 0" result="hardAlpha"/>
<feOffset dy="2"/>
<feGaussianBlur stdDeviation="2"/>
<feComposite in2="hardAlpha" operator="out"/>
<feColorMatrix type="matrix" values="0 0 0 0 0 0 0 0 0 0 0 0 0 0 0 0 0 0 0.6 0"/>
<feBlend mode="normal" in2="BackgroundImageFix" result="effect1_dropShadow_40_5238"/>
<feBlend mode="normal" in="SourceGraphic" in2="effect1_dropShadow_40_5238" result="shape"/>
</filter>
<linearGradient id="paint0_linear_40_5238" x1="163.5" y1="0" x2="163.5" y2="49" gradientUnits="userSpaceOnUse">
<stop stop-color="#BA59FF"/>
<stop offset="0.703013" stop-color="#9747FF"/>
</linearGradient>
<linearGradient id="paint1_linear_40_5238" x1="163.5" y1="0" x2="163.5" y2="49" gradientUnits="userSpaceOnUse">
<stop stop-color="#751EE7"/>
<stop offset="1" stop-color="#B557FF"/>
</linearGradient>
</defs>
</svg>
