<svg width="72" height="72" viewBox="0 0 72 72" fill="none" xmlns="http://www.w3.org/2000/svg">
<g filter="url(#filter0_d_3375_1397)">
<circle cx="35.9998" cy="32.3796" r="27.9685" fill="url(#paint0_linear_3375_1397)"/>
<circle cx="35.9998" cy="29.8992" r="27.9685" fill="url(#paint1_linear_3375_1397)"/>
<circle cx="36.0012" cy="29.8996" r="24.8105" stroke="url(#paint2_linear_3375_1397)" stroke-width="1.65385"/>
<mask id="mask0_3375_1397" style="mask-type:alpha" maskUnits="userSpaceOnUse" x="12" y="5" width="48" height="49">
<circle cx="36.007" cy="29.9006" r="23.9836" fill="white"/>
</mask>
<g mask="url(#mask0_3375_1397)">
<rect x="24.1152" y="-22.3096" width="37.6659" height="83.2261" transform="rotate(30 24.1152 -22.3096)" fill="url(#paint3_linear_3375_1397)"/>
<rect x="8.54688" y="-52.3027" width="32.5774" height="128.669" transform="rotate(30 8.54688 -52.3027)" fill="url(#paint4_linear_3375_1397)"/>
</g>
<g filter="url(#filter1_d_3375_1397)">
<!-- <path d="M29.4694 34.2622C29.4694 35.2756 29.1604 36.1097 28.5426 36.7647C27.937 37.4073 27.072 37.7842 25.9474 37.8954C25.8733 37.9201 25.8362 37.9634 25.8362 38.0252L25.8547 38.9335C25.8547 39.1312 25.7559 39.2301 25.5581 39.2301H24.7054C24.5077 39.2301 24.4089 39.1312 24.4089 38.9335L24.4274 38.0252C24.4274 37.9634 24.3903 37.9201 24.3162 37.8954C23.2781 37.7718 22.4625 37.4135 21.8693 36.8203C21.2761 36.2271 20.9796 35.4856 20.9796 34.5959V33.8359C20.9796 33.6381 21.0784 33.5393 21.2761 33.5393H22.7962C22.9939 33.5393 23.0927 33.632 23.0927 33.8173V34.1139C23.0927 34.6824 23.2843 35.1582 23.6674 35.5413C24.0628 35.912 24.6066 36.0974 25.2986 36.0974C25.9536 36.0974 26.4541 35.9367 26.8001 35.6154C27.1461 35.2817 27.3191 34.8677 27.3191 34.3734C27.3191 34.0768 27.2203 33.8173 27.0225 33.5949C26.8372 33.3724 26.5962 33.1809 26.2996 33.0203C26.0154 32.8596 25.6014 32.6557 25.0576 32.4085C24.9835 32.3715 24.7549 32.2664 24.3718 32.0934C23.9887 31.908 23.618 31.7103 23.2596 31.5002C22.5058 31.0677 21.9435 30.6105 21.5727 30.1285C21.202 29.6466 21.0166 29.0163 21.0166 28.2378C21.0166 27.2739 21.3009 26.483 21.8693 25.8651C22.4378 25.2472 23.241 24.8703 24.2791 24.7343C24.3532 24.7096 24.3903 24.6664 24.3903 24.6046L24.3718 23.5665C24.3718 23.3688 24.4706 23.2699 24.6684 23.2699H25.484C25.6817 23.2699 25.7806 23.3688 25.7806 23.5665L25.762 24.586C25.762 24.6478 25.7991 24.6911 25.8733 24.7158C26.9855 24.8146 27.8443 25.173 28.4499 25.7909C29.0678 26.4088 29.3767 27.1997 29.3767 28.1636V28.7383C29.3767 28.936 29.2778 29.0348 29.0801 29.0348H27.5601C27.4736 29.0348 27.3995 29.0163 27.3377 28.9792C27.2882 28.9298 27.2635 28.8742 27.2635 28.8124V28.6085C27.2635 28.003 27.0782 27.5087 26.7074 27.1256C26.3367 26.7301 25.7991 26.5324 25.0947 26.5324C24.4892 26.5324 24.0134 26.6807 23.6674 26.9773C23.3214 27.2615 23.1484 27.6569 23.1484 28.1636C23.1484 28.4849 23.241 28.7568 23.4264 28.9792C23.6118 29.1893 23.8466 29.3685 24.1308 29.5168C24.415 29.6651 24.8414 29.8505 25.4098 30.0729L26.5406 30.5363C27.5416 30.9936 28.2769 31.525 28.7465 32.1305C29.2284 32.7237 29.4694 33.4342 29.4694 34.2622ZM39.8653 32.4641C40.0631 32.4641 40.1619 32.563 40.1619 32.7607V34.0954C40.1619 34.2931 40.0631 34.392 39.8653 34.392H39.198C39.1239 34.392 39.0868 34.429 39.0868 34.5032V37.5061C39.0868 37.7039 38.9879 37.8027 38.7902 37.8027H37.2331C37.0354 37.8027 36.9365 37.7039 36.9365 37.5061V34.5032C36.9365 34.429 36.8994 34.392 36.8253 34.392H31.2643C31.0665 34.392 30.9677 34.2931 30.9677 34.0954V33.0203C30.9677 32.8843 30.9924 32.7669 31.0418 32.6681L34.5267 25.0494C34.5885 24.9012 34.6998 24.827 34.8604 24.827H36.5102C36.6832 24.827 36.7697 24.895 36.7697 25.0309L36.7326 25.1792L33.4887 32.3344C33.4516 32.4209 33.4825 32.4641 33.5814 32.4641H36.8253C36.8994 32.4641 36.9365 32.4271 36.9365 32.3529V29.9246C36.9365 29.7269 37.0354 29.628 37.2331 29.628H38.7902C38.9879 29.628 39.0868 29.7269 39.0868 29.9246V32.3529C39.0868 32.4271 39.1239 32.4641 39.198 32.4641H39.8653ZM46.3706 38.0066C45.073 38.0066 44.0411 37.6421 43.2749 36.913C42.5211 36.1715 42.1442 35.1767 42.1442 33.9286V28.7012C42.1442 27.4654 42.5211 26.4891 43.2749 25.7724C44.0411 25.0433 45.073 24.6787 46.3706 24.6787C47.6681 24.6787 48.7 25.0433 49.4662 25.7724C50.2447 26.4891 50.634 27.4654 50.634 28.7012V33.9286C50.634 35.1767 50.2447 36.1715 49.4662 36.913C48.7 37.6421 47.6681 38.0066 46.3706 38.0066ZM46.3706 36.1344C47.0132 36.1344 47.526 35.9491 47.9091 35.5783C48.2922 35.1952 48.4838 34.6824 48.4838 34.0398V28.627C48.4838 27.9844 48.2922 27.4778 47.9091 27.107C47.526 26.7239 47.0132 26.5324 46.3706 26.5324C45.7403 26.5324 45.2336 26.7239 44.8506 27.107C44.4798 27.4778 44.2945 27.9844 44.2945 28.627V34.0398C44.2945 34.6824 44.4798 35.1952 44.8506 35.5783C45.2336 35.9491 45.7403 36.1344 46.3706 36.1344Z" fill="white"/> -->
</g>
</g>
<defs>
<filter id="filter0_d_3375_1397" x="0.588943" y="-2.20395" width="70.8221" height="73.3026" filterUnits="userSpaceOnUse" color-interpolation-filters="sRGB">
<feFlood flood-opacity="0" result="BackgroundImageFix"/>
<feColorMatrix in="SourceAlpha" type="matrix" values="0 0 0 0 0 0 0 0 0 0 0 0 0 0 0 0 0 0 127 0" result="hardAlpha"/>
<feOffset dy="3.30769"/>
<feGaussianBlur stdDeviation="3.72115"/>
<feComposite in2="hardAlpha" operator="out"/>
<feColorMatrix type="matrix" values="0 0 0 0 0.245833 0 0 0 0 0 0 0 0 0 0 0 0 0 0.25 0"/>
<feBlend mode="normal" in2="BackgroundImageFix" result="effect1_dropShadow_3375_1397"/>
<feBlend mode="normal" in="SourceGraphic" in2="effect1_dropShadow_3375_1397" result="shape"/>
</filter>
<filter id="filter1_d_3375_1397" x="19.3266" y="23.2695" width="32.962" height="19.2686" filterUnits="userSpaceOnUse" color-interpolation-filters="sRGB">
<feFlood flood-opacity="0" result="BackgroundImageFix"/>
<feColorMatrix in="SourceAlpha" type="matrix" values="0 0 0 0 0 0 0 0 0 0 0 0 0 0 0 0 0 0 127 0" result="hardAlpha"/>
<feOffset dy="1.65385"/>
<feGaussianBlur stdDeviation="0.826923"/>
<feComposite in2="hardAlpha" operator="out"/>
<feColorMatrix type="matrix" values="0 0 0 0 0.533333 0 0 0 0 0 0 0 0 0 0 0 0 0 0.22 0"/>
<feBlend mode="normal" in2="BackgroundImageFix" result="effect1_dropShadow_3375_1397"/>
<feBlend mode="normal" in="SourceGraphic" in2="effect1_dropShadow_3375_1397" result="shape"/>
</filter>
<linearGradient id="paint0_linear_3375_1397" x1="35.9998" y1="4.41113" x2="35.9998" y2="60.3482" gradientUnits="userSpaceOnUse">
<stop stop-color="#FDE21F"/>
<stop offset="1" stop-color="#FF2E01"/>
</linearGradient>
<linearGradient id="paint1_linear_3375_1397" x1="35.9998" y1="1.93066" x2="35.9997" y2="61.5559" gradientUnits="userSpaceOnUse">
<stop offset="0.176572" stop-color="#FE2E00"/>
<stop offset="0.639354" stop-color="#FE6B00"/>
<stop offset="0.906302" stop-color="#FFE421"/>
</linearGradient>
<linearGradient id="paint2_linear_3375_1397" x1="15.6356" y1="-2.03001" x2="52.9211" y2="53.8832" gradientUnits="userSpaceOnUse">
<stop offset="0.304013" stop-color="white" stop-opacity="0"/>
<stop offset="1" stop-color="white"/>
</linearGradient>
<linearGradient id="paint3_linear_3375_1397" x1="34.1378" y1="-33.3904" x2="78.447" y2="47.5157" gradientUnits="userSpaceOnUse">
<stop offset="0.270833" stop-color="white"/>
<stop offset="0.810099" stop-color="white" stop-opacity="0"/>
</linearGradient>
<linearGradient id="paint4_linear_3375_1397" x1="17.2155" y1="-69.4338" x2="98.4962" y2="13.5952" gradientUnits="userSpaceOnUse">
<stop offset="0.270833" stop-color="white"/>
<stop offset="0.810099" stop-color="white" stop-opacity="0"/>
</linearGradient>
</defs>
</svg>
