<svg width="71" height="73" viewBox="0 0 71 73" fill="none" xmlns="http://www.w3.org/2000/svg">
<g filter="url(#filter0_d_3375_1434)">
<circle cx="35.4998" cy="32.3796" r="27.9685" fill="url(#paint0_linear_3375_1434)"/>
<circle cx="35.4998" cy="29.8992" r="27.9685" fill="url(#paint1_linear_3375_1434)"/>
<circle cx="35.5012" cy="29.8996" r="24.8105" stroke="url(#paint2_linear_3375_1434)" stroke-width="1.65385"/>
<mask id="mask0_3375_1434" style="mask-type:alpha" maskUnits="userSpaceOnUse" x="11" y="5" width="49" height="49">
<circle cx="35.507" cy="29.9006" r="23.9836" fill="white"/>
</mask>
<g mask="url(#mask0_3375_1434)">
<rect x="23.6152" y="-22.3096" width="37.6659" height="83.2261" transform="rotate(30 23.6152 -22.3096)" fill="url(#paint3_linear_3375_1434)"/>
<rect x="8.04688" y="-52.3027" width="32.5774" height="128.669" transform="rotate(30 8.04688 -52.3027)" fill="url(#paint4_linear_3375_1434)"/>
</g>
<g filter="url(#filter1_d_3375_1434)">
<!-- <path d="M28.9694 34.2622C28.9694 35.2756 28.6604 36.1097 28.0426 36.7647C27.437 37.4073 26.572 37.7842 25.4474 37.8954C25.3733 37.9201 25.3362 37.9634 25.3362 38.0252L25.3547 38.9335C25.3547 39.1312 25.2559 39.2301 25.0581 39.2301H24.2054C24.0077 39.2301 23.9089 39.1312 23.9089 38.9335L23.9274 38.0252C23.9274 37.9634 23.8903 37.9201 23.8162 37.8954C22.7781 37.7718 21.9625 37.4135 21.3693 36.8203C20.7761 36.2271 20.4796 35.4856 20.4796 34.5959V33.8359C20.4796 33.6381 20.5784 33.5393 20.7761 33.5393H22.2962C22.4939 33.5393 22.5927 33.632 22.5927 33.8173V34.1139C22.5927 34.6824 22.7843 35.1582 23.1674 35.5413C23.5628 35.912 24.1066 36.0974 24.7986 36.0974C25.4536 36.0974 25.9541 35.9367 26.3001 35.6154C26.6461 35.2817 26.8191 34.8677 26.8191 34.3734C26.8191 34.0768 26.7203 33.8173 26.5225 33.5949C26.3372 33.3724 26.0962 33.1809 25.7996 33.0203C25.5154 32.8596 25.1014 32.6557 24.5576 32.4085C24.4835 32.3715 24.2549 32.2664 23.8718 32.0934C23.4887 31.908 23.118 31.7103 22.7596 31.5002C22.0058 31.0677 21.4435 30.6105 21.0727 30.1285C20.702 29.6466 20.5166 29.0163 20.5166 28.2378C20.5166 27.2739 20.8009 26.483 21.3693 25.8651C21.9378 25.2472 22.741 24.8703 23.7791 24.7343C23.8532 24.7096 23.8903 24.6664 23.8903 24.6046L23.8718 23.5665C23.8718 23.3688 23.9706 23.2699 24.1684 23.2699H24.984C25.1817 23.2699 25.2806 23.3688 25.2806 23.5665L25.262 24.586C25.262 24.6478 25.2991 24.6911 25.3733 24.7158C26.4855 24.8146 27.3443 25.173 27.9499 25.7909C28.5678 26.4088 28.8767 27.1997 28.8767 28.1636V28.7383C28.8767 28.936 28.7778 29.0348 28.5801 29.0348H27.0601C26.9736 29.0348 26.8995 29.0163 26.8377 28.9792C26.7882 28.9298 26.7635 28.8742 26.7635 28.8124V28.6085C26.7635 28.003 26.5782 27.5087 26.2074 27.1256C25.8367 26.7301 25.2991 26.5324 24.5947 26.5324C23.9892 26.5324 23.5134 26.6807 23.1674 26.9773C22.8214 27.2615 22.6484 27.6569 22.6484 28.1636C22.6484 28.4849 22.741 28.7568 22.9264 28.9792C23.1118 29.1893 23.3466 29.3685 23.6308 29.5168C23.915 29.6651 24.3414 29.8505 24.9098 30.0729L26.0406 30.5363C27.0416 30.9936 27.7769 31.525 28.2465 32.1305C28.7284 32.7237 28.9694 33.4342 28.9694 34.2622ZM39.3653 32.4641C39.5631 32.4641 39.6619 32.563 39.6619 32.7607V34.0954C39.6619 34.2931 39.5631 34.392 39.3653 34.392H38.698C38.6239 34.392 38.5868 34.429 38.5868 34.5032V37.5061C38.5868 37.7039 38.4879 37.8027 38.2902 37.8027H36.7331C36.5354 37.8027 36.4365 37.7039 36.4365 37.5061V34.5032C36.4365 34.429 36.3994 34.392 36.3253 34.392H30.7643C30.5665 34.392 30.4677 34.2931 30.4677 34.0954V33.0203C30.4677 32.8843 30.4924 32.7669 30.5418 32.6681L34.0267 25.0494C34.0885 24.9012 34.1998 24.827 34.3604 24.827H36.0102C36.1832 24.827 36.2697 24.895 36.2697 25.0309L36.2326 25.1792L32.9887 32.3344C32.9516 32.4209 32.9825 32.4641 33.0814 32.4641H36.3253C36.3994 32.4641 36.4365 32.4271 36.4365 32.3529V29.9246C36.4365 29.7269 36.5354 29.628 36.7331 29.628H38.2902C38.4879 29.628 38.5868 29.7269 38.5868 29.9246V32.3529C38.5868 32.4271 38.6239 32.4641 38.698 32.4641H39.3653ZM45.8706 38.0066C44.573 38.0066 43.5411 37.6421 42.7749 36.913C42.0211 36.1715 41.6442 35.1767 41.6442 33.9286V28.7012C41.6442 27.4654 42.0211 26.4891 42.7749 25.7724C43.5411 25.0433 44.573 24.6787 45.8706 24.6787C47.1681 24.6787 48.2 25.0433 48.9662 25.7724C49.7447 26.4891 50.134 27.4654 50.134 28.7012V33.9286C50.134 35.1767 49.7447 36.1715 48.9662 36.913C48.2 37.6421 47.1681 38.0066 45.8706 38.0066ZM45.8706 36.1344C46.5132 36.1344 47.026 35.9491 47.4091 35.5783C47.7922 35.1952 47.9838 34.6824 47.9838 34.0398V28.627C47.9838 27.9844 47.7922 27.4778 47.4091 27.107C47.026 26.7239 46.5132 26.5324 45.8706 26.5324C45.2403 26.5324 44.7336 26.7239 44.3506 27.107C43.9798 27.4778 43.7945 27.9844 43.7945 28.627V34.0398C43.7945 34.6824 43.9798 35.1952 44.3506 35.5783C44.7336 35.9491 45.2403 36.1344 45.8706 36.1344Z" fill="white"/> -->
</g>
</g>
<defs>
<filter id="filter0_d_3375_1434" x="0.0889425" y="-0.550105" width="70.8221" height="73.3026" filterUnits="userSpaceOnUse" color-interpolation-filters="sRGB">
<feFlood flood-opacity="0" result="BackgroundImageFix"/>
<feColorMatrix in="SourceAlpha" type="matrix" values="0 0 0 0 0 0 0 0 0 0 0 0 0 0 0 0 0 0 127 0" result="hardAlpha"/>
<feOffset dy="4.96154"/>
<feGaussianBlur stdDeviation="3.72115"/>
<feComposite in2="hardAlpha" operator="out"/>
<feColorMatrix type="matrix" values="0 0 0 0 0.0934167 0 0 0 0 0 0 0 0 0 0.245833 0 0 0 0.61 0"/>
<feBlend mode="normal" in2="BackgroundImageFix" result="effect1_dropShadow_3375_1434"/>
<feBlend mode="normal" in="SourceGraphic" in2="effect1_dropShadow_3375_1434" result="shape"/>
</filter>
<filter id="filter1_d_3375_1434" x="18.8266" y="23.2695" width="32.962" height="19.2686" filterUnits="userSpaceOnUse" color-interpolation-filters="sRGB">
<feFlood flood-opacity="0" result="BackgroundImageFix"/>
<feColorMatrix in="SourceAlpha" type="matrix" values="0 0 0 0 0 0 0 0 0 0 0 0 0 0 0 0 0 0 127 0" result="hardAlpha"/>
<feOffset dy="1.65385"/>
<feGaussianBlur stdDeviation="0.826923"/>
<feComposite in2="hardAlpha" operator="out"/>
<feColorMatrix type="matrix" values="0 0 0 0 0.533333 0 0 0 0 0 0 0 0 0 0 0 0 0 0.22 0"/>
<feBlend mode="normal" in2="BackgroundImageFix" result="effect1_dropShadow_3375_1434"/>
<feBlend mode="normal" in="SourceGraphic" in2="effect1_dropShadow_3375_1434" result="shape"/>
</filter>
<linearGradient id="paint0_linear_3375_1434" x1="35.4998" y1="4.41113" x2="35.4997" y2="64.0364" gradientUnits="userSpaceOnUse">
<stop stop-color="#FFA0EA"/>
<stop offset="0.640625" stop-color="#9747FF"/>
<stop offset="1" stop-color="#6E00FD"/>
</linearGradient>
<linearGradient id="paint1_linear_3375_1434" x1="35.4998" y1="1.93066" x2="35.4997" y2="61.5559" gradientUnits="userSpaceOnUse">
<stop offset="0.0833333" stop-color="#6E00FD"/>
<stop offset="0.640625" stop-color="#9747FF"/>
<stop offset="0.906302" stop-color="#FFA0EA"/>
</linearGradient>
<linearGradient id="paint2_linear_3375_1434" x1="15.1356" y1="-2.03001" x2="52.4211" y2="53.8832" gradientUnits="userSpaceOnUse">
<stop offset="0.304013" stop-color="white" stop-opacity="0"/>
<stop offset="1" stop-color="white"/>
</linearGradient>
<linearGradient id="paint3_linear_3375_1434" x1="33.6378" y1="-33.3904" x2="77.947" y2="47.5157" gradientUnits="userSpaceOnUse">
<stop offset="0.270833" stop-color="white"/>
<stop offset="0.810099" stop-color="white" stop-opacity="0"/>
</linearGradient>
<linearGradient id="paint4_linear_3375_1434" x1="16.7155" y1="-69.4338" x2="97.9962" y2="13.5952" gradientUnits="userSpaceOnUse">
<stop offset="0.270833" stop-color="white"/>
<stop offset="0.810099" stop-color="white" stop-opacity="0"/>
</linearGradient>
</defs>
</svg>
