<svg width="312" height="77" viewBox="0 0 312 77" fill="none" xmlns="http://www.w3.org/2000/svg">
<g clip-path="url(#clip0_325_19634)">
<path d="M67.481 76.1836H38.6878C17.873 76.1836 1.02496 59.204 1.02496 38.2266C1.02496 17.2491 17.873 0.269531 38.6878 0.269531H67.481C88.2958 0.269531 105.144 17.2491 105.144 38.2266C105.144 59.1591 88.2958 76.1836 67.481 76.1836Z" fill="white"/>
<path d="M28.7038 55.835C26.4307 54.8917 24.425 53.5441 22.7313 51.7923C20.993 50.0853 19.6558 48.0639 18.6753 45.773C17.6947 43.4821 17.2044 41.0565 17.2044 38.4961C17.2044 35.8458 17.6947 33.3752 18.6307 31.0394C19.5667 28.7036 20.9038 26.6373 22.553 24.8405C24.2467 23.0437 26.2524 21.6512 28.5255 20.663C30.7987 19.6748 33.2501 19.1807 35.9244 19.1807C38.3758 19.1807 40.6936 19.6299 42.9221 20.4833C45.1507 21.3817 47.0673 22.5946 48.6273 24.2117C49.0284 24.6159 49.2513 25.11 49.2513 25.6491C49.2513 26.0983 49.073 26.5026 48.6718 26.8619C48.3153 27.2213 47.9141 27.356 47.513 27.356C47.1564 27.356 46.5324 27.0416 45.641 26.3678L43.4124 24.7507C41.3621 23.4031 38.7324 22.7293 35.6124 22.6844C33.5621 22.7293 31.6455 23.1336 29.8181 23.9421C27.9907 24.7507 26.3861 25.8737 25.0044 27.3111C23.6227 28.7485 22.553 30.4106 21.7953 32.2972C21.0376 34.1838 20.6364 36.1153 20.6364 38.1367C20.6364 40.203 20.993 42.2244 21.7507 44.111C22.5084 45.9976 23.5336 47.7046 24.9153 49.0971C26.297 50.5794 27.9016 51.7024 29.7736 52.511C31.6456 53.3195 33.6513 53.7238 35.8353 53.7238C37.841 53.7238 39.7576 53.3644 41.585 52.6008C43.4124 51.8372 45.0616 50.7591 46.5324 49.3666C46.9335 49.142 47.2901 49.0522 47.513 49.0522C47.8695 49.0522 48.2261 49.2319 48.6273 49.5463C48.9838 49.8607 49.2067 50.265 49.2067 50.7591C49.2067 51.2981 48.9838 51.7923 48.5827 52.1965C47.0227 53.7687 45.1061 54.9816 42.8775 55.8799C40.6044 56.7783 38.2867 57.2275 35.8798 57.2275C33.3838 57.2724 30.977 56.7783 28.7038 55.835Z" fill="#020202"/>
<path d="M64.7175 55.835C62.3998 54.8468 60.3941 53.4543 58.6558 51.7473C56.9175 49.9955 55.5804 47.9741 54.5998 45.6383C53.6193 43.3025 53.129 40.8319 53.129 38.2715C53.129 35.7111 53.6193 33.2405 54.5998 30.9047C55.5804 28.5689 56.9621 26.5026 58.6558 24.7507C60.3941 22.9988 62.3998 21.6512 64.7175 20.663C67.0353 19.6748 69.4867 19.1807 72.0273 19.1807C74.5678 19.1807 76.9747 19.6748 79.337 20.663C81.6993 21.6512 83.705 23.0437 85.4878 24.7507C87.2261 26.5026 88.6078 28.5239 89.5884 30.8597C90.569 33.1956 91.1038 35.6212 91.1038 38.1816C91.1038 38.6758 90.9701 39.08 90.6581 39.3945C90.3461 39.7089 89.945 39.8886 89.4547 39.8886H56.9175C57.0513 41.8201 57.5861 43.6618 58.433 45.3688C59.2798 47.0757 60.3941 48.603 61.7758 49.9056C63.1575 51.2083 64.7621 52.2415 66.5004 52.9153C68.2387 53.634 70.1107 53.9933 72.0718 53.9933C73.8101 53.9933 75.2364 53.8586 76.3061 53.5441C77.3758 53.2746 78.5793 52.7356 79.961 51.927C80.4067 51.7024 80.8078 51.6126 81.1198 51.6126C81.5655 51.6126 81.9221 51.7923 82.2341 52.1965C82.5461 52.5559 82.6798 53.0051 82.6798 53.4543C82.6798 53.7238 82.6353 53.9933 82.5015 54.2179C82.3678 54.4874 82.145 54.6671 81.8775 54.8468C80.6295 55.6553 79.1587 56.2842 77.5541 56.7334C76.1278 57.1377 74.3004 57.3174 72.0273 57.3174C69.4421 57.3174 67.0353 56.8233 64.7175 55.835ZM87.4935 36.879C87.3598 34.9025 86.8695 33.0159 86.0227 31.264C85.1758 29.5122 84.0615 27.94 82.6353 26.6373C81.209 25.2897 79.6044 24.2566 77.777 23.5379C75.9495 22.8191 74.033 22.4598 72.0273 22.4598C69.977 22.4598 68.0604 22.8191 66.2775 23.5828C64.4947 24.3464 62.8901 25.3796 61.5084 26.6822C60.1267 28.0298 59.0124 29.5571 58.2101 31.3089C57.3633 33.0608 56.873 34.9474 56.7393 36.879H87.4935Z" fill="#020202"/>
<path d="M116.064 56.7781C115.752 56.4637 115.618 56.0145 115.618 55.5204C115.618 55.0262 115.752 54.622 116.064 54.3075C116.376 53.9931 116.732 53.8583 117.178 53.8583H134.65C135.541 53.8134 136.388 53.6337 137.235 53.2744C138.082 52.915 138.84 52.4209 139.508 51.7471C140.221 51.0733 140.756 50.3097 141.157 49.4562C141.558 48.6027 141.737 47.6145 141.737 46.5814C141.737 44.6049 141.024 42.9429 139.553 41.5953C138.884 41.0113 138.126 40.5172 137.235 40.2028C136.344 39.8884 135.408 39.7087 134.472 39.6638H126.315C124.933 39.6638 123.596 39.3942 122.393 38.9001C121.189 38.3611 120.12 37.6424 119.228 36.6541C118.337 35.7108 117.624 34.6328 117.133 33.4199C116.643 32.2071 116.376 30.9044 116.376 29.5119C116.376 28.1194 116.643 26.8168 117.133 25.6039C117.624 24.3911 118.337 23.313 119.273 22.4146C120.209 21.5163 121.278 20.7975 122.482 20.3034C123.685 19.8093 124.978 19.5398 126.36 19.5398H141.291C141.781 19.5398 142.182 19.6746 142.539 19.989C142.896 20.3034 143.029 20.7077 143.029 21.2467C143.029 21.7858 142.851 22.19 142.539 22.5045C142.182 22.8189 141.781 22.9986 141.291 22.9986H126.27C125.379 22.9986 124.488 23.1783 123.685 23.5376C122.883 23.897 122.17 24.3911 121.59 25.02C121.011 25.6489 120.565 26.3676 120.253 27.1761C119.941 27.9847 119.763 28.7932 119.763 29.5569C119.763 30.4103 119.941 31.2638 120.253 32.0724C120.565 32.8809 121.056 33.5996 121.635 34.1836C122.883 35.5312 124.443 36.16 126.27 36.16H134.784C136.21 36.16 137.547 36.4295 138.84 36.9686C140.088 37.5076 141.246 38.2712 142.227 39.2146C143.163 40.1579 143.921 41.2809 144.456 42.5386C144.99 43.7964 145.258 45.1439 145.258 46.5364C145.258 47.9739 144.99 49.3664 144.456 50.669C143.921 51.9717 143.163 53.1396 142.227 54.0829C141.291 55.0712 140.177 55.8348 138.884 56.3738C137.636 56.9129 136.254 57.1824 134.828 57.1824H117.222C116.732 57.2722 116.376 57.1375 116.064 56.7781Z" fill="white"/>
<path d="M151.498 12.802C151.052 12.3528 150.829 11.8138 150.829 11.1849C150.829 10.5111 151.052 9.92719 151.498 9.52291C151.944 9.07372 152.479 8.84912 153.147 8.84912C153.816 8.84912 154.351 9.07372 154.796 9.52291C155.242 9.97211 155.465 10.5111 155.465 11.1849C155.465 11.8138 155.242 12.3528 154.796 12.802C154.351 13.2512 153.816 13.4758 153.147 13.4758C152.479 13.5208 151.944 13.2962 151.498 12.802ZM151.899 56.9131C151.543 56.5537 151.364 56.1494 151.364 55.6553V21.3368C151.364 20.7977 151.543 20.3934 151.855 20.0341C152.211 19.6747 152.612 19.54 153.103 19.54C153.637 19.54 154.039 19.7197 154.351 20.0341C154.663 20.3934 154.796 20.7977 154.796 21.3368V55.6553C154.796 56.1494 154.618 56.5537 154.306 56.9131C153.994 57.2724 153.593 57.4072 153.103 57.4072C152.657 57.4072 152.256 57.2275 151.899 56.9131Z" fill="white"/>
<path d="M163.176 56.7783C162.819 56.4639 162.685 56.0147 162.685 55.5206L162.596 31.1742C162.596 29.602 162.908 28.0747 163.488 26.6373C164.112 25.1999 164.914 23.9422 165.984 22.8641C167.053 21.786 168.257 20.9775 169.683 20.3486C171.065 19.7646 172.58 19.4502 174.14 19.4502C176.19 19.4502 178.062 19.9443 179.801 20.9775C181.539 22.0106 182.921 23.3582 183.99 25.0651C185.016 23.3582 186.397 22.0106 188.136 20.9775C189.874 19.9443 191.746 19.4502 193.796 19.4502C195.401 19.4502 196.916 19.7646 198.342 20.3486C199.769 20.9325 201.017 21.786 202.086 22.8641C203.156 23.9422 204.003 25.1999 204.627 26.6373C205.251 28.0747 205.518 29.602 205.518 31.1742L205.608 55.5206C205.608 56.0147 205.429 56.419 205.073 56.7783C204.716 57.1377 204.315 57.2725 203.825 57.2725C203.379 57.2725 202.978 57.0928 202.621 56.7783C202.265 56.4639 202.131 56.0147 202.131 55.5206L202.042 31.2191C201.997 30.141 201.73 29.063 201.284 28.0747C200.838 27.0865 200.259 26.1881 199.546 25.4694C198.833 24.7058 197.986 24.1218 197.005 23.7176C196.025 23.3133 194.955 23.0887 193.841 23.0887C192.816 23.0887 191.79 23.2684 190.81 23.6726C189.829 24.0769 188.982 24.6609 188.269 25.3796C187.556 26.0983 186.977 26.9068 186.486 27.8951C186.041 28.8384 185.773 29.8715 185.729 30.8598C185.729 30.9496 185.729 30.9945 185.773 31.0394V31.2191L185.862 55.4308C185.862 55.9249 185.684 56.3291 185.328 56.6885C184.971 57.0479 184.57 57.1826 184.124 57.1826C183.678 57.1826 183.277 57.0029 182.921 56.6885C182.564 56.3291 182.43 55.9249 182.43 55.4308L182.341 31.5336V31.4437C182.297 31.3988 182.297 31.3988 182.297 31.309V30.9945C182.252 29.9165 181.985 28.8833 181.584 27.94C181.138 26.9967 180.558 26.1432 179.801 25.4245C179.043 24.7058 178.196 24.1218 177.216 23.7176C176.235 23.3133 175.21 23.0887 174.185 23.0887C173.115 23.0887 172.09 23.2684 171.154 23.6726C170.173 24.0769 169.326 24.6609 168.613 25.3796C167.9 26.0983 167.321 26.9068 166.875 27.8502C166.429 28.7935 166.162 29.7817 166.117 30.8598C166.162 30.9047 166.162 30.9945 166.162 31.1293L166.206 55.5655C166.162 56.1045 165.984 56.5088 165.672 56.8233C165.315 57.1377 164.914 57.3174 164.468 57.3174C163.933 57.2725 163.532 57.1377 163.176 56.7783Z" fill="white"/>
<path d="M212.917 70.3438C212.561 69.9845 212.383 69.5802 212.383 69.0411V38.7204C212.383 36.1151 212.873 33.6445 213.853 31.2638C214.834 28.928 216.216 26.8617 217.954 25.1098C219.692 23.358 221.698 22.0104 224.016 21.0221C226.333 20.0339 228.785 19.5398 231.325 19.5398C233.866 19.5398 236.317 20.0339 238.635 21.0221C240.953 22.0104 242.959 23.4029 244.697 25.1098C246.435 26.8617 247.772 28.8831 248.753 31.2638C249.733 33.5996 250.224 36.0702 250.224 38.7204C250.224 41.2809 249.733 43.7514 248.753 46.0873C247.772 48.4231 246.435 50.4445 244.697 52.1963C242.959 53.9482 240.953 55.2958 238.635 56.284C236.317 57.2722 233.866 57.7663 231.325 57.7663C228.161 57.7663 225.219 57.0027 222.456 55.4754C219.737 54.038 217.508 52.0616 215.77 49.5461V69.0411C215.77 69.5802 215.636 70.0294 215.324 70.3438C215.012 70.6583 214.611 70.8379 214.121 70.8379C213.675 70.8829 213.229 70.7032 212.917 70.3438ZM237.387 53.0947C239.304 52.2862 240.953 51.1182 242.379 49.6808C243.805 48.2434 244.92 46.5814 245.677 44.6947C246.435 42.8081 246.836 40.8317 246.836 38.7204C246.836 36.5643 246.435 34.5429 245.633 32.6563C244.831 30.7697 243.761 29.0627 242.335 27.6702C240.908 26.2328 239.259 25.1098 237.343 24.3013C235.426 23.4927 233.42 23.0884 231.325 23.0884C229.186 23.0884 227.18 23.4927 225.308 24.3013C223.392 25.1098 221.743 26.2328 220.316 27.6702C218.89 29.1077 217.776 30.7697 217.018 32.6563C216.216 34.5429 215.815 36.5643 215.815 38.7204C215.815 40.7867 216.216 42.8081 217.018 44.6947C217.82 46.5814 218.935 48.2434 220.316 49.6808C221.743 51.1632 223.392 52.2862 225.308 53.0947C227.225 53.9033 229.231 54.3075 231.325 54.3075C233.465 54.3075 235.515 53.9033 237.387 53.0947Z" fill="white"/>
<path d="M263.64 56.3292C262.124 55.7003 260.787 54.8019 259.718 53.5891C258.603 52.3763 257.756 50.9838 257.177 49.3217C256.598 47.6597 256.286 45.8629 256.286 43.8415V7.77115C256.286 7.23211 256.464 6.82784 256.776 6.46848C257.088 6.10912 257.489 5.97437 257.979 5.97437C258.47 5.97437 258.871 6.15404 259.227 6.46848C259.584 6.82784 259.718 7.23211 259.718 7.77115V43.8415C259.718 46.9859 260.52 49.4565 262.08 51.2084C263.64 52.9602 265.824 53.8586 268.632 53.9035H268.766C269.3 53.9035 269.702 54.0832 270.014 54.3976C270.326 54.7121 270.459 55.1164 270.459 55.6105C270.459 56.1046 270.326 56.5089 270.014 56.8233C269.702 57.1377 269.3 57.2725 268.81 57.3174H268.632C266.849 57.3174 265.2 56.9581 263.64 56.3292Z" fill="white"/>
<path d="M284.633 56.284C282.315 55.2958 280.31 53.9033 278.571 52.1963C276.833 50.4445 275.496 48.4231 274.515 46.0873C273.535 43.7514 273.044 41.2809 273.044 38.7204C273.044 36.16 273.535 33.6895 274.515 31.3536C275.496 29.0178 276.878 26.9515 278.571 25.1997C280.31 23.4478 282.315 22.1002 284.633 21.112C286.951 20.1238 289.402 19.6296 291.943 19.6296C294.483 19.6296 296.89 20.1238 299.252 21.112C301.57 22.1002 303.62 23.4927 305.403 25.1997C307.142 26.9515 308.523 28.9729 309.504 31.3087C310.484 33.6445 311.019 36.0702 311.019 38.6306C311.019 39.1247 310.886 39.529 310.574 39.8434C310.262 40.1579 309.86 40.3376 309.37 40.3376H276.833C276.967 42.2691 277.502 44.1108 278.348 45.8177C279.195 47.5247 280.31 49.0519 281.691 50.3546C283.073 51.6573 284.678 52.6904 286.416 53.3642C288.154 54.0829 290.026 54.4423 291.987 54.4423C293.726 54.4423 295.152 54.3075 296.222 53.9931C297.291 53.7236 298.495 53.1845 299.876 52.376C300.322 52.1514 300.723 52.0616 301.035 52.0616C301.481 52.0616 301.838 52.2412 302.15 52.6455C302.462 53.0049 302.595 53.4541 302.595 53.9033C302.595 54.1728 302.551 54.4423 302.417 54.6669C302.283 54.9364 302.06 55.1161 301.793 55.2958C300.545 56.1043 299.074 56.7332 297.47 57.1824C296.043 57.5867 294.216 57.7663 291.943 57.7663C289.402 57.7663 286.951 57.2722 284.633 56.284ZM307.454 37.3279C307.32 35.3515 306.83 33.4649 305.983 31.713C305.136 29.9611 304.022 28.389 302.595 27.0863C301.169 25.7387 299.564 24.7055 297.737 23.9868C295.91 23.2681 293.993 22.9088 291.987 22.9088C289.937 22.9088 288.02 23.2681 286.238 24.0318C284.455 24.7954 282.85 25.8285 281.468 27.1312C280.087 28.4788 278.972 30.0061 278.17 31.7579C277.323 33.5098 276.833 35.3964 276.699 37.3279H307.454Z" fill="white"/>
</g>
<defs>
<clipPath id="clip0_325_19634">
<rect width="312" height="76.4082" fill="white"/>
</clipPath>
</defs>
</svg>
