<svg width="147" height="151" viewBox="0 0 147 151" fill="none" xmlns="http://www.w3.org/2000/svg">
<g clip-path="url(#clip0_2444_34612)">
<rect x="0.0595703" width="146.94" height="150.787" rx="8" fill="#253B80"/>
<path d="M58.8216 115.405L60.3209 105.933L56.9811 105.856H41.0332L52.1162 35.96C52.1506 35.749 52.2624 35.5522 52.4258 35.4125C52.5892 35.2728 52.7985 35.1958 53.0164 35.1958H79.9068C88.834 35.1958 94.9947 37.0435 98.2113 40.6904C99.7192 42.4012 100.68 44.189 101.144 46.1565C101.631 48.2209 101.64 50.6873 101.164 53.6955L101.13 53.9151V55.8426L102.638 56.6923C103.908 57.3624 104.917 58.1294 105.691 59.0076C106.981 60.4704 107.815 62.3295 108.168 64.5336C108.532 66.8004 108.411 69.4978 107.815 72.5516C107.127 76.0645 106.015 79.1241 104.512 81.6276C103.131 83.9343 101.37 85.8476 99.2806 87.3303C97.2853 88.7389 94.9144 89.8082 92.234 90.4925C89.6367 91.1654 86.6753 91.5047 83.4272 91.5047H81.3345C79.838 91.5047 78.3846 92.0408 77.2436 93.0017C76.0997 93.9826 75.3429 95.3227 75.1107 96.7883L74.953 97.6409L72.3041 114.336L72.1837 114.949C72.1522 115.143 72.0977 115.24 72.0174 115.305C71.9458 115.365 71.8426 115.405 71.7422 115.405H58.8216Z" fill="#253B80"/>
<path d="M104.074 54.1367C103.994 54.6471 103.902 55.1689 103.799 55.705C100.253 73.814 88.1206 80.07 72.6256 80.07H64.7362C62.8413 80.07 61.2445 81.4386 60.9492 83.2977L56.9099 108.778L55.7661 116C55.574 117.221 56.52 118.321 57.7585 118.321H71.7513C73.4083 118.321 74.8158 117.124 75.0767 115.498L75.2143 114.791L77.8489 98.1619L78.018 97.2495C78.2761 95.6185 79.6865 94.4209 81.3435 94.4209H83.4363C96.9933 94.4209 107.606 88.9463 110.708 73.1041C112.004 66.486 111.333 60.9601 107.904 57.0736C106.867 55.9017 105.579 54.9294 104.074 54.1367Z" fill="#179BD7"/>
<path d="M100.366 52.6664C99.8238 52.5096 99.2648 52.367 98.6914 52.2387C98.1152 52.1132 97.5247 52.002 96.9169 51.9051C94.7897 51.5629 92.459 51.4004 89.9621 51.4004H68.8855C68.3666 51.4004 67.8735 51.5173 67.432 51.7283C66.4602 52.1931 65.7377 53.1084 65.5629 54.229L61.0792 82.4747L60.9502 83.2987C61.2455 81.4396 62.8423 80.0709 64.7372 80.0709H72.6266C88.1216 80.0709 100.254 73.8122 103.8 55.706C103.906 55.1699 103.995 54.6481 104.075 54.1377C103.178 53.6644 102.206 53.2595 101.16 52.9145C100.902 52.8289 100.635 52.7462 100.366 52.6664Z" fill="#222D65"/>
<path d="M65.5544 54.2279C65.7293 53.1073 66.4517 52.192 67.4236 51.7301C67.8679 51.5191 68.3581 51.4022 68.877 51.4022H89.9536C92.4506 51.4022 94.7813 51.5647 96.9084 51.9069C97.5162 52.0038 98.1068 52.115 98.683 52.2405C99.2563 52.3688 99.8154 52.5113 100.357 52.6682C100.627 52.748 100.893 52.8307 101.154 52.9134C102.201 53.2584 103.172 53.6661 104.07 54.1366C105.125 47.4445 104.061 42.888 100.423 38.762C96.4125 34.2198 89.1739 32.2751 79.9113 32.2751H53.0208C51.1287 32.2751 49.5147 33.6438 49.2223 35.5058L38.0218 106.12C37.8011 107.517 38.8847 108.777 40.3009 108.777H56.9025L61.0708 82.4736L65.5544 54.2279Z" fill="white"/>
<rect x="-284.338" y="192.893" width="386.073" height="102.988" transform="rotate(-50.9604 -284.338 192.893)" fill="white" fill-opacity="0.17"/>
</g>
<defs>
<clipPath id="clip0_2444_34612">
<rect x="0.0595703" width="146.94" height="150.787" rx="8" fill="white"/>
</clipPath>
</defs>
</svg>
