<svg width="33" height="30" viewBox="0 0 33 30" fill="none" xmlns="http://www.w3.org/2000/svg">
<path d="M1.24414 1.48975H3.86313L4.98555 5.97944M4.98555 5.97944L8.72697 20.9451H28.1823L31.9237 5.97944H4.98555Z" stroke="black" stroke-width="2" stroke-linecap="round" stroke-linejoin="round"/>
<path d="M8.72727 28.4277C9.96707 28.4277 10.9721 27.4226 10.9721 26.1828C10.9721 24.943 9.96707 23.938 8.72727 23.938C7.48747 23.938 6.48242 24.943 6.48242 26.1828C6.48242 27.4226 7.48747 28.4277 8.72727 28.4277Z" stroke="black" stroke-width="2" stroke-linecap="round" stroke-linejoin="round"/>
<path d="M28.1823 28.4277C29.4221 28.4277 30.4272 27.4226 30.4272 26.1828C30.4272 24.943 29.4221 23.938 28.1823 23.938C26.9426 23.938 25.9375 24.943 25.9375 26.1828C25.9375 27.4226 26.9426 28.4277 28.1823 28.4277Z" stroke="black" stroke-width="2" stroke-linecap="round" stroke-linejoin="round"/>
</svg>
