<svg width="25" height="25" viewBox="0 0 25 25" fill="none" xmlns="http://www.w3.org/2000/svg">
<path fill-rule="evenodd" clip-rule="evenodd" d="M21.4482 8.68035L16.2728 3.50488L1.96613 17.8125C1.77897 17.9997 1.67383 18.2535 1.67383 18.5182L1.67383 22.2822C1.67383 22.8335 2.12068 23.2803 2.6719 23.2803H6.43586C6.70058 23.2803 6.95445 23.1751 7.14163 22.988L10.7261 19.4032C10.286 18.4464 10.0405 17.3815 10.0405 16.2592C10.0405 12.0993 13.4128 8.7271 17.5726 8.7271C18.6947 8.7271 19.7594 8.97246 20.7162 9.41245L21.4482 8.68035Z" fill="#9747FF"/>
<path d="M18.5462 1.2575C18.936 0.867731 19.5679 0.867731 19.9577 1.2575L23.7217 5.02148C24.1114 5.41125 24.1114 6.0432 23.7217 6.43297L22.3102 7.84446L17.1347 2.66899L18.5462 1.2575Z" fill="#9747FF"/>
<circle cx="17.5731" cy="16.2589" r="5.48941" transform="rotate(90 17.5731 16.2589)" fill="black"/>
<rect x="16.9043" y="13.5898" width="1.33482" height="5.33929" fill="white"/>
<rect x="20.2422" y="15.5928" width="1.33482" height="5.33929" transform="rotate(90 20.2422 15.5928)" fill="white"/>
</svg>
