<svg width="72" height="72" viewBox="0 0 72 72" fill="none" xmlns="http://www.w3.org/2000/svg">
<path d="M61.1207 31.4575L60.7276 27.8368C60.7276 27.8368 41.4634 19.3991 36.0379 16.2661C35.4216 15.9095 34.2433 15.1531 33.3783 15.2472C32.4206 15.3511 31.4159 16.4165 30.8614 16.9312C26.4519 21.0444 9.95913 32.9193 9.95913 32.9193L10.4002 36.9735L61.1208 31.4556L61.1207 31.4575Z" fill="url(#paint0_linear_2732_38403)"/>
<path d="M64.1827 59.617C64.2964 60.6637 63.5394 61.6063 62.4927 61.7201L15.5651 66.8249C14.5185 66.9386 13.5758 66.1816 13.4621 65.1349L10.2428 35.5275C10.129 34.4808 10.8861 33.5382 11.9327 33.4244L58.8585 28.3196C59.907 28.2059 60.8477 28.9629 60.9614 30.0114L64.1808 59.617L64.1827 59.617Z" fill="url(#paint1_linear_2732_38403)"/>
<path d="M54.294 5.79095L10.5312 10.5527L15.7224 58.2613L59.4852 53.4995L54.294 5.79095Z" fill="url(#paint2_linear_2732_38403)"/>
<path d="M38.4714 21.0801L38.6843 19.2067L43.0338 18.7333L41.8133 30.8181C41.7415 31.5826 41.7171 32.085 41.744 32.3254C41.7704 32.579 41.8556 32.7707 41.9979 32.8985C42.1382 33.0282 42.2984 33.0812 42.4744 33.0633C43.0668 32.9986 43.7911 32.5298 44.6456 31.653C45.5001 30.7762 46.2042 29.6336 46.7562 28.2234C47.3082 26.8132 47.4977 25.316 47.3265 23.7356C47.1833 22.4183 46.7987 21.2032 46.1726 20.0941C45.5466 18.9851 44.7141 18.0531 43.6772 17.2982C42.6401 16.5452 41.3992 16.0014 39.9582 15.6688C38.5154 15.3361 36.9157 15.2653 35.1592 15.4582C33.3688 15.6518 31.753 16.0648 30.3102 16.6935C28.8673 17.3241 27.6269 18.1357 26.5908 19.132C25.5547 20.1284 24.7265 21.3097 24.1101 22.6779C23.5624 23.8715 23.1862 25.1676 22.9814 26.5681C22.7786 27.9668 22.7545 29.3759 22.9072 30.7935C23.1141 32.6825 23.6772 34.3679 24.6004 35.8518C25.5217 37.3338 26.7572 38.5278 28.307 39.4318C29.855 40.3358 31.67 40.899 33.7503 41.1234C35.8306 41.3479 38.1363 41.1886 40.6654 40.6474C42.6713 40.1847 44.343 39.5363 45.6803 38.7019C47.0177 37.8676 48.108 36.7828 48.9513 35.4456L52.4604 35.0634C52.0167 36.3004 51.3865 37.4306 50.5699 38.454C49.7534 39.4755 48.7644 40.3699 47.603 41.1354C46.4417 41.9009 45.1137 42.532 43.6231 43.027C42.1325 43.522 40.4872 43.8679 38.6853 44.0629C35.9825 44.3583 33.5127 44.2683 31.272 43.7947C29.0314 43.3212 27.0996 42.4991 25.4769 41.3247C23.8542 40.1503 22.5648 38.681 21.6051 36.9129C20.6454 35.1449 20.0452 33.1395 19.8005 30.8985C19.5464 28.5591 19.6971 26.331 20.2565 24.2141C20.8159 22.0973 21.7476 20.2092 23.0497 18.5498C24.3517 16.8923 26.0162 15.5253 28.0374 14.4487C30.0586 13.3722 32.3457 12.6976 34.8934 12.4191C36.981 12.1932 38.9265 12.2901 40.7337 12.7098C42.5409 13.1296 44.1261 13.8445 45.493 14.8511C46.8579 15.8594 47.9538 17.1104 48.7766 18.6038C49.5995 20.0972 50.1134 21.7883 50.3202 23.6792C50.4803 25.1517 50.3729 26.6218 49.9997 28.0896C49.6265 29.5592 49.0088 30.9104 48.1486 32.1433C47.2884 33.3762 46.229 34.3905 44.9702 35.1901C43.7116 35.9859 42.3137 36.4692 40.7769 36.6364C39.8873 36.7334 39.1794 36.658 38.6514 36.4103C38.1253 36.1626 37.7422 35.7167 37.5059 35.0764C36.6526 36.1248 35.6193 36.8404 34.4043 37.2231C33.1893 37.6058 31.9748 37.621 30.7589 37.2685C29.5429 36.9179 28.5133 36.2161 27.6722 35.1631C26.8292 34.11 26.3178 32.7545 26.1382 31.0965C25.9498 29.3723 26.1369 27.6356 26.6959 25.8844C27.2548 24.1351 28.162 22.6533 29.4136 21.4388C30.6652 20.2242 32.1522 19.5236 33.8783 19.3352C35.8562 19.1204 37.3858 19.7051 38.4693 21.0857L38.4714 21.0801ZM30.3869 30.5948C30.5302 31.9121 30.9159 32.8935 31.5405 33.5369C32.1669 34.1804 32.9239 34.4536 33.8135 34.3566C34.845 34.2442 35.7104 33.7335 36.4059 32.8244C37.1013 31.9152 37.5836 30.8097 37.8544 29.5078C38.1234 28.2058 38.1958 26.9681 38.0681 25.7909C38.0049 25.2098 37.8789 24.6924 37.6903 24.2405C37.5016 23.7886 37.254 23.4024 36.9474 23.08C36.6408 22.7576 36.2875 22.5257 35.8893 22.3865C35.4911 22.2454 35.0497 22.2026 34.5652 22.2562C33.598 22.3616 32.7699 22.8322 32.0771 23.6698C31.3863 24.5056 30.8951 25.5486 30.6073 26.7971C30.3215 28.0457 30.248 29.3116 30.3869 30.5967L30.3869 30.5948Z" fill="url(#paint3_linear_2732_38403)"/>
<path d="M64.1647 59.4503L60.9622 30.0018C60.8482 28.9608 59.9073 28.2076 58.8606 28.3213L56.7427 28.5517C56.7427 28.5517 45.0467 39.8869 41.1979 44.9936C40.7615 45.5749 39.8362 46.6847 39.9214 47.4834C40.0187 48.3654 41.2444 49.2668 41.8385 49.7639C46.5659 53.7249 59.8443 61.8287 59.8443 61.8287L62.4752 61.542C63.5219 61.4283 64.2806 60.4914 64.1666 59.4504L64.1647 59.4503Z" fill="url(#paint4_linear_2732_38403)"/>
<path d="M13.4609 64.9632L10.2584 35.5147C10.1444 34.4737 10.9012 33.5367 11.9498 33.4212L14.0696 33.1909C14.0696 33.1909 27.9288 41.7461 32.7864 45.9061C33.3381 46.379 34.4814 47.266 34.5686 48.0629C34.664 48.9448 33.66 50.0894 33.1867 50.7033C29.4215 55.5888 18.1971 66.3571 18.1971 66.3571L15.5662 66.6438C14.5195 66.7576 13.5786 66.0044 13.4647 64.9634L13.4609 64.9632Z" fill="url(#paint5_linear_2732_38403)"/>
<path d="M36.6776 45.5888C35.7199 45.6927 34.7152 46.7562 34.1606 47.2728C29.7531 51.386 13.2603 63.261 13.2603 63.261L13.464 65.1328C13.5777 66.1795 14.5204 66.9365 15.567 66.8228L62.4946 61.718C63.5432 61.6043 64.2983 60.6616 64.1845 59.615L64.0288 58.1765C64.0288 58.1765 44.7646 49.7389 39.3392 46.6039C38.7228 46.2474 37.5446 45.491 36.6796 45.5851L36.6776 45.5888Z" fill="url(#paint6_linear_2732_38403)"/>
<defs>
<linearGradient id="paint0_linear_2732_38403" x1="36.0618" y1="36.8251" x2="33.7098" y2="15.2087" gradientUnits="userSpaceOnUse">
<stop stop-color="#A7A9AC"/>
<stop offset="0.07" stop-color="#B1B3B6"/>
<stop offset="0.32" stop-color="#D7D8DA"/>
<stop offset="0.45" stop-color="#E6E7E8"/>
<stop offset="0.58" stop-color="#E1E2E3"/>
<stop offset="0.73" stop-color="#D4D5D6"/>
<stop offset="0.88" stop-color="#BDBFC1"/>
<stop offset="1" stop-color="#A7A9AC"/>
</linearGradient>
<linearGradient id="paint1_linear_2732_38403" x1="39.0475" y1="64.2656" x2="35.4135" y2="30.8682" gradientUnits="userSpaceOnUse">
<stop stop-color="#A7A9AC"/>
<stop offset="0.22" stop-color="#BDBFC1"/>
<stop offset="0.5" stop-color="#D4D5D6"/>
<stop offset="0.76" stop-color="#E1E2E3"/>
<stop offset="1" stop-color="#E6E7E8"/>
</linearGradient>
<linearGradient id="paint2_linear_2732_38403" x1="37.6147" y1="55.8678" x2="32.424" y2="8.16303" gradientUnits="userSpaceOnUse">
<stop stop-color="#00002D"/>
<stop offset="1" stop-color="#0091CF"/>
</linearGradient>
<linearGradient id="paint3_linear_2732_38403" x1="37.37" y1="44.1996" x2="33.9232" y2="12.5212" gradientUnits="userSpaceOnUse">
<stop stop-color="#808285"/>
<stop offset="0.11" stop-color="#999A9D"/>
<stop offset="0.29" stop-color="#BDBEC0"/>
<stop offset="0.47" stop-color="#DADADB"/>
<stop offset="0.65" stop-color="#EEEEEF"/>
<stop offset="0.83" stop-color="#FAFAFB"/>
<stop offset="1" stop-color="white"/>
</linearGradient>
<linearGradient id="paint4_linear_2732_38403" x1="36.8878" y1="47.5131" x2="62.5792" y2="44.7176" gradientUnits="userSpaceOnUse">
<stop stop-color="#939598"/>
<stop offset="0.2" stop-color="#B8BABC"/>
<stop offset="0.39" stop-color="#D7D8D9"/>
<stop offset="0.56" stop-color="#EAEBEB"/>
<stop offset="0.68" stop-color="#F1F2F2"/>
<stop offset="0.79" stop-color="#ECEDED"/>
<stop offset="0.92" stop-color="#DEE0E0"/>
<stop offset="1" stop-color="#D1D3D4"/>
</linearGradient>
<linearGradient id="paint5_linear_2732_38403" x1="37.4869" y1="47.3825" x2="11.7937" y2="50.1781" gradientUnits="userSpaceOnUse">
<stop stop-color="#939598"/>
<stop offset="0.2" stop-color="#B8BABC"/>
<stop offset="0.39" stop-color="#D7D8D9"/>
<stop offset="0.56" stop-color="#EAEBEB"/>
<stop offset="0.68" stop-color="#F1F2F2"/>
<stop offset="0.79" stop-color="#ECEDED"/>
<stop offset="0.92" stop-color="#DEE0E0"/>
<stop offset="1" stop-color="#D1D3D4"/>
</linearGradient>
<linearGradient id="paint6_linear_2732_38403" x1="39.0474" y1="64.2654" x2="37.011" y2="45.5498" gradientUnits="userSpaceOnUse">
<stop stop-color="#A7A9AC"/>
<stop offset="0.12" stop-color="#BDBFC1"/>
<stop offset="0.27" stop-color="#D4D5D6"/>
<stop offset="0.42" stop-color="#E1E2E3"/>
<stop offset="0.55" stop-color="#E6E7E8"/>
<stop offset="0.68" stop-color="#D7D8DA"/>
<stop offset="0.93" stop-color="#B1B3B6"/>
<stop offset="1" stop-color="#A7A9AC"/>
</linearGradient>
</defs>
</svg>
