<svg width="32" height="40" viewBox="0 0 32 40" fill="none" xmlns="http://www.w3.org/2000/svg">
<path d="M5.45065 12.9793C5.54905 12.4151 6.0388 12.0034 6.61145 12.0034H24.8466C25.4193 12.0034 25.909 12.4151 26.0074 12.9793L30.2172 37.1134C30.3429 37.8343 29.7881 38.4942 29.0564 38.4942H2.40165C1.66992 38.4942 1.11512 37.8343 1.24086 37.1134L5.45065 12.9793Z" stroke="white" stroke-width="2.35664" stroke-linecap="round" stroke-linejoin="round"/>
<path d="M21.2168 15.6569V6.71971C21.2168 3.68916 18.76 1.23242 15.7295 1.23242V1.23242C12.6989 1.23242 10.2422 3.68916 10.2422 6.7197V15.6569" stroke="white" stroke-width="2.35664" stroke-linecap="round" stroke-linejoin="round"/>
<path d="M20.0098 31.3381V31.3381C20.0098 29.5455 18.5565 28.0923 16.7639 28.0923L14.6944 28.0923C12.9017 28.0923 11.4485 29.5455 11.4485 31.3381V31.3381" stroke="white" stroke-width="2.35664" stroke-linecap="round" stroke-linejoin="round"/>
<circle cx="11.7408" cy="22.1944" r="1.77597" fill="white"/>
<circle cx="11.7408" cy="22.1944" r="1.77597" fill="white"/>
<circle cx="19.7174" cy="22.1944" r="1.77597" fill="white"/>
<circle cx="19.7174" cy="22.1944" r="1.77597" fill="white"/>
</svg>
