<svg width="45" height="53" viewBox="0 0 45 53" fill="none" xmlns="http://www.w3.org/2000/svg">
<path d="M8.50695 17.1863C8.62259 16.5579 9.1705 16.1016 9.80954 16.1016H35.1927C35.8317 16.1016 36.3797 16.5579 36.4953 17.1863L42.6133 50.4358C42.763 51.2496 42.1381 52 41.3107 52H3.69158C2.8641 52 2.23924 51.2496 2.38898 50.4358L8.50695 17.1863Z" stroke="black" stroke-width="2" stroke-linecap="round" stroke-linejoin="round"/>
<path d="M30.7559 20.4997L30.7559 9.61647C30.7559 5.05701 27.0597 1.36084 22.5002 1.36084V1.36084C17.9408 1.36084 14.2446 5.05701 14.2446 9.61646L14.2446 20.4997" stroke="black" stroke-width="2" stroke-linecap="round" stroke-linejoin="round"/>
<path d="M27.209 38.7131V38.7131C27.209 36.1382 25.0751 34.0508 22.5002 34.0508V34.0508C19.9253 34.0508 17.7914 36.1382 17.7914 38.7131V38.7131" stroke="black" stroke-width="2" stroke-linecap="round" stroke-linejoin="round"/>
<circle cx="17.1751" cy="27.324" r="1.90362" fill="black"/>
<circle cx="27.8274" cy="27.324" r="1.90362" fill="black"/>
</svg>
