<svg width="21" height="21" viewBox="0 0 21 21" fill="none" xmlns="http://www.w3.org/2000/svg">
<g clip-path="url(#clip0_3588_1212)">
<path d="M17.2766 5.36517H15.4165C15.5103 5.10066 15.5701 4.81056 15.5701 4.51192C15.5701 3.09551 14.4267 1.95215 13.0103 1.95215C12.1144 1.95215 11.3379 2.41291 10.8772 3.10404L10.4505 3.67573L10.0239 3.09551C9.56314 2.41291 8.78667 1.95215 7.89076 1.95215C6.47435 1.95215 5.33099 3.09551 5.33099 4.51192C5.33099 4.81056 5.39072 5.10066 5.48458 5.36517H3.62448C2.67737 5.36517 1.9265 6.12457 1.9265 7.07168L1.91797 16.4575C1.91797 17.4046 2.67737 18.164 3.62448 18.164H17.2766C18.2237 18.164 18.9831 17.4046 18.9831 16.4575V7.07168C18.9831 6.12457 18.2237 5.36517 17.2766 5.36517ZM13.0103 3.65866C13.4796 3.65866 13.8635 4.04263 13.8635 4.51192C13.8635 4.98121 13.4796 5.36517 13.0103 5.36517C12.541 5.36517 12.157 4.98121 12.157 4.51192C12.157 4.04263 12.541 3.65866 13.0103 3.65866ZM7.89076 3.65866C8.36005 3.65866 8.74401 4.04263 8.74401 4.51192C8.74401 4.98121 8.36005 5.36517 7.89076 5.36517C7.42147 5.36517 7.0375 4.98121 7.0375 4.51192C7.0375 4.04263 7.42147 3.65866 7.89076 3.65866ZM17.2766 16.4575H3.62448V14.751H17.2766V16.4575ZM17.2766 12.1912H3.62448V7.07168H7.95902L6.18425 9.4864L7.56652 10.4847L9.59727 7.72016L10.4505 6.55973L11.3038 7.72016L13.3345 10.4847L14.7168 9.4864L12.942 7.07168H17.2766V12.1912Z" fill="white"/>
</g>
<defs>
<clipPath id="clip0_3588_1212">
<rect width="20.4781" height="20.4781" fill="white" transform="translate(0.210938 0.246094)"/>
</clipPath>
</defs>
</svg>
