<svg width="110" height="36" viewBox="0 0 110 36" fill="none" xmlns="http://www.w3.org/2000/svg">
<rect x="109.92" y="35.7593" width="109.92" height="33.3952" rx="6" transform="rotate(-180 109.92 35.7593)" fill="url(#paint0_linear_4483_54918)"/>
<rect width="109.92" height="33.3952" rx="6" fill="url(#paint1_linear_4483_54918)"/>
<rect x="4.57617" y="5.01318" width="100.38" height="24.2163" rx="2.25" stroke="url(#paint2_linear_4483_54918)" stroke-width="1.5"/>
<mask id="mask0_4483_54918" style="mask-type:alpha" maskUnits="userSpaceOnUse" x="3" y="4" width="103" height="26">
<rect x="3.82617" y="4.26318" width="101.88" height="24.8686" rx="3" fill="url(#paint3_linear_4483_54918)"/>
</mask>
<g mask="url(#mask0_4483_54918)">
<rect x="20.6484" y="-28.835" width="53.5106" height="79.304" transform="rotate(30 20.6484 -28.835)" fill="url(#paint4_linear_4483_54918)" fill-opacity="0.9"/>
<rect width="60.1964" height="82.7388" transform="matrix(0.895796 0.444466 -0.557655 0.830073 142.09 -28.835)" fill="url(#paint5_linear_4483_54918)" fill-opacity="0.9"/>
<path d="M14.6828 19.703L11.841 16.7209L11.7508 16.6263L11.6603 16.7206L10.6618 17.761L10.579 17.8473L10.6615 17.9338L14.5923 22.0587L14.6828 22.1537L14.7733 22.0587L23.2116 13.2038L23.2938 13.1176L23.2116 13.0314L22.2201 11.9909L22.1296 11.896L22.0391 11.9909L14.6828 19.703Z" fill="white" stroke="white" stroke-width="0.25"/>
</g>
<defs>
<linearGradient id="paint0_linear_4483_54918" x1="170.924" y1="22.7412" x2="169.386" y2="79.4223" gradientUnits="userSpaceOnUse">
<stop offset="0.197917" stop-color="#45009F"/>
<stop offset="0.489583" stop-color="#9747FF"/>
<stop offset="1" stop-color="#C447FF"/>
</linearGradient>
<linearGradient id="paint1_linear_4483_54918" x1="61.0044" y1="-13.0181" x2="59.466" y2="43.663" gradientUnits="userSpaceOnUse">
<stop stop-color="#45009F"/>
<stop offset="0.627267" stop-color="#9747FF"/>
<stop offset="0.883099" stop-color="#C447FF"/>
</linearGradient>
<linearGradient id="paint2_linear_4483_54918" x1="11.5108" y1="0.00313659" x2="16.0541" y2="42.5464" gradientUnits="userSpaceOnUse">
<stop offset="0.298135" stop-color="white" stop-opacity="0"/>
<stop offset="1" stop-color="white"/>
</linearGradient>
<linearGradient id="paint3_linear_4483_54918" x1="54.7662" y1="4.26318" x2="54.7662" y2="30.7715" gradientUnits="userSpaceOnUse">
<stop offset="0.176572" stop-color="#FE2E00"/>
<stop offset="0.639354" stop-color="#FE6B00"/>
<stop offset="0.906302" stop-color="#FFE421"/>
</linearGradient>
<linearGradient id="paint4_linear_4483_54918" x1="32.041" y1="-31.4152" x2="67.0643" y2="27.3574" gradientUnits="userSpaceOnUse">
<stop offset="0.393687" stop-color="white"/>
<stop offset="0.707187" stop-color="white" stop-opacity="0"/>
<stop offset="0.992142" stop-color="white" stop-opacity="0"/>
</linearGradient>
<linearGradient id="paint5_linear_4483_54918" x1="12.816" y1="-2.69204" x2="47.994" y2="60.9591" gradientUnits="userSpaceOnUse">
<stop offset="0.393687" stop-color="white"/>
<stop offset="0.707187" stop-color="white" stop-opacity="0"/>
<stop offset="0.992142" stop-color="white" stop-opacity="0"/>
</linearGradient>
</defs>
</svg>
