<svg width="148" height="151" viewBox="0 0 148 151" fill="none" xmlns="http://www.w3.org/2000/svg">
<rect x="2.75586" y="2.5" width="141.94" height="145.787" rx="5.5" fill="#253B80"/>
<path d="M59.0179 115.227L60.5172 105.755L57.1774 105.678H41.2295L52.3125 35.782C52.3469 35.571 52.4587 35.3742 52.6221 35.2345C52.7855 35.0948 52.9948 35.0178 53.2127 35.0178H80.1031C89.0303 35.0178 95.191 36.8655 98.4075 40.5124C99.9155 42.2232 100.876 44.0111 101.34 45.9785C101.828 48.0429 101.836 50.5093 101.36 53.5175L101.326 53.7371V55.6646L102.834 56.5143C104.104 57.1844 105.113 57.9514 105.887 58.8296C107.177 60.2924 108.011 62.1515 108.364 64.3556C108.728 66.6224 108.608 69.3198 108.011 72.3737C107.323 75.8866 106.211 78.9461 104.709 81.4496C103.327 83.7563 101.567 85.6696 99.4769 87.1523C97.4816 88.5609 95.1107 89.6302 92.4303 90.3145C89.833 90.9874 86.8716 91.3267 83.6235 91.3267H81.5308C80.0343 91.3267 78.5809 91.8628 77.4399 92.8237C76.296 93.8046 75.5392 95.1447 75.307 96.6103L75.1493 97.4629L72.5004 114.158L72.38 114.771C72.3485 114.965 72.294 115.062 72.2137 115.127C72.142 115.187 72.0388 115.227 71.9385 115.227H59.0179Z" fill="#253B80"/>
<path d="M104.271 53.9587C104.19 54.4691 104.099 54.9909 103.995 55.527C100.449 73.6361 88.3169 79.892 72.8219 79.892H64.9325C63.0376 79.892 61.4408 81.2606 61.1455 83.1197L57.1062 108.6L55.9623 115.822C55.7703 117.043 56.7163 118.143 57.9548 118.143H71.9475C73.6045 118.143 75.0121 116.946 75.273 115.32L75.4106 114.613L78.0452 97.9839L78.2143 97.0715C78.4723 95.4405 79.8828 94.2429 81.5398 94.2429H83.6326C97.1896 94.2429 107.802 88.7683 110.904 72.9261C112.2 66.308 111.529 60.7821 108.101 56.8957C107.063 55.7237 105.776 54.7514 104.271 53.9587Z" fill="#179BD7"/>
<path d="M100.562 52.4884C100.02 52.3316 99.4611 52.189 98.8877 52.0607C98.3115 51.9353 97.7209 51.8241 97.1132 51.7271C94.986 51.3849 92.6553 51.2224 90.1584 51.2224H69.0817C68.5629 51.2224 68.0698 51.3393 67.6283 51.5503C66.6564 52.0151 65.934 52.9304 65.7591 54.051L61.2755 82.2967L61.1465 83.1207C61.4418 81.2616 63.0386 79.893 64.9335 79.893H72.8229C88.3179 79.893 100.45 73.6342 103.996 55.528C104.102 54.9919 104.191 54.4701 104.272 53.9597C103.374 53.4864 102.402 53.0815 101.356 52.7365C101.098 52.651 100.831 52.5683 100.562 52.4884Z" fill="#222D65"/>
<path d="M65.7507 54.0499C65.9256 52.9293 66.648 52.014 67.6198 51.5521C68.0642 51.3411 68.5544 51.2242 69.0733 51.2242H90.1499C92.6469 51.2242 94.9776 51.3867 97.1047 51.7289C97.7125 51.8258 98.3031 51.937 98.8793 52.0625C99.4526 52.1908 100.012 52.3334 100.553 52.4902C100.823 52.57 101.09 52.6527 101.35 52.7354C102.397 53.0804 103.369 53.4882 104.266 53.9586C105.321 47.2665 104.257 42.71 100.619 38.584C96.6088 34.0418 89.3701 32.0972 80.1076 32.0972H53.2171C51.325 32.0972 49.711 33.4658 49.4186 35.3278L38.2181 105.942C37.9973 107.339 39.081 108.6 40.4972 108.6H57.0987L61.267 82.2956L65.7507 54.0499Z" fill="white"/>
<rect x="2.75586" y="2.5" width="141.94" height="145.787" rx="5.5" stroke="white" stroke-width="5"/>
</svg>
