<svg width="206" height="52" viewBox="0 0 206 52" fill="none" xmlns="http://www.w3.org/2000/svg">
<g clip-path="url(#clip0_3078_48483)">
<path d="M76.85 11.5762H65.5232C64.7481 11.5762 64.0889 12.1393 63.968 12.9045L59.3869 41.9495C59.2958 42.5225 59.7397 43.0393 60.321 43.0393H65.7285C66.5036 43.0393 67.1628 42.4762 67.2837 41.7093L68.5193 33.8754C68.6385 33.1086 69.2993 32.5455 70.0728 32.5455H73.6585C81.1197 32.5455 85.4259 28.935 86.5505 21.7801C87.0573 18.6499 86.572 16.1904 85.1062 14.4679C83.4964 12.5765 80.6411 11.5762 76.85 11.5762ZM78.1568 22.1842C77.5373 26.2486 74.4319 26.2486 71.4292 26.2486H69.72L70.9191 18.6581C70.9903 18.1994 71.3878 17.8615 71.8516 17.8615H72.6349C74.6804 17.8615 76.6099 17.8615 77.6069 19.0275C78.2015 19.7231 78.3837 20.7566 78.1568 22.1842Z" fill="#253B80"/>
<path d="M110.705 22.0555H105.28C104.818 22.0555 104.419 22.3934 104.348 22.8522L104.108 24.3693L103.729 23.8194C102.554 22.1151 99.9358 21.5454 97.3223 21.5454C91.3285 21.5454 86.2091 26.0851 85.2121 32.4532C84.6937 35.6299 85.4307 38.6674 87.2326 40.7856C88.8855 42.7334 91.2506 43.5449 94.0645 43.5449C98.894 43.5449 101.572 40.4395 101.572 40.4395L101.33 41.9467C101.239 42.523 101.683 43.0398 102.261 43.0398H107.147C107.924 43.0398 108.58 42.4766 108.702 41.7098L111.634 23.1453C111.726 22.5739 111.284 22.0555 110.705 22.0555ZM103.144 32.6122C102.621 35.711 100.161 37.7912 97.0242 37.7912C95.4491 37.7912 94.1904 37.2861 93.3822 36.3288C92.5806 35.3781 92.2758 34.025 92.5309 32.5178C93.0195 29.4456 95.5203 27.2974 98.6092 27.2974C100.149 27.2974 101.402 27.8092 102.226 28.7748C103.053 29.7503 103.381 31.1117 103.144 32.6122Z" fill="#253B80"/>
<path d="M139.596 22.0562H134.145C133.625 22.0562 133.137 22.3145 132.842 22.7468L125.324 33.8202L122.138 23.1791C121.937 22.5133 121.323 22.0562 120.627 22.0562H115.271C114.62 22.0562 114.168 22.6921 114.375 23.3049L120.379 40.9237L114.734 48.8918C114.29 49.5195 114.738 50.3824 115.504 50.3824H120.948C121.465 50.3824 121.949 50.1306 122.242 49.7066L140.371 23.5385C140.805 22.9124 140.359 22.0562 139.596 22.0562Z" fill="#253B80"/>
<path d="M157.643 11.5762H146.314C145.541 11.5762 144.882 12.1393 144.761 12.9045L140.18 41.9495C140.089 42.5225 140.533 43.0393 141.111 43.0393H146.924C147.464 43.0393 147.926 42.6451 148.01 42.1085L149.311 33.8754C149.43 33.1086 150.091 32.5455 150.864 32.5455H154.448C161.911 32.5455 166.216 28.935 167.342 21.7801C167.85 18.6499 167.362 16.1904 165.896 14.4679C164.288 12.5765 161.434 11.5762 157.643 11.5762ZM158.95 22.1842C158.332 26.2486 155.227 26.2486 152.222 26.2486H150.515L151.715 18.6581C151.787 18.1994 152.181 17.8615 152.646 17.8615H153.43C155.473 17.8615 157.404 17.8615 158.402 19.0275C158.996 19.7231 159.177 20.7566 158.95 22.1842Z" fill="#179BD7"/>
<path d="M191.5 22.0555H186.079C185.614 22.0555 185.218 22.3934 185.149 22.8522L184.908 24.3693L184.528 23.8194C183.353 22.1151 180.736 21.5454 178.123 21.5454C172.129 21.5454 167.011 26.0851 166.014 32.4532C165.498 35.6299 166.231 38.6674 168.033 40.7856C169.689 42.7334 172.051 43.5449 174.865 43.5449C179.695 43.5449 182.373 40.4395 182.373 40.4395L182.131 41.9467C182.04 42.523 182.484 43.0398 183.065 43.0398H187.949C188.723 43.0398 189.382 42.4766 189.503 41.7098L192.436 23.1453C192.525 22.5739 192.081 22.0555 191.5 22.0555ZM183.94 32.6122C183.42 35.711 180.957 37.7912 177.82 37.7912C176.248 37.7912 174.986 37.2861 174.178 36.3288C173.376 35.3781 173.075 34.025 173.327 32.5178C173.818 29.4456 176.316 27.2974 179.405 27.2974C180.945 27.2974 182.197 27.8092 183.022 28.7748C183.852 29.7503 184.18 31.1117 183.94 32.6122Z" fill="#179BD7"/>
<path d="M197.892 12.3745L193.243 41.9511C193.152 42.5242 193.596 43.0409 194.174 43.0409H198.848C199.625 43.0409 200.284 42.4778 200.403 41.711L204.988 12.6676C205.079 12.0946 204.635 11.5762 204.057 11.5762H198.823C198.361 11.5778 197.964 11.9157 197.892 12.3745Z" fill="#179BD7"/>
<path d="M12.3442 48.6874L13.2104 43.1855L11.2809 43.1408H2.06738L8.47031 2.54201C8.49018 2.41945 8.55477 2.30517 8.64918 2.22402C8.74358 2.14286 8.86449 2.09814 8.99036 2.09814H24.5256C29.6831 2.09814 33.2423 3.17137 35.1006 5.28967C35.9717 6.2834 36.5266 7.32184 36.7949 8.46463C37.0764 9.66373 37.0814 11.0964 36.8065 12.8437L36.7866 12.9712V14.0908L37.6578 14.5843C38.3915 14.9736 38.9745 15.4191 39.4216 15.9292C40.1669 16.7788 40.6489 17.8587 40.8526 19.1389C41.0629 20.4556 40.9934 22.0224 40.6489 23.7962C40.2514 25.8367 39.6088 27.6138 38.7409 29.0679C37.9426 30.4078 36.9257 31.5191 35.7183 32.3804C34.5656 33.1985 33.1959 33.8196 31.6474 34.2171C30.1468 34.608 28.436 34.8051 26.5595 34.8051H25.3504C24.4859 34.8051 23.6462 35.1164 22.987 35.6746C22.3262 36.2443 21.889 37.0227 21.7548 37.874L21.6637 38.3692L20.1334 48.0664L20.0638 48.4224C20.0456 48.5351 20.0141 48.5914 19.9677 48.6295C19.9263 48.6643 19.8667 48.6874 19.8087 48.6874H12.3442Z" fill="#253B80"/>
<path d="M38.4867 13.0986C38.4403 13.3951 38.3873 13.6982 38.3277 14.0096C36.279 24.5282 29.2699 28.1619 20.318 28.1619H15.7601C14.6654 28.1619 13.7429 28.9569 13.5723 30.0367L11.2387 44.8367L10.5778 49.0319C10.4669 49.7407 11.0134 50.38 11.7289 50.38H19.8129C20.7702 50.38 21.5834 49.6844 21.7341 48.7404L21.8136 48.3296L23.3356 38.6706L23.4334 38.1406C23.5824 37.1932 24.3973 36.4976 25.3546 36.4976H26.5636C34.3958 36.4976 40.5272 33.3177 42.3192 24.1158C43.0678 20.2717 42.6802 17.062 40.6994 14.8045C40.0998 14.1238 39.3562 13.5591 38.4867 13.0986Z" fill="#179BD7"/>
<path d="M36.3426 12.2456C36.0296 12.1545 35.7066 12.0717 35.3753 11.9972C35.0424 11.9243 34.7013 11.8597 34.3502 11.8034C33.1212 11.6047 31.7747 11.5103 30.3322 11.5103H18.1557C17.8559 11.5103 17.571 11.5782 17.316 11.7007C16.7545 11.9707 16.3372 12.5023 16.2361 13.1532L13.6458 29.5597L13.5713 30.0383C13.7419 28.9585 14.6644 28.1635 15.7591 28.1635H20.317C29.2689 28.1635 36.278 24.5281 38.3267 14.0111C38.388 13.6998 38.4393 13.3967 38.4857 13.1002C37.9673 12.8253 37.4059 12.5901 36.8013 12.3897C36.6523 12.34 36.4983 12.292 36.3426 12.2456Z" fill="#222D65"/>
<path d="M16.2343 13.1511C16.3354 12.5002 16.7527 11.9686 17.3142 11.7003C17.5709 11.5777 17.8541 11.5098 18.1539 11.5098H30.3304C31.7729 11.5098 33.1194 11.6042 34.3484 11.8029C34.6995 11.8592 35.0407 11.9238 35.3736 11.9967C35.7048 12.0712 36.0278 12.1541 36.3408 12.2451C36.4965 12.2915 36.6505 12.3395 36.8012 12.3876C37.4057 12.588 37.9672 12.8248 38.4856 13.0981C39.0951 9.21096 38.4806 6.56433 36.3789 4.16779C34.0618 1.52944 29.8799 0.399902 24.5287 0.399902H8.99338C7.90028 0.399902 6.96783 1.19489 6.79889 2.27639L0.328067 43.2925C0.200539 44.1041 0.826587 44.8361 1.64476 44.8361H11.2359L13.644 29.5575L16.2343 13.1511Z" fill="#253B80"/>
</g>
<defs>
<clipPath id="clip0_3078_48483">
<rect width="205.201" height="51.1007" fill="white" transform="translate(0.311523)"/>
</clipPath>
</defs>
</svg>
