<svg width="80" height="63" viewBox="0 0 80 63" fill="none" xmlns="http://www.w3.org/2000/svg">
<g clip-path="url(#clip0_3894_14367)">
<rect x="0.259766" y="0.452148" width="79" height="62" rx="6" fill="#253B80"/>
<g clip-path="url(#clip1_3894_14367)">
<path d="M32.8489 50.2533L33.5534 45.8024L31.9841 45.7662H24.4902L29.6981 12.9226C29.7142 12.8234 29.7668 12.731 29.8436 12.6653C29.9203 12.5997 30.0187 12.5635 30.1211 12.5635H42.7567C46.9516 12.5635 49.8465 13.4317 51.3579 15.1454C52.0665 15.9493 52.5177 16.7893 52.736 17.7138C52.965 18.6839 52.969 19.8429 52.7454 21.2564L52.7292 21.3596V22.2653L53.4378 22.6646C54.0345 22.9794 54.5087 23.3399 54.8724 23.7525C55.4786 24.4399 55.8706 25.3134 56.0363 26.3491C56.2074 27.4143 56.1508 28.6818 55.8706 30.1168C55.5473 31.7675 55.0247 33.2051 54.3188 34.3815C53.6695 35.4655 52.8424 36.3645 51.8604 37.0612C50.9228 37.7231 49.8087 38.2255 48.5492 38.5471C47.3288 38.8633 45.9372 39.0227 44.411 39.0227H43.4276C42.7244 39.0227 42.0414 39.2746 41.5053 39.7262C40.9678 40.1871 40.6122 40.8168 40.5031 41.5055L40.429 41.9061L39.1843 49.7509L39.1277 50.0389C39.1129 50.1301 39.0873 50.1756 39.0496 50.2064C39.0159 50.2346 38.9674 50.2533 38.9202 50.2533H32.8489Z" fill="#253B80"/>
<path d="M54.1118 21.4639C54.0741 21.7037 54.031 21.9489 53.9825 22.2008C52.3162 30.7101 46.6153 33.6498 39.3343 33.6498H35.6271C34.7367 33.6498 33.9863 34.2929 33.8476 35.1665L31.9496 47.1393L31.4121 50.5331C31.3218 51.1066 31.7663 51.6238 32.3483 51.6238H38.9234C39.702 51.6238 40.3635 51.061 40.486 50.2973L40.5507 49.965L41.7887 42.1511L41.8682 41.7223C41.9894 40.9559 42.6522 40.3932 43.4308 40.3932H44.4142C50.7845 40.3932 55.7714 37.8207 57.229 30.3765C57.8379 27.2667 57.5227 24.6701 55.9115 22.8439C55.4239 22.2932 54.8191 21.8363 54.1118 21.4639Z" fill="#179BD7"/>
<path d="M52.3688 20.7726C52.1142 20.6989 51.8515 20.6319 51.5821 20.5716C51.3113 20.5127 51.0338 20.4604 50.7482 20.4149C49.7487 20.2541 48.6535 20.1777 47.4802 20.1777H37.5764C37.3326 20.1777 37.1009 20.2327 36.8934 20.3318C36.4368 20.5502 36.0973 20.9803 36.0151 21.5069L33.9083 34.7794L33.8477 35.1666C33.9864 34.293 34.7367 33.6499 35.6272 33.6499H39.3343C46.6154 33.6499 52.3162 30.7089 53.9826 22.2009C54.0324 21.949 54.0742 21.7038 54.1119 21.464C53.6903 21.2416 53.2336 21.0513 52.7419 20.8892C52.6207 20.849 52.4954 20.8101 52.3688 20.7726Z" fill="#222D65"/>
<path d="M36.0124 21.5064C36.0946 20.9798 36.434 20.5497 36.8907 20.3327C37.0995 20.2335 37.3299 20.1786 37.5737 20.1786H47.4775C48.6508 20.1786 49.746 20.255 50.7455 20.4158C51.0311 20.4613 51.3086 20.5136 51.5793 20.5725C51.8488 20.6328 52.1114 20.6998 52.366 20.7735C52.4927 20.811 52.6179 20.8499 52.7405 20.8887C53.2322 21.0508 53.6889 21.2424 54.1105 21.4635C54.6063 18.3189 54.1065 16.1778 52.397 14.2391C50.5125 12.1047 47.1111 11.1909 42.7586 11.1909H30.1229C29.2339 11.1909 28.4755 11.834 28.338 12.709L23.075 45.8902C22.9713 46.5467 23.4805 47.139 24.1459 47.139H31.9469L33.9056 34.7789L36.0124 21.5064Z" fill="white"/>
</g>
<rect x="-124.664" y="90.2012" width="188.989" height="33.6993" transform="rotate(-47.9633 -124.664 90.2012)" fill="white" fill-opacity="0.15"/>
</g>
<defs>
<clipPath id="clip0_3894_14367">
<rect x="0.259766" y="0.452148" width="79" height="62" rx="6" fill="white"/>
</clipPath>
<clipPath id="clip1_3894_14367">
<rect width="36.203" height="43.21" fill="white" transform="translate(21.6582 9.84717)"/>
</clipPath>
</defs>
</svg>
