<svg width="71" height="85" viewBox="0 0 71 85" fill="none" xmlns="http://www.w3.org/2000/svg">
<path d="M22.0333 79.0999L23.3978 70.4795L20.3584 70.4095H5.84473L15.931 6.79993C15.9623 6.60791 16.064 6.42886 16.2127 6.30171C16.3614 6.17456 16.5519 6.10449 16.7502 6.10449H41.2222C49.3465 6.10449 54.9531 7.78601 57.8804 11.1049C59.2527 12.6619 60.1267 14.2889 60.5493 16.0794C60.9929 17.9581 61.0007 20.2028 60.5676 22.9404L60.5363 23.1402V24.8944L61.9086 25.6677C63.0644 26.2775 63.9827 26.9755 64.6872 27.7748C65.8612 29.106 66.6204 30.7979 66.9413 32.8037C67.2726 34.8667 67.1631 37.3215 66.6204 40.1007C65.9942 43.2976 64.982 46.082 63.6149 48.3604C62.3574 50.4597 60.7555 52.2009 58.8535 53.5502C57.0377 54.8321 54.8801 55.8052 52.4407 56.428C50.077 57.0404 47.3819 57.3492 44.426 57.3492H42.5215C41.1596 57.3492 39.8368 57.837 38.7985 58.7115C37.7575 59.6042 37.0687 60.8238 36.8574 62.1576L36.7139 62.9335L34.3032 78.1268L34.1937 78.6847C34.165 78.8612 34.1154 78.9494 34.0423 79.0091C33.9771 79.0636 33.8832 79.0999 33.7919 79.0999H22.0333Z" fill="#253B80"/>
<path d="M63.2166 23.3418C63.1436 23.8063 63.0601 24.2812 62.9662 24.769C59.7389 41.2494 48.6978 46.9427 34.5964 46.9427H27.4165C25.692 46.9427 24.2388 48.1883 23.9701 49.8802L20.2941 73.0685L19.2531 79.6414C19.0783 80.7521 19.9392 81.7537 21.0663 81.7537H33.8006C35.3086 81.7537 36.5896 80.6638 36.827 79.1847L36.9522 78.5412L39.3499 63.4075L39.5038 62.5772C39.7386 61.0929 41.0222 60.003 42.5302 60.003H44.4347C56.7725 60.003 66.4309 55.0207 69.2537 40.6033C70.433 34.5804 69.8225 29.5515 66.7022 26.0146C65.7577 24.9481 64.5863 24.0632 63.2166 23.3418Z" fill="#179BD7"/>
<path d="M59.8383 22.0032C59.3452 21.8605 58.8365 21.7308 58.3147 21.614C57.7903 21.4998 57.2529 21.3986 56.6998 21.3104C54.7639 20.999 52.6428 20.8511 50.3704 20.8511H31.1894C30.7171 20.8511 30.2684 20.9575 29.8666 21.1495C28.9822 21.5725 28.3247 22.4054 28.1656 23.4252L24.0852 49.1306L23.9678 49.8806C24.2365 48.1887 25.6897 46.9431 27.4142 46.9431H34.5941C48.6955 46.9431 59.7366 41.2472 62.9639 24.7694C63.0604 24.2816 63.1413 23.8067 63.2143 23.3422C62.3977 22.9114 61.5133 22.543 60.561 22.229C60.3262 22.1511 60.0836 22.0759 59.8383 22.0032Z" fill="#222D65"/>
<path d="M28.1596 23.4247C28.3188 22.4049 28.9762 21.5719 29.8607 21.1515C30.2651 20.9595 30.7112 20.8531 31.1834 20.8531H50.3645C52.6369 20.8531 54.758 21.001 56.6938 21.3124C57.2469 21.4006 57.7844 21.5018 58.3088 21.616C58.8305 21.7328 59.3393 21.8625 59.8324 22.0052C60.0776 22.0779 60.3203 22.1531 60.5577 22.2284C61.5099 22.5424 62.3944 22.9135 63.211 23.3416C64.1711 17.2513 63.2032 13.1046 59.8924 9.34976C56.2425 5.21603 49.6548 3.44629 41.2253 3.44629H16.7533C15.0314 3.44629 13.5625 4.69186 13.2964 6.38635L3.10321 70.6498C2.90232 71.9213 3.88851 73.0683 5.17733 73.0683H20.2858L24.0792 49.1301L28.1596 23.4247Z" fill="#253B80"/>
</svg>
