<svg width="147" height="151" viewBox="0 0 147 151" fill="none" xmlns="http://www.w3.org/2000/svg">
<g clip-path="url(#clip0_3991_47593)">
<rect x="0.0595703" y="0.180176" width="146.94" height="150.787" rx="8" fill="#253B80"/>
<g opacity="0.2">
<path d="M58.8216 115.407L60.3209 105.935L56.9811 105.858H41.0332L52.1162 35.9619C52.1506 35.7509 52.2624 35.5542 52.4258 35.4145C52.5892 35.2747 52.7985 35.1978 53.0164 35.1978H79.9068C88.834 35.1978 94.9947 37.0454 98.2113 40.6924C99.7192 42.4032 100.68 44.191 101.144 46.1584C101.631 48.2228 101.64 50.6893 101.164 53.6975L101.13 53.917V55.8445L102.638 56.6943C103.908 57.3643 104.917 58.1313 105.691 59.0096C106.981 60.4723 107.815 62.3314 108.168 64.5355C108.532 66.8024 108.411 69.4998 107.815 72.5536C107.127 76.0665 106.015 79.126 104.512 81.6295C103.131 83.9363 101.37 85.8496 99.2806 87.3323C97.2853 88.7408 94.9144 89.8101 92.234 90.4944C89.6367 91.1674 86.6753 91.5067 83.4272 91.5067H81.3345C79.838 91.5067 78.3846 92.0427 77.2436 93.0036C76.0997 93.9845 75.3429 95.3247 75.1107 96.7903L74.953 97.6428L72.3041 114.338L72.1837 114.951C72.1522 115.145 72.0977 115.242 72.0174 115.307C71.9458 115.367 71.8426 115.407 71.7422 115.407H58.8216Z" fill="#253B80"/>
<path d="M104.074 54.1387C103.994 54.6491 103.902 55.1709 103.799 55.7069C100.253 73.816 88.1206 80.0719 72.6256 80.0719H64.7362C62.8413 80.0719 61.2445 81.4406 60.9492 83.2997L56.9099 108.78L55.7661 116.002C55.574 117.222 56.52 118.323 57.7585 118.323H71.7513C73.4083 118.323 74.8158 117.126 75.0767 115.5L75.2143 114.793L77.8489 98.1639L78.018 97.2514C78.2761 95.6205 79.6865 94.4229 81.3435 94.4229H83.4363C96.9933 94.4229 107.606 88.9482 110.708 73.106C112.004 66.488 111.333 60.962 107.904 57.0756C106.867 55.9037 105.579 54.9314 104.074 54.1387Z" fill="#179BD7"/>
<path d="M100.366 52.6684C99.8238 52.5115 99.2648 52.369 98.6914 52.2406C98.1152 52.1152 97.5247 52.004 96.9169 51.907C94.7897 51.5649 92.459 51.4023 89.9621 51.4023H68.8855C68.3666 51.4023 67.8735 51.5193 67.432 51.7303C66.4602 52.195 65.7377 53.1103 65.5629 54.2309L61.0792 82.4766L60.9502 83.3007C61.2455 81.4416 62.8423 80.0729 64.7372 80.0729H72.6266C88.1216 80.0729 100.254 73.8141 103.8 55.7079C103.906 55.1719 103.995 54.6501 104.075 54.1397C103.178 53.6663 102.206 53.2614 101.16 52.9164C100.902 52.8309 100.635 52.7482 100.366 52.6684Z" fill="#222D65"/>
<path d="M65.5544 54.2301C65.7293 53.1095 66.4517 52.1942 67.4236 51.7323C67.8679 51.5213 68.3581 51.4044 68.877 51.4044H89.9536C92.4506 51.4044 94.7813 51.5669 96.9084 51.909C97.5162 52.006 98.1068 52.1172 98.683 52.2427C99.2563 52.371 99.8154 52.5135 100.357 52.6704C100.627 52.7502 100.893 52.8329 101.154 52.9156C102.201 53.2606 103.172 53.6683 104.07 54.1388C105.125 47.4466 104.061 42.8902 100.423 38.7642C96.4125 34.222 89.1739 32.2773 79.9113 32.2773H53.0208C51.1287 32.2773 49.5147 33.646 49.2223 35.5079L38.0218 106.122C37.8011 107.519 38.8847 108.78 40.3009 108.78H56.9025L61.0708 82.4758L65.5544 54.2301Z" fill="white"/>
</g>
<rect x="107.662" y="192.896" width="386.073" height="102.988" transform="rotate(-50.9604 107.662 192.896)" fill="white" fill-opacity="0.17"/>
<path d="M47.8845 61.3407C48.2085 62.2587 48.3705 63.3837 48.3705 64.7157C48.3705 65.9937 48.2175 67.0917 47.9115 68.0097C47.5155 69.1977 46.8765 70.1247 45.9945 70.7907C45.1305 71.4567 44.0325 71.7897 42.7005 71.7897C41.4225 71.7897 40.3965 71.3307 39.6225 70.4127C39.5865 70.3767 39.5505 70.3677 39.5145 70.3857C39.4785 70.4037 39.4605 70.4397 39.4605 70.4937V76.3527C39.4605 76.4427 39.4245 76.5147 39.3525 76.5687C39.2985 76.6407 39.2265 76.6767 39.1365 76.6767H36.6525C36.5625 76.6767 36.4815 76.6407 36.4095 76.5687C36.3555 76.5147 36.3285 76.4427 36.3285 76.3527V58.1007C36.3285 58.0107 36.3555 57.9387 36.4095 57.8847C36.4815 57.8127 36.5625 57.7767 36.6525 57.7767H39.1365C39.2265 57.7767 39.2985 57.8127 39.3525 57.8847C39.4245 57.9387 39.4605 58.0107 39.4605 58.1007V58.9107C39.4605 58.9647 39.4785 59.0007 39.5145 59.0187C39.5505 59.0367 39.5865 59.0187 39.6225 58.9647C40.4145 58.0287 41.4495 57.5607 42.7275 57.5607C44.0055 57.5607 45.0855 57.8937 45.9675 58.5597C46.8495 59.2257 47.4885 60.1527 47.8845 61.3407ZM44.3745 67.9557C44.9145 67.1277 45.1845 66.0297 45.1845 64.6617C45.1845 63.3477 44.9685 62.3127 44.5365 61.5567C44.0325 60.6747 43.2675 60.2337 42.2415 60.2337C41.3055 60.2337 40.6035 60.6657 40.1355 61.5297C39.7215 62.2317 39.5145 63.2757 39.5145 64.6617C39.5145 66.0837 39.7395 67.1637 40.1895 67.9017C40.6575 68.6937 41.3325 69.0897 42.2145 69.0897C43.1685 69.0897 43.8885 68.7117 44.3745 67.9557ZM56.6724 57.5607C57.8064 57.5607 58.8054 57.7587 59.6694 58.1547C60.5334 58.5507 61.1994 59.0997 61.6674 59.8017C62.1354 60.4857 62.3694 61.2687 62.3694 62.1507V71.2497C62.3694 71.3397 62.3334 71.4207 62.2614 71.4927C62.2074 71.5467 62.1354 71.5737 62.0454 71.5737H59.5614C59.4714 71.5737 59.3904 71.5467 59.3184 71.4927C59.2644 71.4207 59.2374 71.3397 59.2374 71.2497V70.3857C59.2374 70.3317 59.2194 70.3047 59.1834 70.3047C59.1474 70.2867 59.1114 70.2957 59.0754 70.3317C58.1934 71.3037 56.9154 71.7897 55.2414 71.7897C53.8914 71.7897 52.7754 71.4477 51.8934 70.7637C51.0294 70.0797 50.5974 69.0627 50.5974 67.7127C50.5974 66.3087 51.0834 65.2197 52.0554 64.4457C53.0454 63.6537 54.4314 63.2577 56.2134 63.2577H59.1024C59.1924 63.2577 59.2374 63.2127 59.2374 63.1227V62.4747C59.2374 61.7727 59.0304 61.2327 58.6164 60.8547C58.2024 60.4587 57.5814 60.2607 56.7534 60.2607C56.0694 60.2607 55.5114 60.3867 55.0794 60.6387C54.6654 60.8727 54.4044 61.2057 54.2964 61.6377C54.2424 61.8537 54.1164 61.9437 53.9184 61.9077L51.2994 61.5837C51.2094 61.5657 51.1284 61.5387 51.0564 61.5027C51.0024 61.4487 50.9844 61.3857 51.0024 61.3137C51.1464 60.2157 51.7314 59.3157 52.7574 58.6137C53.8014 57.9117 55.1064 57.5607 56.6724 57.5607ZM56.0244 69.3057C56.9064 69.3057 57.6624 69.0717 58.2924 68.6037C58.9224 68.1357 59.2374 67.5417 59.2374 66.8217V65.5527C59.2374 65.4627 59.1924 65.4177 59.1024 65.4177H56.8344C55.8804 65.4177 55.1244 65.5977 54.5664 65.9577C54.0264 66.3177 53.7564 66.8307 53.7564 67.4967C53.7564 68.0727 53.9634 68.5227 54.3774 68.8467C54.8094 69.1527 55.3584 69.3057 56.0244 69.3057ZM64.9538 76.9467C64.8998 76.9467 64.8548 76.9107 64.8188 76.8387C64.7828 76.7847 64.7648 76.7127 64.7648 76.6227V74.6787C64.7648 74.5887 64.7918 74.5077 64.8458 74.4357C64.9178 74.3817 64.9988 74.3547 65.0888 74.3547H65.1158C65.8538 74.3367 66.4298 74.2557 66.8438 74.1117C67.2578 73.9857 67.5998 73.7337 67.8698 73.3557C68.1398 72.9777 68.3828 72.4107 68.5988 71.6547C68.6168 71.6187 68.6168 71.5647 68.5988 71.4927L64.1438 58.1277C64.1258 58.0917 64.1168 58.0467 64.1168 57.9927C64.1168 57.8307 64.2068 57.7497 64.3868 57.7497H67.0328C67.2308 57.7497 67.3568 57.8397 67.4108 58.0197L70.1108 67.5237C70.1288 67.5777 70.1558 67.6047 70.1918 67.6047C70.2278 67.6047 70.2548 67.5777 70.2728 67.5237L72.9728 58.0197C73.0268 57.8397 73.1528 57.7497 73.3508 57.7497H75.9158C76.0238 57.7497 76.0958 57.7857 76.1318 57.8577C76.1858 57.9117 76.1948 58.0017 76.1588 58.1277L71.4068 72.3297C70.9568 73.6077 70.5158 74.5617 70.0838 75.1917C69.6518 75.8217 69.0578 76.2717 68.3018 76.5417C67.5638 76.8117 66.5108 76.9467 65.1428 76.9467H64.9538ZM90.1248 61.3407C90.4488 62.2587 90.6108 63.3837 90.6108 64.7157C90.6108 65.9937 90.4578 67.0917 90.1518 68.0097C89.7558 69.1977 89.1168 70.1247 88.2348 70.7907C87.3708 71.4567 86.2728 71.7897 84.9408 71.7897C83.6628 71.7897 82.6368 71.3307 81.8628 70.4127C81.8268 70.3767 81.7908 70.3677 81.7548 70.3857C81.7188 70.4037 81.7008 70.4397 81.7008 70.4937V76.3527C81.7008 76.4427 81.6648 76.5147 81.5928 76.5687C81.5388 76.6407 81.4668 76.6767 81.3768 76.6767H78.8928C78.8028 76.6767 78.7218 76.6407 78.6498 76.5687C78.5958 76.5147 78.5688 76.4427 78.5688 76.3527V58.1007C78.5688 58.0107 78.5958 57.9387 78.6498 57.8847C78.7218 57.8127 78.8028 57.7767 78.8928 57.7767H81.3768C81.4668 57.7767 81.5388 57.8127 81.5928 57.8847C81.6648 57.9387 81.7008 58.0107 81.7008 58.1007V58.9107C81.7008 58.9647 81.7188 59.0007 81.7548 59.0187C81.7908 59.0367 81.8268 59.0187 81.8628 58.9647C82.6548 58.0287 83.6898 57.5607 84.9678 57.5607C86.2458 57.5607 87.3258 57.8937 88.2078 58.5597C89.0898 59.2257 89.7288 60.1527 90.1248 61.3407ZM86.6148 67.9557C87.1548 67.1277 87.4248 66.0297 87.4248 64.6617C87.4248 63.3477 87.2088 62.3127 86.7768 61.5567C86.2728 60.6747 85.5078 60.2337 84.4818 60.2337C83.5458 60.2337 82.8438 60.6657 82.3758 61.5297C81.9618 62.2317 81.7548 63.2757 81.7548 64.6617C81.7548 66.0837 81.9798 67.1637 82.4298 67.9017C82.8978 68.6937 83.5728 69.0897 84.4548 69.0897C85.4088 69.0897 86.1288 68.7117 86.6148 67.9557ZM98.9126 57.5607C100.047 57.5607 101.046 57.7587 101.91 58.1547C102.774 58.5507 103.44 59.0997 103.908 59.8017C104.376 60.4857 104.61 61.2687 104.61 62.1507V71.2497C104.61 71.3397 104.574 71.4207 104.502 71.4927C104.448 71.5467 104.376 71.5737 104.286 71.5737H101.802C101.712 71.5737 101.631 71.5467 101.559 71.4927C101.505 71.4207 101.478 71.3397 101.478 71.2497V70.3857C101.478 70.3317 101.46 70.3047 101.424 70.3047C101.388 70.2867 101.352 70.2957 101.316 70.3317C100.434 71.3037 99.1556 71.7897 97.4816 71.7897C96.1316 71.7897 95.0156 71.4477 94.1336 70.7637C93.2696 70.0797 92.8376 69.0627 92.8376 67.7127C92.8376 66.3087 93.3236 65.2197 94.2956 64.4457C95.2856 63.6537 96.6716 63.2577 98.4536 63.2577H101.343C101.433 63.2577 101.478 63.2127 101.478 63.1227V62.4747C101.478 61.7727 101.271 61.2327 100.857 60.8547C100.443 60.4587 99.8216 60.2607 98.9936 60.2607C98.3096 60.2607 97.7516 60.3867 97.3196 60.6387C96.9056 60.8727 96.6446 61.2057 96.5366 61.6377C96.4826 61.8537 96.3566 61.9437 96.1586 61.9077L93.5396 61.5837C93.4496 61.5657 93.3686 61.5387 93.2966 61.5027C93.2426 61.4487 93.2246 61.3857 93.2426 61.3137C93.3866 60.2157 93.9716 59.3157 94.9976 58.6137C96.0416 57.9117 97.3466 57.5607 98.9126 57.5607ZM98.2646 69.3057C99.1466 69.3057 99.9026 69.0717 100.533 68.6037C101.163 68.1357 101.478 67.5417 101.478 66.8217V65.5527C101.478 65.4627 101.433 65.4177 101.343 65.4177H99.0746C98.1206 65.4177 97.3646 65.5977 96.8066 65.9577C96.2666 66.3177 95.9966 66.8307 95.9966 67.4967C95.9966 68.0727 96.2036 68.5227 96.6176 68.8467C97.0496 69.1527 97.5986 69.3057 98.2646 69.3057ZM108.078 71.5737C107.988 71.5737 107.907 71.5467 107.835 71.4927C107.781 71.4207 107.754 71.3397 107.754 71.2497V52.9977C107.754 52.9077 107.781 52.8357 107.835 52.7817C107.907 52.7097 107.988 52.6737 108.078 52.6737H110.562C110.652 52.6737 110.724 52.7097 110.778 52.7817C110.85 52.8357 110.886 52.9077 110.886 52.9977V71.2497C110.886 71.3397 110.85 71.4207 110.778 71.4927C110.724 71.5467 110.652 71.5737 110.562 71.5737H108.078ZM43.4888 86.5607C44.6228 86.5607 45.6218 86.7587 46.4858 87.1547C47.3498 87.5507 48.0158 88.0997 48.4838 88.8017C48.9518 89.4857 49.1858 90.2687 49.1858 91.1507V100.25C49.1858 100.34 49.1498 100.421 49.0778 100.493C49.0238 100.547 48.9518 100.574 48.8618 100.574H46.3778C46.2878 100.574 46.2068 100.547 46.1348 100.493C46.0808 100.421 46.0538 100.34 46.0538 100.25V99.3857C46.0538 99.3317 46.0358 99.3047 45.9998 99.3047C45.9638 99.2867 45.9278 99.2957 45.8918 99.3317C45.0098 100.304 43.7318 100.79 42.0578 100.79C40.7078 100.79 39.5918 100.448 38.7098 99.7637C37.8458 99.0797 37.4138 98.0627 37.4138 96.7127C37.4138 95.3087 37.8998 94.2197 38.8718 93.4457C39.8618 92.6537 41.2478 92.2577 43.0298 92.2577H45.9188C46.0088 92.2577 46.0538 92.2127 46.0538 92.1227V91.4747C46.0538 90.7727 45.8468 90.2327 45.4328 89.8547C45.0188 89.4587 44.3978 89.2607 43.5698 89.2607C42.8858 89.2607 42.3278 89.3867 41.8958 89.6387C41.4818 89.8727 41.2208 90.2057 41.1128 90.6377C41.0588 90.8537 40.9328 90.9437 40.7348 90.9077L38.1158 90.5837C38.0258 90.5657 37.9448 90.5387 37.8728 90.5027C37.8188 90.4487 37.8008 90.3857 37.8188 90.3137C37.9628 89.2157 38.5478 88.3157 39.5738 87.6137C40.6178 86.9117 41.9228 86.5607 43.4888 86.5607ZM42.8408 98.3057C43.7228 98.3057 44.4788 98.0717 45.1088 97.6037C45.7388 97.1357 46.0538 96.5417 46.0538 95.8217V94.5527C46.0538 94.4627 46.0088 94.4177 45.9188 94.4177H43.6508C42.6968 94.4177 41.9408 94.5977 41.3828 94.9577C40.8428 95.3177 40.5728 95.8307 40.5728 96.4967C40.5728 97.0727 40.7798 97.5227 41.1938 97.8467C41.6258 98.1527 42.1748 98.3057 42.8408 98.3057ZM60.8893 81.9977C60.8893 81.9077 60.9163 81.8357 60.9703 81.7817C61.0423 81.7097 61.1233 81.6737 61.2133 81.6737H63.6973C63.7873 81.6737 63.8593 81.7097 63.9133 81.7817C63.9853 81.8357 64.0213 81.9077 64.0213 81.9977V100.25C64.0213 100.34 63.9853 100.421 63.9133 100.493C63.8593 100.547 63.7873 100.574 63.6973 100.574H61.2133C61.1233 100.574 61.0423 100.547 60.9703 100.493C60.9163 100.421 60.8893 100.34 60.8893 100.25V99.4397C60.8893 99.3857 60.8713 99.3497 60.8353 99.3317C60.7993 99.3137 60.7633 99.3317 60.7273 99.3857C59.9353 100.322 58.9003 100.79 57.6223 100.79C56.3443 100.79 55.2643 100.457 54.3823 99.7907C53.5003 99.1247 52.8613 98.1977 52.4653 97.0097C52.1413 96.0017 51.9793 94.8767 51.9793 93.6347C51.9793 92.3567 52.1323 91.2587 52.4382 90.3407C52.8343 89.1527 53.4733 88.2257 54.3553 87.5597C55.2373 86.8937 56.3443 86.5607 57.6763 86.5607C58.9183 86.5607 59.9353 87.0107 60.7273 87.9107C60.7633 87.9467 60.7993 87.9647 60.8353 87.9647C60.8713 87.9467 60.8893 87.9107 60.8893 87.8567V81.9977ZM60.2413 96.7937C60.6553 96.0557 60.8623 95.0117 60.8623 93.6617C60.8623 92.2577 60.6373 91.1867 60.1873 90.4487C59.7013 89.6567 59.0173 89.2607 58.1353 89.2607C57.2173 89.2607 56.4973 89.6387 55.9753 90.3947C55.4353 91.1867 55.1653 92.2847 55.1653 93.6887C55.1653 94.9487 55.3813 95.9837 55.8133 96.7937C56.3173 97.6577 57.0823 98.0897 58.1083 98.0897C59.0263 98.0897 59.7373 97.6577 60.2413 96.7937ZM75.9713 81.9977C75.9713 81.9077 75.9983 81.8357 76.0523 81.7817C76.1243 81.7097 76.2053 81.6737 76.2953 81.6737H78.7793C78.8693 81.6737 78.9413 81.7097 78.9953 81.7817C79.0673 81.8357 79.1033 81.9077 79.1033 81.9977V100.25C79.1033 100.34 79.0673 100.421 78.9953 100.493C78.9413 100.547 78.8693 100.574 78.7793 100.574H76.2953C76.2053 100.574 76.1243 100.547 76.0523 100.493C75.9983 100.421 75.9713 100.34 75.9713 100.25V99.4397C75.9713 99.3857 75.9533 99.3497 75.9173 99.3317C75.8813 99.3137 75.8453 99.3317 75.8093 99.3857C75.0173 100.322 73.9823 100.79 72.7043 100.79C71.4263 100.79 70.3463 100.457 69.4643 99.7907C68.5823 99.1247 67.9433 98.1977 67.5473 97.0097C67.2233 96.0017 67.0613 94.8767 67.0613 93.6347C67.0613 92.3567 67.2143 91.2587 67.5203 90.3407C67.9163 89.1527 68.5553 88.2257 69.4373 87.5597C70.3193 86.8937 71.4263 86.5607 72.7583 86.5607C74.0003 86.5607 75.0173 87.0107 75.8093 87.9107C75.8453 87.9467 75.8813 87.9647 75.9173 87.9647C75.9533 87.9467 75.9713 87.9107 75.9713 87.8567V81.9977ZM75.3233 96.7937C75.7373 96.0557 75.9443 95.0117 75.9443 93.6617C75.9443 92.2577 75.7193 91.1867 75.2693 90.4487C74.7833 89.6567 74.0993 89.2607 73.2173 89.2607C72.2993 89.2607 71.5793 89.6387 71.0573 90.3947C70.5173 91.1867 70.2473 92.2847 70.2473 93.6887C70.2473 94.9487 70.4633 95.9837 70.8953 96.7937C71.3993 97.6577 72.1643 98.0897 73.1903 98.0897C74.1083 98.0897 74.8193 97.6577 75.3233 96.7937ZM94.1313 92.1227C94.2033 92.5727 94.2393 93.0767 94.2393 93.6347L94.2123 94.4717C94.2123 94.6877 94.1043 94.7957 93.8883 94.7957H85.4373C85.3473 94.7957 85.3023 94.8407 85.3023 94.9307C85.3563 95.5247 85.4373 95.9297 85.5453 96.1457C85.9773 97.4417 87.0303 98.0987 88.7043 98.1167C89.9283 98.1167 90.9003 97.6127 91.6203 96.6047C91.6923 96.4967 91.7823 96.4427 91.8903 96.4427C91.9623 96.4427 92.0253 96.4697 92.0793 96.5237L93.7533 97.9007C93.9153 98.0267 93.9423 98.1707 93.8343 98.3327C93.2763 99.1247 92.5293 99.7367 91.5933 100.169C90.6753 100.601 89.6493 100.817 88.5153 100.817C87.1113 100.817 85.9143 100.502 84.9243 99.8717C83.9523 99.2417 83.2413 98.3597 82.7913 97.2257C82.3773 96.2537 82.1703 94.9037 82.1703 93.1757C82.1703 92.1317 82.2783 91.2857 82.4943 90.6377C82.8543 89.3777 83.5293 88.3877 84.5193 87.6677C85.5273 86.9297 86.7333 86.5607 88.1373 86.5607C91.6833 86.5607 93.6813 88.4147 94.1313 92.1227ZM88.1373 89.2607C87.4713 89.2607 86.9133 89.4317 86.4633 89.7737C86.0313 90.0977 85.7253 90.5567 85.5453 91.1507C85.4373 91.4567 85.3653 91.8527 85.3293 92.3387C85.2933 92.4287 85.3293 92.4737 85.4373 92.4737H90.9183C91.0083 92.4737 91.0533 92.4287 91.0533 92.3387C91.0173 91.8887 90.9633 91.5467 90.8913 91.3127C90.7293 90.6647 90.4053 90.1607 89.9193 89.8007C89.4513 89.4407 88.8573 89.2607 88.1373 89.2607ZM105.661 81.9977C105.661 81.9077 105.688 81.8357 105.742 81.7817C105.814 81.7097 105.895 81.6737 105.985 81.6737H108.469C108.559 81.6737 108.631 81.7097 108.685 81.7817C108.757 81.8357 108.793 81.9077 108.793 81.9977V100.25C108.793 100.34 108.757 100.421 108.685 100.493C108.631 100.547 108.559 100.574 108.469 100.574H105.985C105.895 100.574 105.814 100.547 105.742 100.493C105.688 100.421 105.661 100.34 105.661 100.25V99.4397C105.661 99.3857 105.643 99.3497 105.607 99.3317C105.571 99.3137 105.535 99.3317 105.499 99.3857C104.707 100.322 103.672 100.79 102.394 100.79C101.116 100.79 100.036 100.457 99.1537 99.7907C98.2717 99.1247 97.6327 98.1977 97.2367 97.0097C96.9127 96.0017 96.7507 94.8767 96.7507 93.6347C96.7507 92.3567 96.9037 91.2587 97.2097 90.3407C97.6057 89.1527 98.2447 88.2257 99.1267 87.5597C100.009 86.8937 101.116 86.5607 102.448 86.5607C103.69 86.5607 104.707 87.0107 105.499 87.9107C105.535 87.9467 105.571 87.9647 105.607 87.9647C105.643 87.9467 105.661 87.9107 105.661 87.8567V81.9977ZM105.013 96.7937C105.427 96.0557 105.634 95.0117 105.634 93.6617C105.634 92.2577 105.409 91.1867 104.959 90.4487C104.473 89.6567 103.789 89.2607 102.907 89.2607C101.989 89.2607 101.269 89.6387 100.747 90.3947C100.207 91.1867 99.9367 92.2847 99.9367 93.6887C99.9367 94.9487 100.153 95.9837 100.585 96.7937C101.089 97.6577 101.854 98.0897 102.88 98.0897C103.798 98.0897 104.509 97.6577 105.013 96.7937Z" fill="white"/>
</g>
<rect x="2.55957" y="2.68018" width="141.94" height="145.787" rx="5.5" stroke="white" stroke-width="5"/>
<defs>
<clipPath id="clip0_3991_47593">
<rect x="0.0595703" y="0.180176" width="146.94" height="150.787" rx="8" fill="white"/>
</clipPath>
</defs>
</svg>
