<svg width="148" height="152" viewBox="0 0 148 152" fill="none" xmlns="http://www.w3.org/2000/svg">
<rect width="148" height="152" fill="#4D4D4D"/>
<rect x="-750.5" y="-3506.5" width="1116" height="5439" rx="4.5" fill="#DCDCDC"/>
<rect width="1077" height="704" transform="translate(-735 -355)" fill="white"/>
<g opacity="0.2">
<rect x="0.911133" y="0.762695" width="146.94" height="150.787" rx="8" fill="#253B80"/>
<g clip-path="url(#clip0_1780_31329)">
<path d="M59.6732 116.168L61.1725 106.695L57.8327 106.618H41.8848L52.9678 36.7227C53.0022 36.5117 53.114 36.3149 53.2774 36.1752C53.4408 36.0355 53.6501 35.9585 53.8679 35.9585H80.7584C89.6856 35.9585 95.8463 37.8062 99.0628 41.4531C100.571 43.1639 101.531 44.9517 101.996 46.9192C102.483 48.9836 102.491 51.45 102.016 54.4582L101.981 54.6778V56.6053L103.489 57.455C104.759 58.1251 105.768 58.8921 106.542 59.7703C107.832 61.2331 108.667 63.0922 109.019 65.2963C109.383 67.5631 109.263 70.2605 108.667 73.3143C107.979 76.8272 106.866 79.8868 105.364 82.3903C103.982 84.697 102.222 86.6103 100.132 88.093C98.1368 89.5016 95.766 90.5709 93.0856 91.2552C90.4883 91.9281 87.5269 92.2674 84.2788 92.2674H82.186C80.6896 92.2674 79.2361 92.8035 78.0951 93.7644C76.9513 94.7453 76.1945 96.0854 75.9623 97.551L75.8046 98.4036L73.1557 115.098L73.0353 115.711C73.0037 115.905 72.9493 116.002 72.869 116.068C72.7973 116.128 72.6941 116.168 72.5938 116.168H59.6732Z" fill="#253B80"/>
<path d="M104.926 54.8994C104.846 55.4098 104.754 55.9316 104.651 56.4677C101.104 74.5767 88.9722 80.8327 73.4772 80.8327H65.5878C63.6928 80.8327 62.096 82.2013 61.8008 84.0604L57.7615 109.54L56.6176 116.763C56.4255 117.983 57.3716 119.084 58.61 119.084H72.6028C74.2598 119.084 75.6674 117.886 75.9283 116.261L76.0659 115.554L78.7005 98.9246L78.8696 98.0122C79.1276 96.3812 80.5381 95.1836 82.1951 95.1836H84.2878C97.8449 95.1836 108.458 89.709 111.56 73.8668C112.855 67.2487 112.185 61.7227 108.756 57.8363C107.718 56.6644 106.431 55.6921 104.926 54.8994Z" fill="#179BD7"/>
<path d="M101.217 53.4291C100.675 53.2723 100.116 53.1297 99.543 53.0014C98.9668 52.8759 98.3762 52.7647 97.7685 52.6678C95.6413 52.3256 93.3106 52.1631 90.8136 52.1631H69.737C69.2181 52.1631 68.725 52.28 68.2836 52.491C67.3117 52.9558 66.5893 53.8711 66.4144 54.9916L61.9308 83.2374L61.8018 84.0614C62.097 82.2023 63.6938 80.8336 65.5888 80.8336H73.4782C88.9732 80.8336 101.105 74.5749 104.652 56.4687C104.758 55.9326 104.847 55.4108 104.927 54.9004C104.03 54.4271 103.058 54.0222 102.011 53.6772C101.753 53.5916 101.487 53.5089 101.217 53.4291Z" fill="#222D65"/>
<path d="M66.406 54.9908C66.5808 53.8702 67.3033 52.9549 68.2751 52.493C68.7195 52.282 69.2097 52.1651 69.7286 52.1651H90.8052C93.3022 52.1651 95.6329 52.3276 97.76 52.6698C98.3678 52.7667 98.9583 52.8779 99.5345 53.0034C100.108 53.1317 100.667 53.2743 101.209 53.4311C101.478 53.5109 101.745 53.5936 102.006 53.6763C103.052 54.0213 104.024 54.4291 104.921 54.8996C105.976 48.2074 104.913 43.6509 101.275 39.525C97.2641 34.9827 90.0254 33.0381 80.7628 33.0381H53.8724C51.9803 33.0381 50.3663 34.4067 50.0739 36.2687L38.8734 106.883C38.6526 108.28 39.7363 109.54 41.1525 109.54H57.754L61.9223 83.2365L66.406 54.9908Z" fill="white"/>
</g>
</g>
<rect x="-750.5" y="-3506.5" width="1116" height="5439" rx="4.5" stroke="#9747FF" stroke-dasharray="10 5"/>
<defs>
<clipPath id="clip0_1780_31329">
<rect width="77.0449" height="91.9568" fill="white" transform="translate(35.8594 30.1777)"/>
</clipPath>
</defs>
</svg>
