<svg width="235" height="240" viewBox="0 0 235 240" fill="none" xmlns="http://www.w3.org/2000/svg">
<rect width="235" height="240" fill="#4D4D4D"/>
<rect x="-533.915" y="-437.5" width="785" height="693" rx="4.5" fill="white"/>
<g filter="url(#filter0_d_1780_31329)">
<g clip-path="url(#clip0_1780_31329)">
<rect x="-175.196" y="20.6418" width="146.94" height="150.787" rx="8" fill="#0D7CFF"/>
</g>
<rect x="-172.696" y="23.1418" width="141.94" height="145.787" rx="5.5" stroke="white" stroke-width="5"/>
</g>
<g filter="url(#filter1_d_1780_31329)">
<g clip-path="url(#clip1_1780_31329)">
<rect x="44.0596" y="24.822" width="146.94" height="150.787" rx="8" fill="#253B80"/>
<g opacity="0.2">
<path d="M102.822 140.049L104.321 130.577L100.981 130.5H85.0332L96.1162 60.604C96.1506 60.393 96.2624 60.1963 96.4258 60.0565C96.5892 59.9168 96.7985 59.8398 97.0164 59.8398H123.907C132.834 59.8398 138.995 61.6875 142.211 65.3344C143.719 67.0453 144.68 68.8331 145.144 70.8005C145.631 72.8649 145.64 75.3314 145.164 78.3396L145.13 78.5591V80.4866L146.638 81.3363C147.908 82.0064 148.917 82.7734 149.691 83.6517C150.981 85.1144 151.815 86.9735 152.168 89.1776C152.532 91.4445 152.411 94.1419 151.815 97.1957C151.127 100.709 150.015 103.768 148.512 106.272C147.131 108.578 145.37 110.492 143.281 111.974C141.285 113.383 138.914 114.452 136.234 115.137C133.637 115.809 130.675 116.149 127.427 116.149H125.334C123.838 116.149 122.385 116.685 121.244 117.646C120.1 118.627 119.343 119.967 119.111 121.432L118.953 122.285L116.304 138.98L116.184 139.593C116.152 139.787 116.098 139.884 116.017 139.949C115.946 140.009 115.843 140.049 115.742 140.049H102.822Z" fill="#253B80"/>
<path d="M148.074 78.7808C147.994 79.2912 147.902 79.813 147.799 80.349C144.253 98.4581 132.121 104.714 116.626 104.714H108.736C106.841 104.714 105.244 106.083 104.949 107.942L100.91 133.422L99.7661 140.644C99.574 141.865 100.52 142.965 101.758 142.965H115.751C117.408 142.965 118.816 141.768 119.077 140.142L119.214 139.435L121.849 122.806L122.018 121.894C122.276 120.263 123.687 119.065 125.344 119.065H127.436C140.993 119.065 151.606 113.59 154.708 97.7481C156.004 91.1301 155.333 85.6041 151.904 81.7177C150.867 80.5458 149.579 79.5734 148.074 78.7808Z" fill="#179BD7"/>
<path d="M144.366 77.3104C143.824 77.1536 143.265 77.011 142.691 76.8827C142.115 76.7573 141.525 76.6461 140.917 76.5491C138.79 76.207 136.459 76.0444 133.962 76.0444H112.885C112.367 76.0444 111.873 76.1613 111.432 76.3723C110.46 76.8371 109.738 77.7524 109.563 78.873L105.079 107.119L104.95 107.943C105.245 106.084 106.842 104.715 108.737 104.715H116.627C132.122 104.715 144.254 98.4562 147.8 80.35C147.906 79.8139 147.995 79.2921 148.075 78.7818C147.178 78.3084 146.206 77.9035 145.16 77.5585C144.902 77.473 144.635 77.3903 144.366 77.3104Z" fill="#222D65"/>
<path d="M109.554 78.8719C109.729 77.7513 110.452 76.836 111.424 76.3741C111.868 76.1631 112.358 76.0462 112.877 76.0462H133.954C136.451 76.0462 138.781 76.2087 140.908 76.5509C141.516 76.6478 142.107 76.759 142.683 76.8845C143.256 77.0128 143.815 77.1554 144.357 77.3122C144.627 77.392 144.893 77.4747 145.154 77.5574C146.201 77.9024 147.172 78.3102 148.07 78.7807C149.125 72.0885 148.061 67.532 144.423 63.4061C140.412 58.8638 133.174 56.9192 123.911 56.9192H97.0208C95.1287 56.9192 93.5147 58.2878 93.2223 60.1498L82.0218 130.764C81.8011 132.161 82.8847 133.422 84.3009 133.422H100.902L105.071 107.118L109.554 78.8719Z" fill="white"/>
</g>
<rect x="151.662" y="217.537" width="386.073" height="102.988" transform="rotate(-50.9604 151.662 217.537)" fill="white" fill-opacity="0.17"/>
<path d="M92.0961 85.9823C92.4201 86.9723 92.5821 88.0973 92.5821 89.3573C92.5821 90.6353 92.4291 91.7333 92.1231 92.6513C91.7271 93.8393 91.0881 94.7663 90.2061 95.4323C89.3241 96.0983 88.2261 96.4313 86.9121 96.4313C85.6521 96.4313 84.6261 95.9903 83.8341 95.1083C83.7981 95.0543 83.7531 95.0363 83.6991 95.0543C83.6631 95.0543 83.6451 95.0903 83.6451 95.1623V100.886C83.6451 101.174 83.5011 101.318 83.2131 101.318H80.9451C80.6571 101.318 80.5131 101.174 80.5131 100.886V82.8503C80.5131 82.5623 80.6571 82.4183 80.9451 82.4183H83.2131C83.5011 82.4183 83.6451 82.5623 83.6451 82.8503V83.5523C83.6451 83.6243 83.6631 83.6693 83.6991 83.6873C83.7531 83.7053 83.7981 83.6783 83.8341 83.6063C84.6081 82.6703 85.6341 82.2023 86.9121 82.2023C88.1721 82.2023 89.2521 82.5443 90.1521 83.2283C91.0521 83.8943 91.7001 84.8123 92.0961 85.9823ZM88.5591 92.5973C89.0811 91.8053 89.3421 90.7073 89.3421 89.3033C89.3421 88.0073 89.1261 86.9813 88.6941 86.2253C88.2261 85.3613 87.4701 84.9293 86.4261 84.9293C85.5261 84.9293 84.8241 85.3523 84.3201 86.1983C83.9061 86.9003 83.6991 87.9443 83.6991 89.3303C83.6991 90.7343 83.9241 91.8053 84.3741 92.5433C84.8601 93.3353 85.5351 93.7313 86.3991 93.7313C87.3351 93.7313 88.0551 93.3533 88.5591 92.5973ZM100.62 82.2023C101.754 82.2023 102.753 82.4003 103.617 82.7963C104.499 83.1923 105.174 83.7413 105.642 84.4433C106.11 85.1273 106.344 85.9103 106.344 86.7923V95.7833C106.344 96.0713 106.2 96.2153 105.912 96.2153H103.644C103.356 96.2153 103.212 96.0713 103.212 95.7833V95.1083C103.212 95.0363 103.194 95.0003 103.158 95.0003C103.122 94.9823 103.077 94.9913 103.023 95.0273C102.051 95.9633 100.755 96.4313 99.1347 96.4313C97.8027 96.4313 96.7047 96.0893 95.8407 95.4053C94.9947 94.7213 94.5717 93.7043 94.5717 92.3543C94.5717 90.9503 95.0577 89.8613 96.0297 89.0873C97.0197 88.2953 98.4057 87.8993 100.188 87.8993H103.05C103.158 87.8993 103.212 87.8453 103.212 87.7373V87.1163C103.212 86.4143 102.996 85.8743 102.564 85.4963C102.15 85.1003 101.529 84.9023 100.701 84.9023C100.071 84.9023 99.5487 85.0193 99.1347 85.2533C98.7207 85.4693 98.4417 85.7753 98.2977 86.1713C98.2257 86.4233 98.0637 86.5403 97.8117 86.5223L95.3817 86.2253C95.2377 86.2073 95.1297 86.1713 95.0577 86.1173C94.9857 86.0453 94.9587 85.9643 94.9767 85.8743C95.1387 84.7943 95.7327 83.9123 96.7587 83.2283C97.8027 82.5443 99.0897 82.2023 100.62 82.2023ZM99.9987 93.9473C100.881 93.9473 101.637 93.7133 102.267 93.2453C102.897 92.7773 103.212 92.1833 103.212 91.4633V90.2213C103.212 90.1133 103.158 90.0593 103.05 90.0593H100.809C99.8547 90.0593 99.0987 90.2393 98.5407 90.5993C97.9827 90.9593 97.7037 91.4723 97.7037 92.1383C97.7037 92.7143 97.9197 93.1643 98.3517 93.4883C98.7837 93.7943 99.3327 93.9473 99.9987 93.9473ZM108.901 101.588C108.775 101.588 108.712 101.444 108.712 101.156V99.4283C108.712 99.1403 108.775 98.9963 108.901 98.9963H109.063C109.801 98.9963 110.377 98.9243 110.791 98.7803C111.205 98.6543 111.538 98.4023 111.79 98.0243C112.06 97.6463 112.303 97.0793 112.519 96.3233C112.555 96.2333 112.555 96.1613 112.519 96.1073L108.118 82.9043C108.1 82.8503 108.091 82.7873 108.091 82.7153C108.091 82.5173 108.217 82.4183 108.469 82.4183H110.899C111.151 82.4183 111.313 82.5353 111.385 82.7693L114.031 91.7063C114.067 91.7783 114.103 91.8143 114.139 91.8143C114.193 91.8143 114.229 91.7783 114.247 91.7063L116.812 82.7693C116.884 82.5353 117.046 82.4183 117.298 82.4183H119.728C119.89 82.4183 119.998 82.4633 120.052 82.5533C120.124 82.6253 120.133 82.7423 120.079 82.9043L115.354 96.9713C114.904 98.2493 114.463 99.2033 114.031 99.8333C113.599 100.463 113.005 100.913 112.249 101.183C111.511 101.453 110.458 101.588 109.09 101.588H108.901ZM134.099 85.9823C134.423 86.9723 134.585 88.0973 134.585 89.3573C134.585 90.6353 134.432 91.7333 134.126 92.6513C133.73 93.8393 133.091 94.7663 132.209 95.4323C131.327 96.0983 130.229 96.4313 128.915 96.4313C127.655 96.4313 126.629 95.9903 125.837 95.1083C125.801 95.0543 125.756 95.0363 125.702 95.0543C125.666 95.0543 125.648 95.0903 125.648 95.1623V100.886C125.648 101.174 125.504 101.318 125.216 101.318H122.948C122.66 101.318 122.516 101.174 122.516 100.886V82.8503C122.516 82.5623 122.66 82.4183 122.948 82.4183H125.216C125.504 82.4183 125.648 82.5623 125.648 82.8503V83.5523C125.648 83.6243 125.666 83.6693 125.702 83.6873C125.756 83.7053 125.801 83.6783 125.837 83.6063C126.611 82.6703 127.637 82.2023 128.915 82.2023C130.175 82.2023 131.255 82.5443 132.155 83.2283C133.055 83.8943 133.703 84.8123 134.099 85.9823ZM130.562 92.5973C131.084 91.8053 131.345 90.7073 131.345 89.3033C131.345 88.0073 131.129 86.9813 130.697 86.2253C130.229 85.3613 129.473 84.9293 128.429 84.9293C127.529 84.9293 126.827 85.3523 126.323 86.1983C125.909 86.9003 125.702 87.9443 125.702 89.3303C125.702 90.7343 125.927 91.8053 126.377 92.5433C126.863 93.3353 127.538 93.7313 128.402 93.7313C129.338 93.7313 130.058 93.3533 130.562 92.5973ZM142.623 82.2023C143.757 82.2023 144.756 82.4003 145.62 82.7963C146.502 83.1923 147.177 83.7413 147.645 84.4433C148.113 85.1273 148.347 85.9103 148.347 86.7923V95.7833C148.347 96.0713 148.203 96.2153 147.915 96.2153H145.647C145.359 96.2153 145.215 96.0713 145.215 95.7833V95.1083C145.215 95.0363 145.197 95.0003 145.161 95.0003C145.125 94.9823 145.08 94.9913 145.026 95.0273C144.054 95.9633 142.758 96.4313 141.138 96.4313C139.806 96.4313 138.708 96.0893 137.844 95.4053C136.998 94.7213 136.575 93.7043 136.575 92.3543C136.575 90.9503 137.061 89.8613 138.033 89.0873C139.023 88.2953 140.409 87.8993 142.191 87.8993H145.053C145.161 87.8993 145.215 87.8453 145.215 87.7373V87.1163C145.215 86.4143 144.999 85.8743 144.567 85.4963C144.153 85.1003 143.532 84.9023 142.704 84.9023C142.074 84.9023 141.552 85.0193 141.138 85.2533C140.724 85.4693 140.445 85.7753 140.301 86.1713C140.229 86.4233 140.067 86.5403 139.815 86.5223L137.385 86.2253C137.241 86.2073 137.133 86.1713 137.061 86.1173C136.989 86.0453 136.962 85.9643 136.98 85.8743C137.142 84.7943 137.736 83.9123 138.762 83.2283C139.806 82.5443 141.093 82.2023 142.623 82.2023ZM142.002 93.9473C142.884 93.9473 143.64 93.7133 144.27 93.2453C144.9 92.7773 145.215 92.1833 145.215 91.4633V90.2213C145.215 90.1133 145.161 90.0593 145.053 90.0593H142.812C141.858 90.0593 141.102 90.2393 140.544 90.5993C139.986 90.9593 139.707 91.4723 139.707 92.1383C139.707 92.7143 139.923 93.1643 140.355 93.4883C140.787 93.7943 141.336 93.9473 142.002 93.9473ZM151.923 96.2153C151.635 96.2153 151.491 96.0713 151.491 95.7833V77.7473C151.491 77.4593 151.635 77.3153 151.923 77.3153H154.191C154.479 77.3153 154.623 77.4593 154.623 77.7473V95.7833C154.623 96.0713 154.479 96.2153 154.191 96.2153H151.923ZM87.792 111.202C88.926 111.202 89.925 111.4 90.789 111.796C91.671 112.192 92.346 112.741 92.814 113.443C93.282 114.127 93.516 114.91 93.516 115.792V124.783C93.516 125.071 93.372 125.215 93.084 125.215H90.816C90.528 125.215 90.384 125.071 90.384 124.783V124.108C90.384 124.036 90.366 124 90.33 124C90.294 123.982 90.249 123.991 90.195 124.027C89.223 124.963 87.927 125.431 86.307 125.431C84.975 125.431 83.877 125.089 83.013 124.405C82.167 123.721 81.744 122.704 81.744 121.354C81.744 119.95 82.23 118.861 83.202 118.087C84.192 117.295 85.578 116.899 87.36 116.899H90.222C90.33 116.899 90.384 116.845 90.384 116.737V116.116C90.384 115.414 90.168 114.874 89.736 114.496C89.322 114.1 88.701 113.902 87.873 113.902C87.243 113.902 86.721 114.019 86.307 114.253C85.893 114.469 85.614 114.775 85.47 115.171C85.398 115.423 85.236 115.54 84.984 115.522L82.554 115.225C82.41 115.207 82.302 115.171 82.23 115.117C82.158 115.045 82.131 114.964 82.149 114.874C82.311 113.794 82.905 112.912 83.931 112.228C84.975 111.544 86.262 111.202 87.792 111.202ZM87.171 122.947C88.053 122.947 88.809 122.713 89.439 122.245C90.069 121.777 90.384 121.183 90.384 120.463V119.221C90.384 119.113 90.33 119.059 90.222 119.059H87.981C87.027 119.059 86.271 119.239 85.713 119.599C85.155 119.959 84.876 120.472 84.876 121.138C84.876 121.714 85.092 122.164 85.524 122.488C85.956 122.794 86.505 122.947 87.171 122.947ZM105.003 106.747C105.003 106.459 105.147 106.315 105.435 106.315H107.703C107.991 106.315 108.135 106.459 108.135 106.747V124.783C108.135 125.071 107.991 125.215 107.703 125.215H105.435C105.147 125.215 105.003 125.071 105.003 124.783V124.081C105.003 124.009 104.976 123.964 104.922 123.946C104.886 123.928 104.85 123.955 104.814 124.027C104.04 124.963 103.014 125.431 101.736 125.431C100.476 125.431 99.3965 125.098 98.4965 124.432C97.5965 123.748 96.9485 122.821 96.5525 121.651C96.2285 120.643 96.0665 119.518 96.0665 118.276C96.0665 116.998 96.2195 115.9 96.5255 114.982C96.9215 113.794 97.5605 112.867 98.4425 112.201C99.3245 111.535 100.422 111.202 101.736 111.202C102.996 111.202 104.022 111.643 104.814 112.525C104.85 112.579 104.886 112.606 104.922 112.606C104.976 112.588 105.003 112.543 105.003 112.471V106.747ZM104.328 121.435C104.742 120.733 104.949 119.689 104.949 118.303C104.949 116.899 104.724 115.828 104.274 115.09C103.788 114.298 103.113 113.902 102.249 113.902C101.313 113.902 100.593 114.28 100.089 115.036C99.5675 115.828 99.3065 116.926 99.3065 118.33C99.3065 119.626 99.5225 120.652 99.9545 121.408C100.422 122.272 101.178 122.704 102.222 122.704C103.122 122.704 103.824 122.281 104.328 121.435ZM119.875 106.747C119.875 106.459 120.019 106.315 120.307 106.315H122.575C122.863 106.315 123.007 106.459 123.007 106.747V124.783C123.007 125.071 122.863 125.215 122.575 125.215H120.307C120.019 125.215 119.875 125.071 119.875 124.783V124.081C119.875 124.009 119.848 123.964 119.794 123.946C119.758 123.928 119.722 123.955 119.686 124.027C118.912 124.963 117.886 125.431 116.608 125.431C115.348 125.431 114.268 125.098 113.368 124.432C112.468 123.748 111.82 122.821 111.424 121.651C111.1 120.643 110.938 119.518 110.938 118.276C110.938 116.998 111.091 115.9 111.397 114.982C111.793 113.794 112.432 112.867 113.314 112.201C114.196 111.535 115.294 111.202 116.608 111.202C117.868 111.202 118.894 111.643 119.686 112.525C119.722 112.579 119.758 112.606 119.794 112.606C119.848 112.588 119.875 112.543 119.875 112.471V106.747ZM119.2 121.435C119.614 120.733 119.821 119.689 119.821 118.303C119.821 116.899 119.596 115.828 119.146 115.09C118.66 114.298 117.985 113.902 117.121 113.902C116.185 113.902 115.465 114.28 114.961 115.036C114.439 115.828 114.178 116.926 114.178 118.33C114.178 119.626 114.394 120.652 114.826 121.408C115.294 122.272 116.05 122.704 117.094 122.704C117.994 122.704 118.696 122.281 119.2 121.435ZM132.559 122.785C133.225 122.767 133.801 122.632 134.287 122.38C134.791 122.11 135.196 121.75 135.502 121.3C135.592 121.156 135.709 121.084 135.853 121.084C135.943 121.084 136.024 121.111 136.096 121.165L137.392 122.191C137.518 122.317 137.581 122.434 137.581 122.542C137.581 122.614 137.554 122.695 137.5 122.785C136.978 123.613 136.267 124.261 135.367 124.729C134.467 125.197 133.432 125.431 132.262 125.431C130.84 125.431 129.643 125.098 128.671 124.432C127.717 123.748 127.024 122.803 126.592 121.597C126.232 120.607 126.052 119.491 126.052 118.249C126.052 117.007 126.151 116.053 126.349 115.387C126.691 114.109 127.366 113.092 128.374 112.336C129.382 111.58 130.606 111.202 132.046 111.202C135.412 111.202 137.383 113.047 137.959 116.737C138.049 117.331 138.112 118.069 138.148 118.951C138.148 119.239 138.004 119.383 137.716 119.383H129.346C129.238 119.383 129.184 119.437 129.184 119.545C129.184 120.031 129.238 120.427 129.346 120.733C129.544 121.381 129.922 121.885 130.48 122.245C131.038 122.605 131.731 122.785 132.559 122.785ZM132.019 113.902C131.335 113.902 130.768 114.073 130.318 114.415C129.886 114.739 129.589 115.198 129.427 115.792C129.301 116.152 129.229 116.53 129.211 116.926C129.193 117.034 129.238 117.088 129.346 117.088H134.773C134.881 117.088 134.935 117.034 134.935 116.926C134.863 116.386 134.809 116.062 134.773 115.954C134.611 115.324 134.287 114.829 133.801 114.469C133.333 114.091 132.739 113.902 132.019 113.902ZM149.379 106.747C149.379 106.459 149.523 106.315 149.811 106.315H152.079C152.367 106.315 152.511 106.459 152.511 106.747V124.783C152.511 125.071 152.367 125.215 152.079 125.215H149.811C149.523 125.215 149.379 125.071 149.379 124.783V124.081C149.379 124.009 149.352 123.964 149.298 123.946C149.262 123.928 149.226 123.955 149.19 124.027C148.416 124.963 147.39 125.431 146.112 125.431C144.852 125.431 143.772 125.098 142.872 124.432C141.972 123.748 141.324 122.821 140.928 121.651C140.604 120.643 140.442 119.518 140.442 118.276C140.442 116.998 140.595 115.9 140.901 114.982C141.297 113.794 141.936 112.867 142.818 112.201C143.7 111.535 144.798 111.202 146.112 111.202C147.372 111.202 148.398 111.643 149.19 112.525C149.226 112.579 149.262 112.606 149.298 112.606C149.352 112.588 149.379 112.543 149.379 112.471V106.747ZM148.704 121.435C149.118 120.733 149.325 119.689 149.325 118.303C149.325 116.899 149.1 115.828 148.65 115.09C148.164 114.298 147.489 113.902 146.625 113.902C145.689 113.902 144.969 114.28 144.465 115.036C143.943 115.828 143.682 116.926 143.682 118.33C143.682 119.626 143.898 120.652 144.33 121.408C144.798 122.272 145.554 122.704 146.598 122.704C147.498 122.704 148.2 122.281 148.704 121.435Z" fill="white"/>
</g>
<rect x="46.5596" y="27.322" width="141.94" height="145.787" rx="5.5" stroke="white" stroke-width="5"/>
</g>
<rect x="-533.915" y="-437.5" width="785" height="693" rx="4.5" stroke="#9747FF" stroke-dasharray="10 5"/>
<defs>
<filter id="filter0_d_1780_31329" x="-219.196" y="-3.35815" width="234.94" height="238.787" filterUnits="userSpaceOnUse" color-interpolation-filters="sRGB">
<feFlood flood-opacity="0" result="BackgroundImageFix"/>
<feColorMatrix in="SourceAlpha" type="matrix" values="0 0 0 0 0 0 0 0 0 0 0 0 0 0 0 0 0 0 127 0" result="hardAlpha"/>
<feOffset dy="20"/>
<feGaussianBlur stdDeviation="22"/>
<feComposite in2="hardAlpha" operator="out"/>
<feColorMatrix type="matrix" values="0 0 0 0 0 0 0 0 0 0 0 0 0 0 0 0 0 0 0.35 0"/>
<feBlend mode="normal" in2="BackgroundImageFix" result="effect1_dropShadow_1780_31329"/>
<feBlend mode="normal" in="SourceGraphic" in2="effect1_dropShadow_1780_31329" result="shape"/>
</filter>
<filter id="filter1_d_1780_31329" x="0.0595703" y="0.822021" width="234.94" height="238.787" filterUnits="userSpaceOnUse" color-interpolation-filters="sRGB">
<feFlood flood-opacity="0" result="BackgroundImageFix"/>
<feColorMatrix in="SourceAlpha" type="matrix" values="0 0 0 0 0 0 0 0 0 0 0 0 0 0 0 0 0 0 127 0" result="hardAlpha"/>
<feOffset dy="20"/>
<feGaussianBlur stdDeviation="22"/>
<feComposite in2="hardAlpha" operator="out"/>
<feColorMatrix type="matrix" values="0 0 0 0 0 0 0 0 0 0 0 0 0 0 0 0 0 0 0.35 0"/>
<feBlend mode="normal" in2="BackgroundImageFix" result="effect1_dropShadow_1780_31329"/>
<feBlend mode="normal" in="SourceGraphic" in2="effect1_dropShadow_1780_31329" result="shape"/>
</filter>
<clipPath id="clip0_1780_31329">
<rect x="-175.196" y="20.6418" width="146.94" height="150.787" rx="8" fill="white"/>
</clipPath>
<clipPath id="clip1_1780_31329">
<rect x="44.0596" y="24.822" width="146.94" height="150.787" rx="8" fill="white"/>
</clipPath>
</defs>
</svg>
