<svg width="312" height="87" viewBox="0 0 312 87" fill="none" xmlns="http://www.w3.org/2000/svg">
<rect width="312" height="87" fill="#4D4D4D"/>
<rect width="1077" height="550" transform="translate(-382.5 -302.5)" fill="white"/>
<g filter="url(#filter0_d_1780_31329)">
<rect x="5" y="5.50049" width="302" height="76" rx="3" fill="#F9F9F9"/>
<rect x="5.5" y="6.00049" width="301" height="75" rx="2.5" stroke="#D3D3D3"/>
</g>
<path d="M243.237 57.0278C243.101 57.005 242.952 56.9937 242.793 56.9937C242.201 56.9937 241.799 57.2459 241.587 57.7505V61.5005H240.684V56.2173H241.562L241.577 56.8276C241.873 56.3556 242.293 56.1196 242.837 56.1196C243.013 56.1196 243.146 56.1424 243.237 56.188V57.0278Z" fill="#555555"/>
<path d="M246.167 61.5981C245.451 61.5981 244.868 61.3638 244.419 60.895C243.97 60.423 243.745 59.7931 243.745 59.0054V58.8394C243.745 58.3153 243.844 57.8481 244.043 57.438C244.245 57.0246 244.525 56.7023 244.883 56.4712C245.244 56.2368 245.635 56.1196 246.055 56.1196C246.742 56.1196 247.275 56.3459 247.656 56.7983C248.037 57.2508 248.228 57.8986 248.228 58.7417V59.1177H244.648C244.661 59.6385 244.813 60.0601 245.103 60.3823C245.396 60.7013 245.767 60.8608 246.216 60.8608C246.535 60.8608 246.805 60.7957 247.026 60.6655C247.248 60.5353 247.441 60.3628 247.607 60.1479L248.159 60.5776C247.716 61.258 247.052 61.5981 246.167 61.5981ZM246.055 56.8618C245.69 56.8618 245.384 56.9953 245.137 57.2622C244.889 57.5259 244.736 57.897 244.678 58.3755H247.324V58.3071C247.298 57.8481 247.174 57.4933 246.953 57.2427C246.732 56.9888 246.432 56.8618 246.055 56.8618Z" fill="#555555"/>
<path d="M254.648 59.2446C254.561 59.9966 254.282 60.5776 253.813 60.9878C253.348 61.3947 252.728 61.5981 251.953 61.5981C251.113 61.5981 250.439 61.297 249.932 60.6948C249.427 60.0926 249.175 59.2869 249.175 58.2778V57.5942C249.175 56.9334 249.292 56.3524 249.526 55.8511C249.764 55.3498 250.099 54.9657 250.532 54.6987C250.965 54.4285 251.466 54.2935 252.036 54.2935C252.791 54.2935 253.397 54.505 253.853 54.9282C254.308 55.3481 254.574 55.9308 254.648 56.6763H253.706C253.625 56.1099 253.447 55.6997 253.174 55.4458C252.904 55.1919 252.524 55.0649 252.036 55.0649C251.437 55.0649 250.967 55.2863 250.625 55.729C250.286 56.1717 250.117 56.8016 250.117 57.6187V58.3071C250.117 59.0786 250.278 59.6922 250.601 60.1479C250.923 60.6037 251.374 60.8315 251.953 60.8315C252.474 60.8315 252.873 60.7144 253.149 60.48C253.429 60.2424 253.615 59.8306 253.706 59.2446H254.648Z" fill="#555555"/>
<path d="M259.858 59.645H256.88L256.211 61.5005H255.244L257.959 54.3911H258.779L261.499 61.5005H260.537L259.858 59.645ZM257.163 58.8735H259.58L258.369 55.5483L257.163 58.8735Z" fill="#555555"/>
<path d="M263.394 58.7173V61.5005H262.456V54.3911H265.078C265.856 54.3911 266.465 54.5897 266.904 54.9868C267.347 55.384 267.568 55.9097 267.568 56.564C267.568 57.2541 267.352 57.7863 266.919 58.1606C266.489 58.5317 265.872 58.7173 265.068 58.7173H263.394ZM263.394 57.9507H265.078C265.579 57.9507 265.964 57.8335 266.23 57.5991C266.497 57.3615 266.631 57.0197 266.631 56.5737C266.631 56.1506 266.497 55.812 266.23 55.5581C265.964 55.3042 265.597 55.1724 265.132 55.1626H263.394V57.9507Z" fill="#555555"/>
<path d="M273.677 55.1626H271.392V61.5005H270.459V55.1626H268.179V54.3911H273.677V55.1626Z" fill="#555555"/>
<path d="M279.824 59.2446C279.736 59.9966 279.458 60.5776 278.989 60.9878C278.524 61.3947 277.904 61.5981 277.129 61.5981C276.289 61.5981 275.615 61.297 275.107 60.6948C274.603 60.0926 274.351 59.2869 274.351 58.2778V57.5942C274.351 56.9334 274.468 56.3524 274.702 55.8511C274.94 55.3498 275.275 54.9657 275.708 54.6987C276.141 54.4285 276.642 54.2935 277.212 54.2935C277.967 54.2935 278.573 54.505 279.028 54.9282C279.484 55.3481 279.749 55.9308 279.824 56.6763H278.882C278.8 56.1099 278.623 55.6997 278.35 55.4458C278.079 55.1919 277.7 55.0649 277.212 55.0649C276.613 55.0649 276.143 55.2863 275.801 55.729C275.462 56.1717 275.293 56.8016 275.293 57.6187V58.3071C275.293 59.0786 275.454 59.6922 275.776 60.1479C276.099 60.6037 276.549 60.8315 277.129 60.8315C277.65 60.8315 278.049 60.7144 278.325 60.48C278.605 60.2424 278.791 59.8306 278.882 59.2446H279.824Z" fill="#555555"/>
<path d="M286.572 61.5005H285.63V58.2144H282.046V61.5005H281.108V54.3911H282.046V57.4478H285.63V54.3911H286.572V61.5005Z" fill="#555555"/>
<path d="M292.251 59.645H289.272L288.604 61.5005H287.637L290.352 54.3911H291.172L293.892 61.5005H292.93L292.251 59.645ZM289.556 58.8735H291.973L290.762 55.5483L289.556 58.8735Z" fill="#555555"/>
<path d="M239.75 70.0396V72.2661H239V66.5786H241.098C241.72 66.5786 242.207 66.7375 242.559 67.0552C242.913 67.3729 243.09 67.7935 243.09 68.3169C243.09 68.869 242.917 69.2948 242.57 69.5942C242.227 69.8911 241.733 70.0396 241.09 70.0396H239.75ZM239.75 69.4263H241.098C241.499 69.4263 241.806 69.3325 242.02 69.145C242.233 68.9549 242.34 68.6815 242.34 68.3247C242.34 67.9862 242.233 67.7153 242.02 67.5122C241.806 67.3091 241.513 67.2036 241.141 67.1958H239.75V69.4263Z" fill="#555555"/>
<path d="M245.977 68.688C245.867 68.6698 245.749 68.6606 245.621 68.6606C245.147 68.6606 244.826 68.8625 244.656 69.2661V72.2661H243.934V68.0396H244.637L244.648 68.5278C244.885 68.1502 245.221 67.9614 245.656 67.9614C245.797 67.9614 245.904 67.9797 245.977 68.0161V68.688Z" fill="#555555"/>
<path d="M247.43 72.2661H246.707V68.0396H247.43V72.2661ZM246.648 66.9185C246.648 66.8013 246.684 66.7023 246.754 66.6216C246.827 66.5409 246.934 66.5005 247.074 66.5005C247.215 66.5005 247.322 66.5409 247.395 66.6216C247.467 66.7023 247.504 66.8013 247.504 66.9185C247.504 67.0356 247.467 67.1333 247.395 67.2114C247.322 67.2896 247.215 67.3286 247.074 67.3286C246.934 67.3286 246.827 67.2896 246.754 67.2114C246.684 67.1333 246.648 67.0356 246.648 66.9185Z" fill="#555555"/>
<path d="M249.984 71.2856L251.031 68.0396H251.77L250.254 72.2661H249.703L248.172 68.0396H248.91L249.984 71.2856Z" fill="#555555"/>
<path d="M255.012 72.2661C254.97 72.1828 254.936 72.0343 254.91 71.8208C254.574 72.1698 254.173 72.3442 253.707 72.3442C253.29 72.3442 252.948 72.2271 252.68 71.9927C252.414 71.7557 252.281 71.4562 252.281 71.0942C252.281 70.6541 252.448 70.313 252.781 70.0708C253.117 69.826 253.589 69.7036 254.195 69.7036H254.898V69.3716C254.898 69.119 254.823 68.9185 254.672 68.77C254.521 68.619 254.298 68.5435 254.004 68.5435C253.746 68.5435 253.53 68.6086 253.355 68.7388C253.181 68.869 253.094 69.0265 253.094 69.2114H252.367C252.367 69.0005 252.441 68.7974 252.59 68.6021C252.741 68.4041 252.944 68.2479 253.199 68.1333C253.457 68.0187 253.74 67.9614 254.047 67.9614C254.534 67.9614 254.915 68.0838 255.191 68.3286C255.467 68.5708 255.611 68.9054 255.621 69.3325V71.2778C255.621 71.6659 255.671 71.9744 255.77 72.2036V72.2661H255.012ZM253.812 71.7153C254.039 71.7153 254.254 71.6567 254.457 71.5396C254.66 71.4224 254.807 71.27 254.898 71.0825V70.2153H254.332C253.447 70.2153 253.004 70.4744 253.004 70.9927C253.004 71.2192 253.079 71.3963 253.23 71.5239C253.382 71.6515 253.576 71.7153 253.812 71.7153Z" fill="#555555"/>
<path d="M258.449 71.7544C258.707 71.7544 258.932 71.6763 259.125 71.52C259.318 71.3638 259.424 71.1685 259.445 70.9341H260.129C260.116 71.1763 260.033 71.4067 259.879 71.6255C259.725 71.8442 259.52 72.0187 259.262 72.1489C259.007 72.2791 258.736 72.3442 258.449 72.3442C257.874 72.3442 257.415 72.1528 257.074 71.77C256.736 71.3846 256.566 70.8586 256.566 70.1919V70.0708C256.566 69.6593 256.642 69.2935 256.793 68.9731C256.944 68.6528 257.16 68.4041 257.441 68.2271C257.725 68.05 258.06 67.9614 258.445 67.9614C258.919 67.9614 259.312 68.1034 259.625 68.3872C259.94 68.6711 260.108 69.0396 260.129 69.4927H259.445C259.424 69.2192 259.32 68.9953 259.133 68.8208C258.948 68.6437 258.719 68.5552 258.445 68.5552C258.078 68.5552 257.793 68.688 257.59 68.9536C257.389 69.2166 257.289 69.5981 257.289 70.0981V70.2349C257.289 70.7218 257.389 71.0968 257.59 71.3599C257.79 71.6229 258.077 71.7544 258.449 71.7544Z" fill="#555555"/>
<path d="M262.324 71.2075L263.309 68.0396H264.082L262.383 72.9185C262.12 73.6216 261.702 73.9731 261.129 73.9731L260.992 73.9614L260.723 73.9106V73.3247L260.918 73.3403C261.163 73.3403 261.353 73.2909 261.488 73.1919C261.626 73.0929 261.74 72.9119 261.828 72.6489L261.988 72.2192L260.48 68.0396H261.27L262.324 71.2075Z" fill="#555555"/>
<path d="M276.93 67.1958H275.102V72.2661H274.355V67.1958H272.531V66.5786H276.93V67.1958Z" fill="#555555"/>
<path d="M279.023 72.3442C278.451 72.3442 277.984 72.1567 277.625 71.7817C277.266 71.4041 277.086 70.9002 277.086 70.27V70.1372C277.086 69.7179 277.165 69.3442 277.324 69.0161C277.486 68.6854 277.71 68.4276 277.996 68.2427C278.285 68.0552 278.598 67.9614 278.934 67.9614C279.483 67.9614 279.91 68.1424 280.215 68.5044C280.52 68.8664 280.672 69.3846 280.672 70.0591V70.3599H277.809C277.819 70.7765 277.94 71.1138 278.172 71.3716C278.406 71.6268 278.703 71.7544 279.062 71.7544C279.318 71.7544 279.534 71.7023 279.711 71.5981C279.888 71.494 280.043 71.356 280.176 71.1841L280.617 71.5278C280.263 72.0721 279.732 72.3442 279.023 72.3442ZM278.934 68.5552C278.642 68.5552 278.397 68.6619 278.199 68.8755C278.001 69.0864 277.879 69.3833 277.832 69.7661H279.949V69.7114C279.928 69.3442 279.829 69.0604 279.652 68.8599C279.475 68.6567 279.236 68.5552 278.934 68.5552Z" fill="#555555"/>
<path d="M283.555 68.688C283.445 68.6698 283.327 68.6606 283.199 68.6606C282.725 68.6606 282.404 68.8625 282.234 69.2661V72.2661H281.512V68.0396H282.215L282.227 68.5278C282.464 68.1502 282.799 67.9614 283.234 67.9614C283.375 67.9614 283.482 67.9797 283.555 68.0161V68.688Z" fill="#555555"/>
<path d="M284.902 68.0396L284.922 68.5083C285.232 68.1437 285.65 67.9614 286.176 67.9614C286.767 67.9614 287.169 68.188 287.383 68.6411C287.523 68.438 287.706 68.2739 287.93 68.1489C288.156 68.0239 288.423 67.9614 288.73 67.9614C289.658 67.9614 290.129 68.4523 290.145 69.4341V72.2661H289.422V69.4771C289.422 69.175 289.353 68.9497 289.215 68.8013C289.077 68.6502 288.845 68.5747 288.52 68.5747C288.251 68.5747 288.029 68.6554 287.852 68.8169C287.674 68.9757 287.572 69.1906 287.543 69.4614V72.2661H286.816V69.4966C286.816 68.882 286.516 68.5747 285.914 68.5747C285.44 68.5747 285.116 68.7765 284.941 69.1802V72.2661H284.219V68.0396H284.902Z" fill="#555555"/>
<path d="M293.699 71.145C293.699 70.9497 293.625 70.7987 293.477 70.6919C293.331 70.5825 293.074 70.4888 292.707 70.4106C292.342 70.3325 292.052 70.2388 291.836 70.1294C291.622 70.02 291.464 69.8898 291.359 69.7388C291.258 69.5877 291.207 69.408 291.207 69.1997C291.207 68.8534 291.353 68.5604 291.645 68.3208C291.939 68.0812 292.314 67.9614 292.77 67.9614C293.249 67.9614 293.637 68.0851 293.934 68.3325C294.233 68.5799 294.383 68.8963 294.383 69.2817H293.656C293.656 69.0838 293.572 68.9132 293.402 68.77C293.236 68.6268 293.025 68.5552 292.77 68.5552C292.507 68.5552 292.301 68.6125 292.152 68.7271C292.004 68.8416 291.93 68.9914 291.93 69.1763C291.93 69.3507 291.999 69.4823 292.137 69.5708C292.275 69.6593 292.523 69.744 292.883 69.8247C293.245 69.9054 293.538 70.0018 293.762 70.1138C293.986 70.2257 294.151 70.3612 294.258 70.52C294.367 70.6763 294.422 70.8677 294.422 71.0942C294.422 71.4718 294.271 71.7752 293.969 72.0044C293.667 72.231 293.275 72.3442 292.793 72.3442C292.454 72.3442 292.155 72.2843 291.895 72.1646C291.634 72.0448 291.43 71.8781 291.281 71.6646C291.135 71.4484 291.062 71.2153 291.062 70.9653H291.785C291.798 71.2075 291.895 71.4002 292.074 71.5435C292.257 71.6841 292.496 71.7544 292.793 71.7544C293.066 71.7544 293.285 71.6997 293.449 71.5903C293.616 71.4784 293.699 71.3299 293.699 71.145Z" fill="#555555"/>
<path d="M269.328 70.4653H267.277V69.6997H269.328V70.4653Z" fill="black"/>
<g filter="url(#filter1_d_1780_31329)">
<path d="M278.401 23.8383C278.266 23.6696 278.126 23.5036 277.983 23.3405C275.688 20.7345 272.522 19.0545 269.077 18.6152C265.633 18.1759 262.146 19.0075 259.271 20.9541L263.387 27.0346C264.783 26.0895 266.476 25.6858 268.148 25.899C269.821 26.1123 271.358 26.9279 272.472 28.1932C272.722 28.4768 272.946 28.7786 273.144 29.0952L269.501 32.739H281.61V20.6296L278.401 23.8383Z" fill="#1C3AA9"/>
</g>
<g filter="url(#filter2_d_1780_31329)">
<path d="M267.238 18.501H255.129L258.301 21.6728C255.931 23.5882 254.227 26.2204 253.457 29.1907C252.585 32.5519 252.969 36.1156 254.536 39.2142L261.089 35.9C260.328 34.3956 260.142 32.6655 260.565 31.0336C260.988 29.4017 261.991 27.9801 263.387 27.035C263.442 26.9977 263.498 26.9613 263.554 26.9257L267.238 30.6103V18.501Z" fill="#4285F4"/>
</g>
<g filter="url(#filter3_d_1780_31329)">
<path d="M253 32.8721H265.109L261.451 36.5307C262.227 37.7323 263.359 38.6698 264.698 39.2055C266.263 39.8317 268.003 39.8657 269.592 39.3012C271.18 38.7367 272.509 37.6125 273.328 36.139L278.624 41.4218C276.954 43.6137 274.674 45.2878 272.05 46.2202C268.778 47.3829 265.195 47.3128 261.971 46.023C259.703 45.1157 257.722 43.6487 256.202 41.7798L253 44.9814V32.8721Z" fill="#ABABAB"/>
</g>
<path d="M60.5635 47.5005H59.251V37.5474H60.5635V47.5005Z" fill="black"/>
<path d="M62.8604 40.3501L62.1426 39.8579C62.5664 39.2655 62.7852 38.6411 62.7988 37.9849V37.0005H64.0498V37.8892C64.0452 38.3449 63.9313 38.8006 63.708 39.2563C63.4893 39.7075 63.2067 40.0721 62.8604 40.3501Z" fill="black"/>
<path d="M66.627 40.104L66.6611 40.9243C67.2035 40.2863 67.9349 39.9673 68.8555 39.9673C69.89 39.9673 70.5941 40.3638 70.9678 41.1567C71.2139 40.8013 71.5329 40.5142 71.9248 40.2954C72.3213 40.0767 72.7884 39.9673 73.3262 39.9673C74.9486 39.9673 75.7734 40.8263 75.8008 42.5444V47.5005H74.5361V42.6196C74.5361 42.091 74.4154 41.6968 74.1738 41.437C73.9323 41.1727 73.5267 41.0405 72.957 41.0405C72.4876 41.0405 72.098 41.1818 71.7881 41.4644C71.4782 41.7424 71.2982 42.1183 71.248 42.5923V47.5005H69.9766V42.6538C69.9766 41.5783 69.4502 41.0405 68.3975 41.0405C67.568 41.0405 67.0007 41.3937 66.6953 42.1001V47.5005H65.4307V40.104H66.627Z" fill="black"/>
<path d="M82.3838 40.104L82.4248 41.0337C82.9899 40.3228 83.7282 39.9673 84.6396 39.9673C86.2028 39.9673 86.9912 40.8491 87.0049 42.6128V47.5005H85.7402V42.606C85.7357 42.0728 85.6126 41.6785 85.3711 41.4233C85.1341 41.1681 84.7627 41.0405 84.2568 41.0405C83.8467 41.0405 83.4867 41.1499 83.1768 41.3687C82.8669 41.5874 82.6253 41.8745 82.4521 42.23V47.5005H81.1875V40.104H82.3838Z" fill="black"/>
<path d="M88.5771 43.7339C88.5771 43.0093 88.7184 42.3576 89.001 41.7788C89.2881 41.2 89.6846 40.7534 90.1904 40.439C90.7008 40.1245 91.2819 39.9673 91.9336 39.9673C92.9408 39.9673 93.7542 40.3159 94.374 41.0132C94.9984 41.7104 95.3105 42.6379 95.3105 43.7954V43.8843C95.3105 44.6043 95.1715 45.2515 94.8936 45.8257C94.6201 46.3953 94.2259 46.8397 93.7109 47.1587C93.2005 47.4777 92.6126 47.6372 91.9473 47.6372C90.9447 47.6372 90.1312 47.2886 89.5068 46.5913C88.887 45.894 88.5771 44.9712 88.5771 43.8228V43.7339ZM89.8486 43.8843C89.8486 44.7046 90.0378 45.3631 90.416 45.8599C90.7988 46.3566 91.3092 46.605 91.9473 46.605C92.5898 46.605 93.1003 46.3543 93.4785 45.853C93.8568 45.3472 94.0459 44.6408 94.0459 43.7339C94.0459 42.9227 93.8522 42.2664 93.4648 41.7651C93.082 41.2593 92.5716 41.0063 91.9336 41.0063C91.3092 41.0063 90.8057 41.2547 90.4229 41.7515C90.04 42.2482 89.8486 42.9591 89.8486 43.8843Z" fill="black"/>
<path d="M98.6123 38.313V40.104H99.9932V41.0815H98.6123V45.6685C98.6123 45.9647 98.6738 46.188 98.7969 46.3384C98.9199 46.4842 99.1296 46.5571 99.4258 46.5571C99.5716 46.5571 99.7721 46.5298 100.027 46.4751V47.5005C99.6947 47.5916 99.3711 47.6372 99.0566 47.6372C98.4915 47.6372 98.0654 47.4663 97.7783 47.1245C97.4912 46.7827 97.3477 46.2974 97.3477 45.6685V41.0815H96.001V40.104H97.3477V38.313H98.6123Z" fill="black"/>
<path d="M109.516 47.5005C109.443 47.3547 109.383 47.0949 109.338 46.7212C108.75 47.3319 108.048 47.6372 107.232 47.6372C106.503 47.6372 105.904 47.4321 105.435 47.022C104.97 46.6073 104.737 46.0832 104.737 45.4497C104.737 44.6795 105.029 44.0825 105.612 43.6587C106.2 43.2303 107.025 43.0161 108.087 43.0161H109.317V42.4351C109.317 41.993 109.185 41.6421 108.921 41.3823C108.657 41.118 108.267 40.9858 107.752 40.9858C107.301 40.9858 106.923 41.0998 106.617 41.3276C106.312 41.5555 106.159 41.8312 106.159 42.1548H104.888C104.888 41.7856 105.018 41.4302 105.277 41.0884C105.542 40.742 105.897 40.4686 106.344 40.2681C106.795 40.0675 107.289 39.9673 107.827 39.9673C108.679 39.9673 109.347 40.1815 109.83 40.6099C110.313 41.0337 110.564 41.6193 110.582 42.3667V45.771C110.582 46.45 110.669 46.9901 110.842 47.3911V47.5005H109.516ZM107.417 46.5366C107.813 46.5366 108.189 46.4341 108.545 46.229C108.9 46.0239 109.158 45.7573 109.317 45.4292V43.9116H108.326C106.777 43.9116 106.002 44.3651 106.002 45.272C106.002 45.6685 106.134 45.9784 106.398 46.2017C106.663 46.425 107.002 46.5366 107.417 46.5366Z" fill="black"/>
<path d="M119.612 41.2388C119.421 41.2069 119.214 41.1909 118.99 41.1909C118.161 41.1909 117.598 41.5441 117.302 42.2505V47.5005H116.037V40.104H117.268L117.288 40.9585C117.703 40.2977 118.291 39.9673 119.052 39.9673C119.298 39.9673 119.485 39.9992 119.612 40.063V41.2388Z" fill="black"/>
<path d="M120.31 43.7339C120.31 43.0093 120.451 42.3576 120.733 41.7788C121.021 41.2 121.417 40.7534 121.923 40.439C122.433 40.1245 123.014 39.9673 123.666 39.9673C124.673 39.9673 125.487 40.3159 126.106 41.0132C126.731 41.7104 127.043 42.6379 127.043 43.7954V43.8843C127.043 44.6043 126.904 45.2515 126.626 45.8257C126.353 46.3953 125.958 46.8397 125.443 47.1587C124.933 47.4777 124.345 47.6372 123.68 47.6372C122.677 47.6372 121.864 47.2886 121.239 46.5913C120.619 45.894 120.31 44.9712 120.31 43.8228V43.7339ZM121.581 43.8843C121.581 44.7046 121.77 45.3631 122.148 45.8599C122.531 46.3566 123.042 46.605 123.68 46.605C124.322 46.605 124.833 46.3543 125.211 45.853C125.589 45.3472 125.778 44.6408 125.778 43.7339C125.778 42.9227 125.585 42.2664 125.197 41.7651C124.814 41.2593 124.304 41.0063 123.666 41.0063C123.042 41.0063 122.538 41.2547 122.155 41.7515C121.772 42.2482 121.581 42.9591 121.581 43.8843Z" fill="black"/>
<path d="M134.891 43.8843C134.891 45.0145 134.631 45.9237 134.111 46.6118C133.592 47.2954 132.895 47.6372 132.02 47.6372C131.085 47.6372 130.363 47.3068 129.853 46.646L129.791 47.5005H128.629V37.0005H129.894V40.9175C130.404 40.284 131.108 39.9673 132.006 39.9673C132.904 39.9673 133.608 40.3068 134.118 40.9858C134.633 41.6649 134.891 42.5946 134.891 43.7749V43.8843ZM133.626 43.7407C133.626 42.8794 133.46 42.214 133.127 41.7446C132.794 41.2752 132.316 41.0405 131.691 41.0405C130.857 41.0405 130.258 41.4279 129.894 42.2026V45.4019C130.281 46.1766 130.885 46.564 131.705 46.564C132.311 46.564 132.783 46.3293 133.12 45.8599C133.457 45.3905 133.626 44.6841 133.626 43.7407Z" fill="black"/>
<path d="M136.155 43.7339C136.155 43.0093 136.297 42.3576 136.579 41.7788C136.866 41.2 137.263 40.7534 137.769 40.439C138.279 40.1245 138.86 39.9673 139.512 39.9673C140.519 39.9673 141.332 40.3159 141.952 41.0132C142.576 41.7104 142.889 42.6379 142.889 43.7954V43.8843C142.889 44.6043 142.75 45.2515 142.472 45.8257C142.198 46.3953 141.804 46.8397 141.289 47.1587C140.779 47.4777 140.191 47.6372 139.525 47.6372C138.523 47.6372 137.709 47.2886 137.085 46.5913C136.465 45.894 136.155 44.9712 136.155 43.8228V43.7339ZM137.427 43.8843C137.427 44.7046 137.616 45.3631 137.994 45.8599C138.377 46.3566 138.887 46.605 139.525 46.605C140.168 46.605 140.678 46.3543 141.057 45.853C141.435 45.3472 141.624 44.6408 141.624 43.7339C141.624 42.9227 141.43 42.2664 141.043 41.7651C140.66 41.2593 140.15 41.0063 139.512 41.0063C138.887 41.0063 138.384 41.2547 138.001 41.7515C137.618 42.2482 137.427 42.9591 137.427 43.8843Z" fill="black"/>
<path d="M146.19 38.313V40.104H147.571V41.0815H146.19V45.6685C146.19 45.9647 146.252 46.188 146.375 46.3384C146.498 46.4842 146.708 46.5571 147.004 46.5571C147.15 46.5571 147.35 46.5298 147.605 46.4751V47.5005C147.273 47.5916 146.949 47.6372 146.635 47.6372C146.07 47.6372 145.644 47.4663 145.356 47.1245C145.069 46.7827 144.926 46.2974 144.926 45.6685V41.0815H143.579V40.104H144.926V38.313H146.19Z" fill="black"/>
<path fill-rule="evenodd" clip-rule="evenodd" d="M43.9259 30.5005H20.0741C20.0332 30.5005 20 30.5337 20 30.5746V54.4264C20 54.4673 20.0332 54.5005 20.0741 54.5005H43.9259C43.9668 54.5005 44 54.4673 44 54.4264V30.5746C44 30.5337 43.9668 30.5005 43.9259 30.5005ZM43.9259 28.5005H20.0741C18.9286 28.5005 18 29.4291 18 30.5746V54.4264C18 55.5719 18.9286 56.5005 20.0741 56.5005H43.9259C45.0714 56.5005 46 55.5719 46 54.4264V30.5746C46 29.4291 45.0714 28.5005 43.9259 28.5005Z" fill="#C1C1C1"/>
<rect x="20" y="30.5005" width="24" height="24" fill="white"/>
<rect x="-398" y="-318" width="1108" height="1992" rx="4.5" stroke="#9747FF" stroke-dasharray="10 5"/>
<defs>
<filter id="filter0_d_1780_31329" x="0" y="0.500488" width="312" height="86" filterUnits="userSpaceOnUse" color-interpolation-filters="sRGB">
<feFlood flood-opacity="0" result="BackgroundImageFix"/>
<feColorMatrix in="SourceAlpha" type="matrix" values="0 0 0 0 0 0 0 0 0 0 0 0 0 0 0 0 0 0 127 0" result="hardAlpha"/>
<feMorphology radius="1" operator="dilate" in="SourceAlpha" result="effect1_dropShadow_1780_31329"/>
<feOffset/>
<feGaussianBlur stdDeviation="2"/>
<feColorMatrix type="matrix" values="0 0 0 0 0 0 0 0 0 0 0 0 0 0 0 0 0 0 0.08 0"/>
<feBlend mode="normal" in2="BackgroundImageFix" result="effect1_dropShadow_1780_31329"/>
<feBlend mode="normal" in="SourceGraphic" in2="effect1_dropShadow_1780_31329" result="shape"/>
</filter>
<filter id="filter1_d_1780_31329" x="258.271" y="17.5005" width="24.3391" height="16.2383" filterUnits="userSpaceOnUse" color-interpolation-filters="sRGB">
<feFlood flood-opacity="0" result="BackgroundImageFix"/>
<feColorMatrix in="SourceAlpha" type="matrix" values="0 0 0 0 0 0 0 0 0 0 0 0 0 0 0 0 0 0 127 0" result="hardAlpha"/>
<feOffset/>
<feGaussianBlur stdDeviation="0.5"/>
<feColorMatrix type="matrix" values="0 0 0 0 0 0 0 0 0 0 0 0 0 0 0 0 0 0 0.38 0"/>
<feBlend mode="normal" in2="BackgroundImageFix" result="effect1_dropShadow_1780_31329"/>
<feBlend mode="normal" in="SourceGraphic" in2="effect1_dropShadow_1780_31329" result="shape"/>
</filter>
<filter id="filter2_d_1780_31329" x="252" y="17.501" width="16.2385" height="22.7134" filterUnits="userSpaceOnUse" color-interpolation-filters="sRGB">
<feFlood flood-opacity="0" result="BackgroundImageFix"/>
<feColorMatrix in="SourceAlpha" type="matrix" values="0 0 0 0 0 0 0 0 0 0 0 0 0 0 0 0 0 0 127 0" result="hardAlpha"/>
<feOffset/>
<feGaussianBlur stdDeviation="0.5"/>
<feColorMatrix type="matrix" values="0 0 0 0 0 0 0 0 0 0 0 0 0 0 0 0 0 0 0.38 0"/>
<feBlend mode="normal" in2="BackgroundImageFix" result="effect1_dropShadow_1780_31329"/>
<feBlend mode="normal" in="SourceGraphic" in2="effect1_dropShadow_1780_31329" result="shape"/>
</filter>
<filter id="filter3_d_1780_31329" x="252" y="31.8721" width="27.6238" height="16.1719" filterUnits="userSpaceOnUse" color-interpolation-filters="sRGB">
<feFlood flood-opacity="0" result="BackgroundImageFix"/>
<feColorMatrix in="SourceAlpha" type="matrix" values="0 0 0 0 0 0 0 0 0 0 0 0 0 0 0 0 0 0 127 0" result="hardAlpha"/>
<feOffset/>
<feGaussianBlur stdDeviation="0.5"/>
<feColorMatrix type="matrix" values="0 0 0 0 0 0 0 0 0 0 0 0 0 0 0 0 0 0 0.38 0"/>
<feBlend mode="normal" in2="BackgroundImageFix" result="effect1_dropShadow_1780_31329"/>
<feBlend mode="normal" in="SourceGraphic" in2="effect1_dropShadow_1780_31329" result="shape"/>
</filter>
</defs>
</svg>
