<svg width="54" height="69" viewBox="0 0 54 69" fill="none" xmlns="http://www.w3.org/2000/svg">
<path d="M20.9424 42.5582C20.8901 42.5337 20.8272 42.4954 20.7749 42.4535C20.0944 41.9126 19.3477 41.3089 18.7021 40.7785C17.7634 40.0073 16.6816 39.1174 15.9209 38.4858C15.4044 38.0601 14.8147 37.7635 14.2598 37.6483C13.9004 37.5855 13.5759 37.5855 13.3212 37.6867C13.1153 37.7774 12.9338 37.9449 12.8187 38.2032C12.6651 38.5521 12.5883 39.0407 12.6267 39.7107C12.6651 40.3039 12.871 40.946 13.1432 41.5776C13.541 42.4919 14.0958 43.3398 14.5076 43.8807C14.532 43.9191 14.56 43.9435 14.5704 43.9854L22.7186 55.6232C22.8233 55.7767 22.8861 55.9442 22.9001 56.1117C23.0676 57.4517 23.3502 58.4672 23.762 59.0988C24.0691 59.5629 24.4564 59.7932 24.9589 59.7793H37.7796C38.5788 59.7653 39.2976 59.535 39.9676 59.0709C40.7004 58.5684 41.3565 57.7832 41.9636 56.7294C41.9776 56.7154 41.9881 56.691 42.002 56.677C42.2323 56.2792 42.5429 55.7628 42.8395 55.2742C44.1412 53.1386 45.2718 51.2717 45.4009 48.6196L45.3241 44.9625C45.3102 44.9102 45.3102 44.8613 45.3102 44.809C45.3102 44.7566 45.3102 44.4111 45.3241 43.947C45.3485 41.5287 45.3869 38.5417 43.1745 38.1683H41.7473C41.7333 38.8487 41.695 39.5467 41.6566 40.2167C41.6182 40.8204 41.5798 41.3892 41.5798 41.9405C41.5798 42.5337 41.1052 43.0083 40.512 43.0083C39.9188 43.0083 39.4442 42.5337 39.4442 41.9405C39.4442 41.3857 39.4826 40.7436 39.5209 40.0736C39.664 37.7949 39.8315 35.1812 38.0134 34.8602H36.5967C36.5199 34.8602 36.4431 34.8462 36.3664 34.8357C36.3803 35.6593 36.328 36.5107 36.2756 37.3343C36.2372 37.938 36.1989 38.5068 36.1989 39.0581C36.1989 39.6514 35.7208 40.1259 35.131 40.1259C34.5378 40.1259 34.0632 39.6514 34.0632 39.0581C34.0632 38.5033 34.1016 37.8612 34.14 37.1912C34.2831 34.9125 34.4471 32.2988 32.6325 31.9778H31.2157C31.111 31.9778 31.0238 31.9638 30.9331 31.9394V36.099C30.9331 36.6922 30.4585 37.1668 29.8653 37.1668C29.272 37.1668 28.7975 36.6887 28.7975 36.099V24.9358C28.7975 23.0689 28.0367 21.8859 27.0596 21.3973C26.7002 21.2159 26.3129 21.1286 25.9395 21.1286C25.5661 21.1286 25.1788 21.2194 24.8193 21.3973C23.8527 21.8859 23.1059 23.0723 23.1059 24.9881V44.5403C23.1059 45.1335 22.6314 45.6081 22.0381 45.6081C21.4449 45.6081 20.9703 45.13 20.9703 44.5403V42.5582H20.9424ZM30.9296 29.8631C31.0203 29.8386 31.111 29.8247 31.2122 29.8247H32.6918C32.7686 29.8247 32.8593 29.8386 32.9361 29.8491C34.9042 30.1597 35.7941 31.3043 36.1535 32.7978C36.2966 32.735 36.4501 32.6931 36.6036 32.6931H38.0832C38.16 32.6931 38.2507 32.7071 38.3275 32.7176C40.4527 33.0526 41.3006 34.3507 41.6112 36.0012C41.6635 35.9873 41.7159 35.9873 41.7787 35.9873H43.2583C43.3351 35.9873 43.4258 36.0012 43.5026 36.0117C47.5714 36.6433 47.5191 40.6843 47.4807 43.9401V44.788L47.5714 48.5463V48.6615C47.4179 51.8684 46.1546 53.9377 44.6995 56.335C44.4552 56.7329 44.2109 57.1446 43.8759 57.7134C43.862 57.7274 43.862 57.7379 43.8515 57.7518C43.0908 59.0779 42.2184 60.0933 41.2134 60.7912C40.1979 61.4996 39.0638 61.8591 37.8285 61.873H25.0217C23.748 61.8974 22.757 61.3461 22.0207 60.2504C21.4275 59.3745 21.0436 58.1392 20.8377 56.5933L12.857 45.1963L12.8187 45.1579C12.3441 44.5263 11.6985 43.5353 11.21 42.443C10.8505 41.6195 10.5783 40.7296 10.5155 39.8572C10.4527 38.8139 10.5923 37.9903 10.8889 37.3343C11.2483 36.5247 11.8416 35.9943 12.55 35.7116C13.206 35.4429 13.9528 35.401 14.6995 35.5581C15.5998 35.7395 16.5281 36.1897 17.3132 36.8457C17.9553 37.3866 19.0371 38.2625 20.0944 39.1244L20.9703 39.8468V24.9986C20.9703 22.1546 22.2335 20.326 23.8667 19.5025C24.5192 19.1675 25.2276 19 25.95 19C26.6723 19 27.3772 19.1675 28.0367 19.5025C29.6733 20.326 30.9575 22.1685 30.9575 24.9602V29.877L30.9296 29.8631Z" fill="white"/>
<path d="M17 21.875L12 17M12 17L7 21.875M12 17L12 30" stroke="white" stroke-width="2" stroke-linecap="round" stroke-linejoin="round"/>
</svg>
